<mxfile host="app.diagrams.net" modified="2024-01-13T13:28:52.147Z" agent="Mozilla/5.0 (Macintosh; Intel Mac OS X 10_15_7) AppleWebKit/537.36 (KHTML, like Gecko) Chrome/120.0.0.0 Safari/537.36" etag="AZMvKgPIzkdy_z9ojgMF" version="22.1.18" type="github">
  <diagram name="第 1 页" id="tel0zK-i6Z4dNTbwuvd0">
    <mxGraphModel dx="1306" dy="801" grid="1" gridSize="10" guides="1" tooltips="1" connect="1" arrows="1" fold="1" page="1" pageScale="1" pageWidth="827" pageHeight="1169" math="0" shadow="0">
      <root>
        <mxCell id="0" />
        <mxCell id="1" parent="0" />
        <mxCell id="BIOtD-0W4ChOzR4a4uk3-88" value="" style="ellipse;whiteSpace=wrap;html=1;aspect=fixed;" vertex="1" parent="1">
          <mxGeometry x="1300" y="240" width="200" height="200" as="geometry" />
        </mxCell>
        <mxCell id="BIOtD-0W4ChOzR4a4uk3-84" value="" style="rounded=0;whiteSpace=wrap;html=1;fillColor=none;dashed=1;" vertex="1" parent="1">
          <mxGeometry x="280" y="521" width="490" height="329" as="geometry" />
        </mxCell>
        <mxCell id="BIOtD-0W4ChOzR4a4uk3-5" value="渠道" style="rounded=0;whiteSpace=wrap;html=1;" vertex="1" parent="1">
          <mxGeometry x="160" y="240" width="60" height="60" as="geometry" />
        </mxCell>
        <mxCell id="BIOtD-0W4ChOzR4a4uk3-6" value="数据过滤" style="rounded=0;whiteSpace=wrap;html=1;" vertex="1" parent="1">
          <mxGeometry x="240" y="240" width="60" height="60" as="geometry" />
        </mxCell>
        <mxCell id="BIOtD-0W4ChOzR4a4uk3-7" value="算法" style="rounded=0;whiteSpace=wrap;html=1;" vertex="1" parent="1">
          <mxGeometry x="320" y="200" width="60" height="60" as="geometry" />
        </mxCell>
        <mxCell id="BIOtD-0W4ChOzR4a4uk3-8" value="数据分析任务" style="rounded=0;whiteSpace=wrap;html=1;" vertex="1" parent="1">
          <mxGeometry x="320" y="280" width="60" height="60" as="geometry" />
        </mxCell>
        <mxCell id="BIOtD-0W4ChOzR4a4uk3-9" value="离线任务" style="rounded=0;whiteSpace=wrap;html=1;" vertex="1" parent="1">
          <mxGeometry x="320" y="350" width="60" height="60" as="geometry" />
        </mxCell>
        <mxCell id="BIOtD-0W4ChOzR4a4uk3-10" value="&lt;font style=&quot;font-size: 24px;&quot;&gt;数据源&lt;/font&gt;" style="text;html=1;align=center;verticalAlign=middle;resizable=0;points=[];autosize=1;strokeColor=none;fillColor=none;" vertex="1" parent="1">
          <mxGeometry x="90" y="500" width="100" height="40" as="geometry" />
        </mxCell>
        <mxCell id="BIOtD-0W4ChOzR4a4uk3-13" value="" style="group" vertex="1" connectable="0" parent="1">
          <mxGeometry x="62" y="546" width="160" height="40" as="geometry" />
        </mxCell>
        <mxCell id="BIOtD-0W4ChOzR4a4uk3-11" value="" style="verticalLabelPosition=bottom;verticalAlign=top;html=1;shape=hexagon;perimeter=hexagonPerimeter2;arcSize=6;size=0.27;" vertex="1" parent="BIOtD-0W4ChOzR4a4uk3-13">
          <mxGeometry width="160" height="40" as="geometry" />
        </mxCell>
        <mxCell id="BIOtD-0W4ChOzR4a4uk3-12" value="小红书/贴吧&lt;br&gt;/微博/TapTap..." style="text;html=1;strokeColor=none;fillColor=none;align=center;verticalAlign=middle;whiteSpace=wrap;rounded=0;" vertex="1" parent="BIOtD-0W4ChOzR4a4uk3-13">
          <mxGeometry x="8" y="7.2" width="140" height="24" as="geometry" />
        </mxCell>
        <mxCell id="BIOtD-0W4ChOzR4a4uk3-14" value="" style="group" vertex="1" connectable="0" parent="1">
          <mxGeometry x="60" y="600" width="160" height="40" as="geometry" />
        </mxCell>
        <mxCell id="BIOtD-0W4ChOzR4a4uk3-15" value="" style="verticalLabelPosition=bottom;verticalAlign=top;html=1;shape=hexagon;perimeter=hexagonPerimeter2;arcSize=6;size=0.27;" vertex="1" parent="BIOtD-0W4ChOzR4a4uk3-14">
          <mxGeometry width="160" height="40" as="geometry" />
        </mxCell>
        <mxCell id="BIOtD-0W4ChOzR4a4uk3-16" value="Appstore/华为应用商店&lt;br&gt;/小米应用商店..." style="text;html=1;strokeColor=none;fillColor=none;align=center;verticalAlign=middle;whiteSpace=wrap;rounded=0;" vertex="1" parent="BIOtD-0W4ChOzR4a4uk3-14">
          <mxGeometry x="8" y="7.2" width="140" height="24" as="geometry" />
        </mxCell>
        <mxCell id="BIOtD-0W4ChOzR4a4uk3-17" value="" style="group" vertex="1" connectable="0" parent="1">
          <mxGeometry x="62" y="650" width="160" height="40" as="geometry" />
        </mxCell>
        <mxCell id="BIOtD-0W4ChOzR4a4uk3-18" value="" style="verticalLabelPosition=bottom;verticalAlign=top;html=1;shape=hexagon;perimeter=hexagonPerimeter2;arcSize=6;size=0.27;" vertex="1" parent="BIOtD-0W4ChOzR4a4uk3-17">
          <mxGeometry width="160" height="40" as="geometry" />
        </mxCell>
        <mxCell id="BIOtD-0W4ChOzR4a4uk3-19" value="知乎/悟空问答&lt;br&gt;..." style="text;html=1;strokeColor=none;fillColor=none;align=center;verticalAlign=middle;whiteSpace=wrap;rounded=0;" vertex="1" parent="BIOtD-0W4ChOzR4a4uk3-17">
          <mxGeometry x="8" y="7.2" width="140" height="24" as="geometry" />
        </mxCell>
        <mxCell id="BIOtD-0W4ChOzR4a4uk3-21" value="" style="group" vertex="1" connectable="0" parent="1">
          <mxGeometry x="60" y="700" width="160" height="40" as="geometry" />
        </mxCell>
        <mxCell id="BIOtD-0W4ChOzR4a4uk3-22" value="" style="verticalLabelPosition=bottom;verticalAlign=top;html=1;shape=hexagon;perimeter=hexagonPerimeter2;arcSize=6;size=0.27;" vertex="1" parent="BIOtD-0W4ChOzR4a4uk3-21">
          <mxGeometry width="160" height="40" as="geometry" />
        </mxCell>
        <mxCell id="BIOtD-0W4ChOzR4a4uk3-23" value="抖音/快手&lt;br&gt;/视频号..." style="text;html=1;strokeColor=none;fillColor=none;align=center;verticalAlign=middle;whiteSpace=wrap;rounded=0;" vertex="1" parent="BIOtD-0W4ChOzR4a4uk3-21">
          <mxGeometry x="8" y="7.2" width="140" height="24" as="geometry" />
        </mxCell>
        <mxCell id="BIOtD-0W4ChOzR4a4uk3-24" value="" style="group" vertex="1" connectable="0" parent="1">
          <mxGeometry x="60" y="750" width="160" height="40" as="geometry" />
        </mxCell>
        <mxCell id="BIOtD-0W4ChOzR4a4uk3-25" value="" style="verticalLabelPosition=bottom;verticalAlign=top;html=1;shape=hexagon;perimeter=hexagonPerimeter2;arcSize=6;size=0.27;" vertex="1" parent="BIOtD-0W4ChOzR4a4uk3-24">
          <mxGeometry width="160" height="40" as="geometry" />
        </mxCell>
        <mxCell id="BIOtD-0W4ChOzR4a4uk3-26" value="腾讯视频/bilibili&lt;br&gt;/西瓜视频..." style="text;html=1;strokeColor=none;fillColor=none;align=center;verticalAlign=middle;whiteSpace=wrap;rounded=0;" vertex="1" parent="BIOtD-0W4ChOzR4a4uk3-24">
          <mxGeometry x="8" y="7.2" width="140" height="24" as="geometry" />
        </mxCell>
        <mxCell id="BIOtD-0W4ChOzR4a4uk3-48" style="edgeStyle=orthogonalEdgeStyle;rounded=0;orthogonalLoop=1;jettySize=auto;html=1;exitX=1;exitY=0.5;exitDx=0;exitDy=0;entryX=0;entryY=0.5;entryDx=0;entryDy=0;strokeWidth=5;" edge="1" parent="1" source="BIOtD-0W4ChOzR4a4uk3-27" target="BIOtD-0W4ChOzR4a4uk3-40">
          <mxGeometry relative="1" as="geometry" />
        </mxCell>
        <mxCell id="BIOtD-0W4ChOzR4a4uk3-27" value="" style="rounded=0;whiteSpace=wrap;html=1;" vertex="1" parent="1">
          <mxGeometry x="290" y="550" width="90" height="290" as="geometry" />
        </mxCell>
        <mxCell id="BIOtD-0W4ChOzR4a4uk3-28" value="爬虫" style="rounded=0;whiteSpace=wrap;html=1;" vertex="1" parent="1">
          <mxGeometry x="300" y="616.5" width="70" height="47" as="geometry" />
        </mxCell>
        <mxCell id="BIOtD-0W4ChOzR4a4uk3-29" value="API" style="rounded=0;whiteSpace=wrap;html=1;" vertex="1" parent="1">
          <mxGeometry x="300" y="715" width="70" height="47" as="geometry" />
        </mxCell>
        <mxCell id="BIOtD-0W4ChOzR4a4uk3-31" value="" style="group" vertex="1" connectable="0" parent="1">
          <mxGeometry x="60" y="800" width="160" height="40" as="geometry" />
        </mxCell>
        <mxCell id="BIOtD-0W4ChOzR4a4uk3-32" value="" style="verticalLabelPosition=bottom;verticalAlign=top;html=1;shape=hexagon;perimeter=hexagonPerimeter2;arcSize=6;size=0.27;" vertex="1" parent="BIOtD-0W4ChOzR4a4uk3-31">
          <mxGeometry width="160" height="40" as="geometry" />
        </mxCell>
        <mxCell id="BIOtD-0W4ChOzR4a4uk3-33" value="游戏内数据..." style="text;html=1;strokeColor=none;fillColor=none;align=center;verticalAlign=middle;whiteSpace=wrap;rounded=0;" vertex="1" parent="BIOtD-0W4ChOzR4a4uk3-31">
          <mxGeometry x="8" y="7.2" width="140" height="24" as="geometry" />
        </mxCell>
        <mxCell id="BIOtD-0W4ChOzR4a4uk3-34" style="edgeStyle=orthogonalEdgeStyle;rounded=0;orthogonalLoop=1;jettySize=auto;html=1;exitX=1;exitY=0.5;exitDx=0;exitDy=0;entryX=0;entryY=0.5;entryDx=0;entryDy=0;" edge="1" parent="1" source="BIOtD-0W4ChOzR4a4uk3-11" target="BIOtD-0W4ChOzR4a4uk3-27">
          <mxGeometry relative="1" as="geometry" />
        </mxCell>
        <mxCell id="BIOtD-0W4ChOzR4a4uk3-35" style="edgeStyle=orthogonalEdgeStyle;rounded=0;orthogonalLoop=1;jettySize=auto;html=1;exitX=1;exitY=0.5;exitDx=0;exitDy=0;entryX=0;entryY=0.5;entryDx=0;entryDy=0;" edge="1" parent="1" source="BIOtD-0W4ChOzR4a4uk3-15" target="BIOtD-0W4ChOzR4a4uk3-27">
          <mxGeometry relative="1" as="geometry" />
        </mxCell>
        <mxCell id="BIOtD-0W4ChOzR4a4uk3-36" style="edgeStyle=orthogonalEdgeStyle;rounded=0;orthogonalLoop=1;jettySize=auto;html=1;exitX=1;exitY=0.5;exitDx=0;exitDy=0;entryX=0;entryY=0.5;entryDx=0;entryDy=0;" edge="1" parent="1" source="BIOtD-0W4ChOzR4a4uk3-18" target="BIOtD-0W4ChOzR4a4uk3-27">
          <mxGeometry relative="1" as="geometry" />
        </mxCell>
        <mxCell id="BIOtD-0W4ChOzR4a4uk3-37" style="edgeStyle=orthogonalEdgeStyle;rounded=0;orthogonalLoop=1;jettySize=auto;html=1;exitX=1;exitY=0.5;exitDx=0;exitDy=0;entryX=0;entryY=0.5;entryDx=0;entryDy=0;" edge="1" parent="1" source="BIOtD-0W4ChOzR4a4uk3-22" target="BIOtD-0W4ChOzR4a4uk3-27">
          <mxGeometry relative="1" as="geometry" />
        </mxCell>
        <mxCell id="BIOtD-0W4ChOzR4a4uk3-38" style="edgeStyle=orthogonalEdgeStyle;rounded=0;orthogonalLoop=1;jettySize=auto;html=1;exitX=1;exitY=0.5;exitDx=0;exitDy=0;entryX=0;entryY=0.5;entryDx=0;entryDy=0;" edge="1" parent="1" source="BIOtD-0W4ChOzR4a4uk3-25" target="BIOtD-0W4ChOzR4a4uk3-27">
          <mxGeometry relative="1" as="geometry" />
        </mxCell>
        <mxCell id="BIOtD-0W4ChOzR4a4uk3-39" style="edgeStyle=orthogonalEdgeStyle;rounded=0;orthogonalLoop=1;jettySize=auto;html=1;exitX=1;exitY=0.5;exitDx=0;exitDy=0;entryX=0;entryY=0.5;entryDx=0;entryDy=0;" edge="1" parent="1" source="BIOtD-0W4ChOzR4a4uk3-32" target="BIOtD-0W4ChOzR4a4uk3-27">
          <mxGeometry relative="1" as="geometry" />
        </mxCell>
        <mxCell id="BIOtD-0W4ChOzR4a4uk3-72" style="edgeStyle=orthogonalEdgeStyle;rounded=0;orthogonalLoop=1;jettySize=auto;html=1;exitX=1;exitY=0.5;exitDx=0;exitDy=0;entryX=0;entryY=0.5;entryDx=0;entryDy=0;strokeWidth=5;" edge="1" parent="1" source="BIOtD-0W4ChOzR4a4uk3-40" target="BIOtD-0W4ChOzR4a4uk3-54">
          <mxGeometry relative="1" as="geometry" />
        </mxCell>
        <mxCell id="BIOtD-0W4ChOzR4a4uk3-40" value="" style="rounded=0;whiteSpace=wrap;html=1;" vertex="1" parent="1">
          <mxGeometry x="427" y="550" width="70" height="290" as="geometry" />
        </mxCell>
        <mxCell id="BIOtD-0W4ChOzR4a4uk3-43" value="kafka" style="text;html=1;strokeColor=none;fillColor=none;align=center;verticalAlign=middle;whiteSpace=wrap;rounded=0;" vertex="1" parent="1">
          <mxGeometry x="432" y="570" width="60" height="30" as="geometry" />
        </mxCell>
        <mxCell id="BIOtD-0W4ChOzR4a4uk3-44" value="" style="shape=image;verticalLabelPosition=bottom;labelBackgroundColor=default;verticalAlign=top;aspect=fixed;imageAspect=0;image=data:image/png,iVBORw0KGgoAAAANSUhEUgAAAJoAAABgCAYAAADl9mtoAAAKrmlDQ1BJQ0MgUHJvZmlsZQAASImVlwdUU9kWhs+96SGhJYQiJdRQBOkEkBJCC6AgHWyEJEAoIQYCil0ZHIERRUQEFMGKKDgWQMaKKBYGxQbWCTIIKONgwYbKu8AizMxb77319lp7ne/u7LPPPmfdk/VfAMjKXLE4FVYGIE2UKQn186JHx8TScYMAAjAgAgZQ5vIyxKyQkCCA2PT4d/vwAMlG7K7lRK1///2/mgpfkMEDAApBOJ6fwUtD+BTiL3liSSYAqL1I3DA7UzzBbQhTJUiDCPdMcOIUD09w/CSjwWROeCgbYSoAeBKXK0kEgERH4vQsXiJSh+SJsLWILxQhLEbYPS0tnY/wcYRNkRwkRpqoz4z/S53Ev9WMl9fkchPlPLWXScN7CzPEqdwV/+dx/G9LS5VOr2GCOClJ4h+KjKrImfWkpAfKWRQ/P3iahfzJ/ElOkvpHTDMvgx07zXyud6B8bur8oGlOEPpy5HUyOeHTLMjwCZtmSXqofK0ECZs1zVzJzLrSlAh5PEnAkdfPSQqPmuYsYeT8ac5ICQucyWHL4xJpqLx/gcjPa2ZdX/ne0zL+sl8hRz43MyncX7537kz/AhFrpmZGtLw3vsDbZyYnQp4vzvSSryVODZHnC1L95PGMrDD53EzkhZyZGyI/w2RuQMg0AzZIB6mISwAdBCFP3gBkCpZnTmyEnS5eIREmJmXSWcgNE9A5Ip7VbLqtta09ABP3dep1eEebvIcQ7cZMbKMTAG654+PjZ2digQcAOBkDAPHeTIzxGQAlQwCu7eFJJVlTscm7hEH+BZQAFWgCXWAITIElsAWOwBV4Ah8QAIJBOIgBSwAPJIE0pPNssAqsB3mgAGwFO0A5qAL7wGFwDJwATeAsuASugpvgNrgPHgMZ6AevwAj4AMYgCMJBZIgCaUJ6kDFkAdlCTMgd8oGCoFAoBoqDEiERJIVWQRuhAqgYKoeqoVroZ+gMdAm6DnVBD6FeaAh6C32BUTAJpsI6sAk8B2bCLDgQDocXw4nwMjgHzoW3wGVwDXwUboQvwTfh+7AMfgWPogBKAUVD6aMsUUwUGxWMikUloCSoNah8VCmqBlWPakG1o+6iZKhh1Gc0Fk1B09GWaFe0PzoCzUMvQ69BF6LL0YfRjeg29F10L3oE/R1DxmhjLDAuGA4mGpOIycbkYUoxBzGnMVcw9zH9mA9YLJaGZWCdsP7YGGwydiW2ELsb24C9iO3C9mFHcTicJs4C54YLxnFxmbg83C7cUdwF3B1cP+4TXgGvh7fF++Jj8SL8Bnwp/gj+PP4OfgA/RlAmGBNcCMEEPmEFoYiwn9BCuEXoJ4wRVYgMohsxnJhMXE8sI9YTrxCfEN8pKCgYKDgrLFAQKqxTKFM4rnBNoVfhM0mVZE5ikxaRpKQtpEOki6SHpHdkMtmE7EmOJWeSt5BryZfJz8ifFCmKVoocRb7iWsUKxUbFO4qvlQhKxkospSVKOUqlSieVbikNKxOUTZTZylzlNcoVymeUu5VHVSgqNirBKmkqhSpHVK6rDKriVE1UfVT5qrmq+1Qvq/ZRUBRDCpvCo2yk7KdcofRTsVQGlUNNphZQj1E7qSNqqmr2apFqy9Uq1M6pyWgomgmNQ0ulFdFO0B7QvqjrqLPUBeqb1evV76h/1Jil4akh0MjXaNC4r/FFk67po5miuU2zSfOpFlrLXGuBVrbWHq0rWsOzqLNcZ/Fm5c86MeuRNqxtrh2qvVJ7n3aH9qiOro6fjlhnl85lnWFdmq6nbrJuie553SE9ip67nlCvRO+C3ku6Gp1FT6WX0dvoI/ra+v76Uv1q/U79MQOGQYTBBoMGg6eGREOmYYJhiWGr4YiRntE8o1VGdUaPjAnGTOMk453G7cYfTRgmUSabTJpMBhkaDA4jh1HHeGJKNvUwXWZaY3rPDGvGNEsx22122xw2dzBPMq8wv2UBWzhaCC12W3TNxsx2ni2aXTO725JkybLMsqyz7LWiWQVZbbBqsno9x2hO7Jxtc9rnfLd2sE613m/92EbVJsBmg02LzVtbc1uebYXtPTuyna/dWrtmuzf2FvYC+z32PQ4Uh3kOmxxaHb45OjlKHOsdh5yMnOKcKp26mVRmCLOQec0Z4+zlvNb5rPNnF0eXTJcTLn+6WrqmuB5xHZzLmCuYu39un5uBG9et2k3mTnePc9/rLvPQ9+B61Hg89zT05Hse9BxgmbGSWUdZr72svSRep70+sl3Yq9kXvVHeft753p0+qj4RPuU+z3wNfBN963xH/Bz8Vvpd9Mf4B/pv8+/m6HB4nFrOSIBTwOqAtkBSYFhgeeDzIPMgSVDLPHhewLzt857MN54vmt8UDII5wduDn4YwQpaF/LIAuyBkQcWCF6E2oatC28MoYUvDjoR9CPcKLwp/HGEaIY1ojVSKXBRZG/kxyjuqOEoWPSd6dfTNGK0YYUxzLC42MvZg7OhCn4U7FvYvcliUt+jBYsbi5YuvL9Fakrrk3FKlpdylJ+MwcVFxR+K+coO5NdzReE58ZfwIj83byXvF9+SX8IcEboJiwUCCW0JxwmCiW+L2xKEkj6TSpGEhW1gufJPsn1yV/DElOOVQynhqVGpDGj4tLu2MSFWUImpL101fnt4lthDniWXLXJbtWDYiCZQczIAyFmc0Z1IRYdQhNZX+IO3Ncs+qyPqUHZl9crnKctHyjhXmKzavGMjxzTmwEr2St7J1lf6q9at6V7NWV6+B1sSvaV1ruDZ3bf86v3WH1xPXp6z/dYP1huIN7zdGbWzJ1cldl9v3g98PdXmKeZK87k2um6p+RP8o/LFzs93mXZu/5/PzbxRYF5QWfC3kFd74yeansp/GtyRs6SxyLNqzFbtVtPXBNo9th4tVinOK+7bP295YQi/JL3m/Y+mO66X2pVU7iTulO2VlQWXNu4x2bd31tTyp/H6FV0VDpXbl5sqPu/m77+zx3FNfpVNVUPVlr3BvT7VfdWONSU3pPuy+rH0v9kfubz/APFB7UOtgwcFvh0SHZIdDD7fVOtXWHtE+UlQH10nrho4uOnr7mPex5nrL+uoGWkPBcXBcevzlz3E/PzgReKL1JPNk/SnjU5WnKafzG6HGFY0jTUlNsuaY5q4zAWdaW1xbTv9i9cuhs/pnK86pnSs6Tzyfe378Qs6F0Yvii8OXEi/1tS5tfXw5+vK9tgVtnVcCr1y76nv1cjur/cI1t2tnr7tcP3ODeaPppuPNxg6HjtO/Ovx6utOxs/GW063m2863W7rmdp2/43Hn0l3vu1fvce7dvD//fteDiAc93Yu6ZT38nsGHqQ/fPMp6NPZ43RPMk/ynyk9Ln2k/q/nN7LcGmaPsXK93b8fzsOeP+3h9r37P+P1rf+4L8ovSAb2B2kHbwbNDvkO3Xy582f9K/GpsOO8PlT8qX5u+PvWn558dI9Ej/W8kb8bfFr7TfHfovf371tGQ0Wcf0j6Mfcz/pPnp8Gfm5/YvUV8GxrK/4r6WfTP71vI98PuT8bTxcTFXwp2UAijE4YQEAN4eAoCMaAfKbUQ/LJzS05MGTX0DTBL4TzyluSfNEYB6ZJiQReyLABxH3GQdAIrI84QkCvcEsJ2d3Ke176ROnzAs8sWy13uCHm5fvA78w6Y0/F/6/ucIJqrag3+O/wKWtgaKM15glQAAAGxlWElmTU0AKgAAAAgABAEaAAUAAAABAAAAPgEbAAUAAAABAAAARgEoAAMAAAABAAIAAIdpAAQAAAABAAAATgAAAAAAAACQAAAAAQAAAJAAAAABAAKgAgAEAAAAAQAAAJqgAwAEAAAAAQAAAGAAAAAALw1sigAAAAlwSFlzAAAWJQAAFiUBSVIk8AAAE5tJREFUeAHtXVlzG8cR7sUCBE1SZ0zrsK04thRbKTsPrjzkJS+JH1x5Tn5iqlKVR78kUSVOynZKTmJZlmXZuixRF2WRFO8DIHY339e9A4DAQgTJxcFgRgKwOzvT09P9TU/PtQwSBPHBS6DHEij0mL4n7yWgEvBA80DoiwQ80PoiZl+IB5rHQF8k4IHWFzH7QjzQPAb6IgEPtL6I2RfigeYx0BcJeKD1Rcy+EA80j4G+SMADrS9i9oV4oHkM9EUCHmh9EbMvxAPNY6AvEih2U8q1P/5OJB6TpBAjud9V1FlmkE1Q6/w460kSIDbEh7+tIUI0Zd4akDahjRisnQhi8B1UpVosyy9+/4dWJnfcdwW0JGCFCTD32UHD36gEUtkocPYqEuZtDWncC+ll5Wul07v7JAgk0Iawe+PqCmgBK0uw9cmaJQC1yhdfhu9A2y5iJS6kz/YgP9IovFBhWcRoNbLiGdfZslP4VhR+YaXALj68Yi4+CyTmDZ4ynr+sU3theI6EQUJrlxWQR4WT9axPccE2CgKPQmy8OHQJNJhoINfERYIqqRdTPsBTE7sJktWgyiRVVjGrJ9mlLCq+wfsuid1jttROiiSDHUIBJRE/BqZUTmRA/xv4HDfuLuygJzYs7U0yyyLtQXadlChkxIagRiiTyXpkV0AzYDnppsKrk+jBBRSjpVDRapopcgaF3B4LVA1Tt3sLapY61ZUCbifH1Ao0Fgm0WdPkTYjkfMrvKLVwsVo7Uolh5bID4zs9y87Rv1irT7f8dQm0/rHPkrSdqiIJMKqLKirAH7AWXD/moDrIUgRyMFP6SGEb00JZRNBRsSy9EerlMKpeFsGCm5Q2H2lR+IrxiWDKwpAPI+EPnylmmRB3ZsUYK1JTs4dEzb2j0uUX0iKZNS2N1Dz8ilEXyqLLatTzDfJiKIGm2oFUVNz4ijHCSpKShIUyjTXu+Q1VqBZNaRqR8UUaRYyWE6lKEhFs0GvYrNmMTIiqoEuIgiKUSQoM7teVl/7ief0JgEMohcm2lEM0isT1icooaLhfgAzoqiZFgLCI9GhcKRFXJ02JONKzAlCO8sInsRSTqgyn8iir9jC8vKqQIWMonDqo4ffI9HkpH/8xnOcxqwlkTrG3B3tgeqlJsDUrz2euInEFSdXzAU1SdblbrwMpTb0uR16+IKXxY0hHJbMU5FXzhHzapTPOPSOvidS2FmXu/r+lJBXYYG0WTNQUCEba6RB1OSuTqFOpjDJSa02WHFcsy10bv7yPJNqcl9XHX8JorqZ0G6maChqqyyEFGgSaOphBXEBrj3VkNvHKeTl9/gMJx06aEFX5WfKktszqSbwlm3NXZH7mWxkLawDKNiwVR3wcEULlzko4x191VpAjJ1+T02//SiaPnUOaElGEgkBTgQ9rZchrKpxlbsv60i2Ze3hFkuq6minOPQac8yJolF9eA/wYaU6deFVeu/gbGT9yDnRQBkNzncifjuhYrtEIYJlX5m7IxrNbANoaMuDZDt6bCSjFofgaTqBBiaoUfNk/1T4ECnZV6bt1fVQQLQ3y0RHHh7/waqAWKgb3UCJVopRVUbxKlYRLe0rXHt0bQZAOSugbJVB6G86cOgNMbOs1KLDLJ238t7JokThVYynUOUN6rdMORy0lpuwwD3hW7gE25d/opKnwk9IjU4504+FQXJHzwxFUsykQDgfHnssmCRwCoBm46AgHzmNuqoC/PBwSGEqg0fo7t8P1Zq292+EQr+fSSWAogUaPhMDiGj6vCTxed99xMqX74HIPOZl6aAIrzo+ri16n9/Vr3g9/GEqgwe9V0ZI5DrbonvF6V6DtEL4DGnMe5tBa664kMXQVPuxaGDqBeoayJeCBli0XH5uzBDzQchaoJ5ctgZwmbOkcNTlI8OQ5MZmky0ecXvShXxKArHVyGb4dHVwEnfDFre4r3N3T7QmjOQGNjrpzWlFRzLqr664VZQ1334HZk9qNKlEnd/1Fk9fJbh3LD0wi+QCtvo7nAIZdD7gsYJ2OS0mM9aFfEoAVQ0/CYD0J11oJMtsdx55mECEfoBFVWARPChG28HC3RRlbX7DFL9pIK1seRN1GtEzuVbPtSQm60O0oUoumW6OwjYmqGkTIZTDAvp9uAVtLhC08xYlTUjr2qlTDcakVciliELI5lGXSXgW6Dw6eGTYAxKVxmT53UbbCaWy1Kg2sd8kHBfQFWIm4JFHyEvZZvSGvvPVLmTjxllRxTM8gmDYl9qVqvgfUtA4lfLpnWrtGdp3YVBnHZWxUOS4nzr0vb773WylNnEYHym3l7Epp9agDDtx4b9ftv3iUQ8il60x4Mgn/CCEdB5Sn5OjZn0k4MS0L947L8qMv8GxLSoWSxDXbosM8FgbjM+Qgu6EkQT1QxCEUEWIfby2qSaF0TI6ffFeKpUmZuf4Xqa7NyJhsw4fmpil4ctqfUn8ZulA1ZcTvsfa5AI2tgA4nnU9lCXvGwvJJmZr+kYTFcfhtCTYDfgGgbWMfPXaIaqvi7jAf8pcAoEbBQuY6GEA3ysYfltj4fy5vYDv8/Wt/l9rKbRkrrJsOdPCARFkOnNI6OJc5AQ081lsFmwA3/JVhvSekfPIdmb5QkgJOMy8+/FzKwYZZZzxv7Kk/eEU8hWwJqEEihjDFERWPysSp9+T1d0sy+10k26vfYQxXxYAUu5h1C5amziZ0wNhcgEb22IrMotGypaMeHp8oTsnkyz+VUnFMCuGYzM1clrF4E4cAMLemp4UOWAOfvWsJBDwMU5yUY2cvYDv8r2X2Vihb899LocbGDz+th11MLkBzp8bUVKtjSefSPtrvw1yXjrwpp85jmzNOID2/+y8ZC9aRghBlCuZUuKZ17V3L6lorhzYhZIm+0v41KkGJFmrYRo7TWRG60ckz78spmZSF5GOcqfgG6lqr95wqfYCOv6bTgyMwF6ApmDjFoTPQBhzd2sPuVHnEb7Eo5aPn5MxPPsBUSCgLM5+i51yGdeNefoyBkJbzPrpMwhry48O+JMCDN9r4IUSdrCXwqB8OwCDsAD50guHA8emLOLYH/xm6WQfYkuoKAIeeht0Teht7qQ/y5aCLfIAGRggv+8aVA5z+2pGQhCeQMP1Rmnhdzrz9gcRhLEv3PhHZ2sTQABO9RXzgJ8QRzDsr6sO+JEA9UHpsuGytAQ9O42Qz7wIeIOUvQaf3Y3Lk9EWcjSnJs1JRVp9el2hrHptMOVzD0FVzMcfBQy5Aa2PD6mPRBA3n2QA6bSFjRfhrp+Xc2x9iYDAuszc/gyDmWHukp23jxwPNhHfwbwUdwKZAwxfvec2RaMxTZWjck9MXZLqABl4ak+XZKxKvzynMCjofl48uegO0HfKx1gRbjFgwDRwlWKIqvHRWpt/5UFY312Tl0adSDLbQ+jD6UaeUovAhDwmwd6nVMDhTv81Ao990VVCATeBOyOSJC3KmgF6nsiAra8uGROiLdkJf5nJAZnIHmlUFXKEWWhXMm6mhRuugrdIZaU7wwjxXN5/L0SMl2eQhW84yAowJ5troq9Hcay01j//avwSsm2R+LknRudcT9BAvPRv1bihqTHMktW1Md/B1WYznoW1Vo3a1+y/fcuYENHDKoPDnNUw1f+r3vKZjykpjwSNZl8oaXlNw65LM3/8P7FsFcfTU2IKsFVkVkc+HfUmAcmawX07e2h0XpRNM4qofrfoAqmprsrl4R2Zvfyars3cxTOBzWEF1Z5AT0yIHDQenoBw4EMEqgUEsgoA5tB7dD2XXbpkjwZzNxuL38sP9T2Xl/md6DjzifBvqU9B8EI3OVPMlbz7sRwIEl2EkNQAp6AroJTjyZI/Bl+ZwBirBaxXWn1+XJzf/IWs/3JExvJ+Er6DgaXyM2FKAOjr74cby5AS0TgzQBgNoCHy1gCSrsrl6TZ7e/ifWQG/IeOngFehUso9vSMC8Mfr9XD4P0XvA8ceblYLtRViyrxVkq8/uSAnvDuFkO6dGqBloD/rj25EOrqceA43WiVyD0dqWrC/e10ptzl6XKa556mi0IRB/lb8EHEToi6klswk2iSuLsj7/tTy9eUm2Fu7IOKyY+WsKL3VhCDdkyyX0HGjgWOLtdVlHZR5/9WepLN7WhfUcuv1cBDAqRAgY2xgEl6S6JKvPrsqjm3+TaPkBpplScNEo6OwADBkQysGb+XgHl1JuQFMe0+aj/oFe86sia8+/lZmrf5Li0kMZh58QYS5tA68NH8PkLCY0Dl6LUaSwB1NDLdBHJtCCaBMO/zWsc16SaOWelDj4wtuSdLe3o8mBG2L51iPL6x7sX9C5AE2HwWCuCG45iUHoJLhOMLpcffZfefTlRxKvLoBpsM9ZDAyhOVmbx/zM/qt+eHNS+W592TVTt72Pz7CkCehwJQbrmtjxzMEWd56F62t4SeDH8uzBJSxtzqGhY1MqLESC+TMbPaTUkF8BBg3lFXIBmr7eXD3IIqpXxPIHtp7Igsw/uCu3r3wk49GSlHGeQF8gDEDy5cARPlwRya8qeYnk/4OOW8YrEoEYWQYx30R5WWa//0Rqm7NSpt+MwNUanvXgzg5FV4+qnxPQ4EjCjsUYMsdoRUm8IkuPLssPX12WY9E8KoAWwzU3rRjtmLWXHtVp5Mnai/7YhDHCrFakhIb+4NpfZeXJFbxmdU5ewpMA687cg6uBoFPfx2578Z0L0GxswlnnANt/Ill6eEOWH2AkE1fwouKaVHWGI60+KmQGmuD0IW8J0LdiSPhOXMiaO5qffPeFbFQiTMSu6ek0Pd+hIDMw6sJ7OiDImx9HLxegRUQO6leE1QoBrgJ+Y3gG1e0YXSkAhQVbHcPAIWX3ySUQCoRLIj70QgJ04iFbuCcBlvrirSWZBJDYk8T6qlWWiTkzgotOszrOBJ2BtBcc5QK0AkcDZJNOJe0UkMclDH11LCuhpsvNzzClWTde+bB3CVCcdL3SXT8q33rPxwuuyqjQ0bCxO4OwgzbwTT3ZMqA2fM2E9DpNsHc+9pIjF6BZpVgHtgiKATGucaBV+dADCTj5ZpJulTlB1hznrt1vJpFcI33flas4PbFOEvBA6yQZH5+rBDzQchWnJ9ZJAh5onSTj43OVgAdaruL0xDpJwAOtk2R8fK4S8EDLVZyeWCcJeKB1koyPz1UCuUzY5soRiPFFcpyP5CSjvRaTc9ucdGSkPeFlW9gx/2gzmumOKiy9YPklnQnnbhNOKtf/xDTj63nTa04063+uaIBKmkY50XXBeoYmNtIyMTNfwNQ9l9t4Kt+CbTwgHfsHSjqZ7ehY3iZiWl/jn2lsht+914Q8NUJKozmq8XAoroYSaPbuW1syCfi3LQkSLp9gn3vCw7C6S4/yg8qcnogKDQQFL/iLOFxz0x+BFuGeJ7AJtAiPCDQcmLewQ0mMTOkhnxE046+HbHbsEmzmgfzhuCDyhgQaeA0iHALBKX0e2uFuCgOZLgDhnq+UIp+OCbJi9JQdlo1gS0d4ogBHWq0gn/FjdWQ6vbaLofseSqBRxSpGXHBNj3LVtyrhnbhJbRmvT3BW4gXyRB6CMMEiv+DklR66gEJD3dVA62J0GxQY0wgEeILy4hr/yi9oIJ/xRBtDKO1Mz5wBykqqzwFeWmR7vvNYBHICPA4nhWgL6Rew1X0KFcxSBUu05SOlBv5j8JLwbUy4aoR2XhrPhuMqq3aD5yztXrhgqiqFtkJszqusPZSlJ5/j78NONPFIZXQKUABO9myvPARgYRmRzFSXKkatVbaSoo1ZvIviilSW7kLXFBOApklby2u6R5dfWXuGXSzY+AmUcy9oDCukGzyROeYmQ8bBnPJFLLWNBbyC4KqUlmeQno2niZZWyeyfglbL5gbFbamszmGHDMF2eMJQAk3Pg0Kw7DJV9NyNgC5p4fE3Mv/4Rrs+XiBv6oe2iG9uVasIggYYxKtpUQ22UdhYuIfzjvc0NzjRTHUr5fhqywXrA8tXxhFD7rpzb0gy40PLhM4SwONfMSbQNp8DzEtPEcsn/DQCuWI7INR08zJu1LbBqumOZk2fzXuDyvBcdQW0hggaV72vAkHG8ihMbjuKsUm8asLfExuqMlByPhY5RxwVp3SyiWFvKp7v7J70lVrIDbuE7+x8zBHy3CS7WvCsPp0WZ2US5DoIAMiLOKwbwgp2CgSjAg1l0ZdTf1SLJuSche2Uu/fx2RLILrcroOnojPvLQMOqnk0sr1hXAbM4EDJ1BNEaMIyLvZYFu6D4Im2l4Aoxou3k8NyB0z0kHxY68aDqB7/00cgvfUEriFf0N4tkQ30tAgcgIyk6chlBD6BovJXnWNY8pN+J9wxaeUeRFzYqPQfSBR9dAa0QI1nqX7AAVDHl21W99Z6PW+N43yl9S1ptuqRh6fV9HErP0tm0QOM5r7LLY3x7meQ/pcwECC3l816j2vNa+g559CHyKG7YJOF3wRIpYNI6UTGkbXVKBzUt9W3np6m8ulIzeHbl6+9enrembSovQ35KHpXQ6RtsbA34Qp5dQldA0yPxEJDt0tyFon88MhLg1BD9X8w67RoASjYxH7wEeiuBbOegt2V66iMoAQ+0EVT6IKrsgTYIqY9gmR5oI6j0QVTZA20QUh/BMj3QRlDpg6iyB9ogpD6CZXqgjaDSB1FlD7RBSH0Ey/RAG0GlD6LKHmiDkPoIlumBNoJKH0SVPdAGIfURLNMDbQSVPogqe6ANQuojWKYH2ggqfRBV/h8AMTa9hr71zgAAAABJRU5ErkJggg==;" vertex="1" parent="1">
          <mxGeometry x="431" y="620" width="64.17" height="40" as="geometry" />
        </mxCell>
        <mxCell id="BIOtD-0W4ChOzR4a4uk3-45" value="" style="shape=image;verticalLabelPosition=bottom;labelBackgroundColor=default;verticalAlign=top;aspect=fixed;imageAspect=0;image=data:image/png,iVBORw0KGgoAAAANSUhEUgAAAJoAAABgCAYAAADl9mtoAAAKrmlDQ1BJQ0MgUHJvZmlsZQAASImVlwdUU9kWhs+96SGhJYQiJdRQBOkEkBJCC6AgHWyEJEAoIQYCil0ZHIERRUQEFMGKKDgWQMaKKBYGxQbWCTIIKONgwYbKu8AizMxb77319lp7ne/u7LPPPmfdk/VfAMjKXLE4FVYGIE2UKQn186JHx8TScYMAAjAgAgZQ5vIyxKyQkCCA2PT4d/vwAMlG7K7lRK1///2/mgpfkMEDAApBOJ6fwUtD+BTiL3liSSYAqL1I3DA7UzzBbQhTJUiDCPdMcOIUD09w/CSjwWROeCgbYSoAeBKXK0kEgERH4vQsXiJSh+SJsLWILxQhLEbYPS0tnY/wcYRNkRwkRpqoz4z/S53Ev9WMl9fkchPlPLWXScN7CzPEqdwV/+dx/G9LS5VOr2GCOClJ4h+KjKrImfWkpAfKWRQ/P3iahfzJ/ElOkvpHTDMvgx07zXyud6B8bur8oGlOEPpy5HUyOeHTLMjwCZtmSXqofK0ECZs1zVzJzLrSlAh5PEnAkdfPSQqPmuYsYeT8ac5ICQucyWHL4xJpqLx/gcjPa2ZdX/ne0zL+sl8hRz43MyncX7537kz/AhFrpmZGtLw3vsDbZyYnQp4vzvSSryVODZHnC1L95PGMrDD53EzkhZyZGyI/w2RuQMg0AzZIB6mISwAdBCFP3gBkCpZnTmyEnS5eIREmJmXSWcgNE9A5Ip7VbLqtta09ABP3dep1eEebvIcQ7cZMbKMTAG654+PjZ2digQcAOBkDAPHeTIzxGQAlQwCu7eFJJVlTscm7hEH+BZQAFWgCXWAITIElsAWOwBV4Ah8QAIJBOIgBSwAPJIE0pPNssAqsB3mgAGwFO0A5qAL7wGFwDJwATeAsuASugpvgNrgPHgMZ6AevwAj4AMYgCMJBZIgCaUJ6kDFkAdlCTMgd8oGCoFAoBoqDEiERJIVWQRuhAqgYKoeqoVroZ+gMdAm6DnVBD6FeaAh6C32BUTAJpsI6sAk8B2bCLDgQDocXw4nwMjgHzoW3wGVwDXwUboQvwTfh+7AMfgWPogBKAUVD6aMsUUwUGxWMikUloCSoNah8VCmqBlWPakG1o+6iZKhh1Gc0Fk1B09GWaFe0PzoCzUMvQ69BF6LL0YfRjeg29F10L3oE/R1DxmhjLDAuGA4mGpOIycbkYUoxBzGnMVcw9zH9mA9YLJaGZWCdsP7YGGwydiW2ELsb24C9iO3C9mFHcTicJs4C54YLxnFxmbg83C7cUdwF3B1cP+4TXgGvh7fF++Jj8SL8Bnwp/gj+PP4OfgA/RlAmGBNcCMEEPmEFoYiwn9BCuEXoJ4wRVYgMohsxnJhMXE8sI9YTrxCfEN8pKCgYKDgrLFAQKqxTKFM4rnBNoVfhM0mVZE5ikxaRpKQtpEOki6SHpHdkMtmE7EmOJWeSt5BryZfJz8ifFCmKVoocRb7iWsUKxUbFO4qvlQhKxkospSVKOUqlSieVbikNKxOUTZTZylzlNcoVymeUu5VHVSgqNirBKmkqhSpHVK6rDKriVE1UfVT5qrmq+1Qvq/ZRUBRDCpvCo2yk7KdcofRTsVQGlUNNphZQj1E7qSNqqmr2apFqy9Uq1M6pyWgomgmNQ0ulFdFO0B7QvqjrqLPUBeqb1evV76h/1Jil4akh0MjXaNC4r/FFk67po5miuU2zSfOpFlrLXGuBVrbWHq0rWsOzqLNcZ/Fm5c86MeuRNqxtrh2qvVJ7n3aH9qiOro6fjlhnl85lnWFdmq6nbrJuie553SE9ip67nlCvRO+C3ku6Gp1FT6WX0dvoI/ra+v76Uv1q/U79MQOGQYTBBoMGg6eGREOmYYJhiWGr4YiRntE8o1VGdUaPjAnGTOMk453G7cYfTRgmUSabTJpMBhkaDA4jh1HHeGJKNvUwXWZaY3rPDGvGNEsx22122xw2dzBPMq8wv2UBWzhaCC12W3TNxsx2ni2aXTO725JkybLMsqyz7LWiWQVZbbBqsno9x2hO7Jxtc9rnfLd2sE613m/92EbVJsBmg02LzVtbc1uebYXtPTuyna/dWrtmuzf2FvYC+z32PQ4Uh3kOmxxaHb45OjlKHOsdh5yMnOKcKp26mVRmCLOQec0Z4+zlvNb5rPNnF0eXTJcTLn+6WrqmuB5xHZzLmCuYu39un5uBG9et2k3mTnePc9/rLvPQ9+B61Hg89zT05Hse9BxgmbGSWUdZr72svSRep70+sl3Yq9kXvVHeft753p0+qj4RPuU+z3wNfBN963xH/Bz8Vvpd9Mf4B/pv8+/m6HB4nFrOSIBTwOqAtkBSYFhgeeDzIPMgSVDLPHhewLzt857MN54vmt8UDII5wduDn4YwQpaF/LIAuyBkQcWCF6E2oatC28MoYUvDjoR9CPcKLwp/HGEaIY1ojVSKXBRZG/kxyjuqOEoWPSd6dfTNGK0YYUxzLC42MvZg7OhCn4U7FvYvcliUt+jBYsbi5YuvL9Fakrrk3FKlpdylJ+MwcVFxR+K+coO5NdzReE58ZfwIj83byXvF9+SX8IcEboJiwUCCW0JxwmCiW+L2xKEkj6TSpGEhW1gufJPsn1yV/DElOOVQynhqVGpDGj4tLu2MSFWUImpL101fnt4lthDniWXLXJbtWDYiCZQczIAyFmc0Z1IRYdQhNZX+IO3Ncs+qyPqUHZl9crnKctHyjhXmKzavGMjxzTmwEr2St7J1lf6q9at6V7NWV6+B1sSvaV1ruDZ3bf86v3WH1xPXp6z/dYP1huIN7zdGbWzJ1cldl9v3g98PdXmKeZK87k2um6p+RP8o/LFzs93mXZu/5/PzbxRYF5QWfC3kFd74yeansp/GtyRs6SxyLNqzFbtVtPXBNo9th4tVinOK+7bP295YQi/JL3m/Y+mO66X2pVU7iTulO2VlQWXNu4x2bd31tTyp/H6FV0VDpXbl5sqPu/m77+zx3FNfpVNVUPVlr3BvT7VfdWONSU3pPuy+rH0v9kfubz/APFB7UOtgwcFvh0SHZIdDD7fVOtXWHtE+UlQH10nrho4uOnr7mPex5nrL+uoGWkPBcXBcevzlz3E/PzgReKL1JPNk/SnjU5WnKafzG6HGFY0jTUlNsuaY5q4zAWdaW1xbTv9i9cuhs/pnK86pnSs6Tzyfe378Qs6F0Yvii8OXEi/1tS5tfXw5+vK9tgVtnVcCr1y76nv1cjur/cI1t2tnr7tcP3ODeaPppuPNxg6HjtO/Ovx6utOxs/GW063m2863W7rmdp2/43Hn0l3vu1fvce7dvD//fteDiAc93Yu6ZT38nsGHqQ/fPMp6NPZ43RPMk/ynyk9Ln2k/q/nN7LcGmaPsXK93b8fzsOeP+3h9r37P+P1rf+4L8ovSAb2B2kHbwbNDvkO3Xy582f9K/GpsOO8PlT8qX5u+PvWn558dI9Ej/W8kb8bfFr7TfHfovf371tGQ0Wcf0j6Mfcz/pPnp8Gfm5/YvUV8GxrK/4r6WfTP71vI98PuT8bTxcTFXwp2UAijE4YQEAN4eAoCMaAfKbUQ/LJzS05MGTX0DTBL4TzyluSfNEYB6ZJiQReyLABxH3GQdAIrI84QkCvcEsJ2d3Ke176ROnzAs8sWy13uCHm5fvA78w6Y0/F/6/ucIJqrag3+O/wKWtgaKM15glQAAAGxlWElmTU0AKgAAAAgABAEaAAUAAAABAAAAPgEbAAUAAAABAAAARgEoAAMAAAABAAIAAIdpAAQAAAABAAAATgAAAAAAAACQAAAAAQAAAJAAAAABAAKgAgAEAAAAAQAAAJqgAwAEAAAAAQAAAGAAAAAALw1sigAAAAlwSFlzAAAWJQAAFiUBSVIk8AAAE5tJREFUeAHtXVlzG8cR7sUCBE1SZ0zrsK04thRbKTsPrjzkJS+JH1x5Tn5iqlKVR78kUSVOynZKTmJZlmXZuixRF2WRFO8DIHY339e9A4DAQgTJxcFgRgKwOzvT09P9TU/PtQwSBPHBS6DHEij0mL4n7yWgEvBA80DoiwQ80PoiZl+IB5rHQF8k4IHWFzH7QjzQPAb6IgEPtL6I2RfigeYx0BcJeKD1Rcy+EA80j4G+SMADrS9i9oV4oHkM9EUCHmh9EbMvxAPNY6AvEih2U8q1P/5OJB6TpBAjud9V1FlmkE1Q6/w460kSIDbEh7+tIUI0Zd4akDahjRisnQhi8B1UpVosyy9+/4dWJnfcdwW0JGCFCTD32UHD36gEUtkocPYqEuZtDWncC+ll5Wul07v7JAgk0Iawe+PqCmgBK0uw9cmaJQC1yhdfhu9A2y5iJS6kz/YgP9IovFBhWcRoNbLiGdfZslP4VhR+YaXALj68Yi4+CyTmDZ4ynr+sU3theI6EQUJrlxWQR4WT9axPccE2CgKPQmy8OHQJNJhoINfERYIqqRdTPsBTE7sJktWgyiRVVjGrJ9mlLCq+wfsuid1jttROiiSDHUIBJRE/BqZUTmRA/xv4HDfuLuygJzYs7U0yyyLtQXadlChkxIagRiiTyXpkV0AzYDnppsKrk+jBBRSjpVDRapopcgaF3B4LVA1Tt3sLapY61ZUCbifH1Ao0Fgm0WdPkTYjkfMrvKLVwsVo7Uolh5bID4zs9y87Rv1irT7f8dQm0/rHPkrSdqiIJMKqLKirAH7AWXD/moDrIUgRyMFP6SGEb00JZRNBRsSy9EerlMKpeFsGCm5Q2H2lR+IrxiWDKwpAPI+EPnylmmRB3ZsUYK1JTs4dEzb2j0uUX0iKZNS2N1Dz8ilEXyqLLatTzDfJiKIGm2oFUVNz4ijHCSpKShIUyjTXu+Q1VqBZNaRqR8UUaRYyWE6lKEhFs0GvYrNmMTIiqoEuIgiKUSQoM7teVl/7ief0JgEMohcm2lEM0isT1icooaLhfgAzoqiZFgLCI9GhcKRFXJ02JONKzAlCO8sInsRSTqgyn8iir9jC8vKqQIWMonDqo4ffI9HkpH/8xnOcxqwlkTrG3B3tgeqlJsDUrz2euInEFSdXzAU1SdblbrwMpTb0uR16+IKXxY0hHJbMU5FXzhHzapTPOPSOvidS2FmXu/r+lJBXYYG0WTNQUCEba6RB1OSuTqFOpjDJSa02WHFcsy10bv7yPJNqcl9XHX8JorqZ0G6maChqqyyEFGgSaOphBXEBrj3VkNvHKeTl9/gMJx06aEFX5WfKktszqSbwlm3NXZH7mWxkLawDKNiwVR3wcEULlzko4x191VpAjJ1+T02//SiaPnUOaElGEgkBTgQ9rZchrKpxlbsv60i2Ze3hFkuq6minOPQac8yJolF9eA/wYaU6deFVeu/gbGT9yDnRQBkNzncifjuhYrtEIYJlX5m7IxrNbANoaMuDZDt6bCSjFofgaTqBBiaoUfNk/1T4ECnZV6bt1fVQQLQ3y0RHHh7/waqAWKgb3UCJVopRVUbxKlYRLe0rXHt0bQZAOSugbJVB6G86cOgNMbOs1KLDLJ238t7JokThVYynUOUN6rdMORy0lpuwwD3hW7gE25d/opKnwk9IjU4504+FQXJHzwxFUsykQDgfHnssmCRwCoBm46AgHzmNuqoC/PBwSGEqg0fo7t8P1Zq292+EQr+fSSWAogUaPhMDiGj6vCTxed99xMqX74HIPOZl6aAIrzo+ri16n9/Vr3g9/GEqgwe9V0ZI5DrbonvF6V6DtEL4DGnMe5tBa664kMXQVPuxaGDqBeoayJeCBli0XH5uzBDzQchaoJ5ctgZwmbOkcNTlI8OQ5MZmky0ecXvShXxKArHVyGb4dHVwEnfDFre4r3N3T7QmjOQGNjrpzWlFRzLqr664VZQ1334HZk9qNKlEnd/1Fk9fJbh3LD0wi+QCtvo7nAIZdD7gsYJ2OS0mM9aFfEoAVQ0/CYD0J11oJMtsdx55mECEfoBFVWARPChG28HC3RRlbX7DFL9pIK1seRN1GtEzuVbPtSQm60O0oUoumW6OwjYmqGkTIZTDAvp9uAVtLhC08xYlTUjr2qlTDcakVciliELI5lGXSXgW6Dw6eGTYAxKVxmT53UbbCaWy1Kg2sd8kHBfQFWIm4JFHyEvZZvSGvvPVLmTjxllRxTM8gmDYl9qVqvgfUtA4lfLpnWrtGdp3YVBnHZWxUOS4nzr0vb773WylNnEYHym3l7Epp9agDDtx4b9ftv3iUQ8il60x4Mgn/CCEdB5Sn5OjZn0k4MS0L947L8qMv8GxLSoWSxDXbosM8FgbjM+Qgu6EkQT1QxCEUEWIfby2qSaF0TI6ffFeKpUmZuf4Xqa7NyJhsw4fmpil4ctqfUn8ZulA1ZcTvsfa5AI2tgA4nnU9lCXvGwvJJmZr+kYTFcfhtCTYDfgGgbWMfPXaIaqvi7jAf8pcAoEbBQuY6GEA3ysYfltj4fy5vYDv8/Wt/l9rKbRkrrJsOdPCARFkOnNI6OJc5AQ081lsFmwA3/JVhvSekfPIdmb5QkgJOMy8+/FzKwYZZZzxv7Kk/eEU8hWwJqEEihjDFERWPysSp9+T1d0sy+10k26vfYQxXxYAUu5h1C5amziZ0wNhcgEb22IrMotGypaMeHp8oTsnkyz+VUnFMCuGYzM1clrF4E4cAMLemp4UOWAOfvWsJBDwMU5yUY2cvYDv8r2X2Vihb899LocbGDz+th11MLkBzp8bUVKtjSefSPtrvw1yXjrwpp85jmzNOID2/+y8ZC9aRghBlCuZUuKZ17V3L6lorhzYhZIm+0v41KkGJFmrYRo7TWRG60ckz78spmZSF5GOcqfgG6lqr95wqfYCOv6bTgyMwF6ApmDjFoTPQBhzd2sPuVHnEb7Eo5aPn5MxPPsBUSCgLM5+i51yGdeNefoyBkJbzPrpMwhry48O+JMCDN9r4IUSdrCXwqB8OwCDsAD50guHA8emLOLYH/xm6WQfYkuoKAIeeht0Teht7qQ/y5aCLfIAGRggv+8aVA5z+2pGQhCeQMP1Rmnhdzrz9gcRhLEv3PhHZ2sTQABO9RXzgJ8QRzDsr6sO+JEA9UHpsuGytAQ9O42Qz7wIeIOUvQaf3Y3Lk9EWcjSnJs1JRVp9el2hrHptMOVzD0FVzMcfBQy5Aa2PD6mPRBA3n2QA6bSFjRfhrp+Xc2x9iYDAuszc/gyDmWHukp23jxwPNhHfwbwUdwKZAwxfvec2RaMxTZWjck9MXZLqABl4ak+XZKxKvzynMCjofl48uegO0HfKx1gRbjFgwDRwlWKIqvHRWpt/5UFY312Tl0adSDLbQ+jD6UaeUovAhDwmwd6nVMDhTv81Ao990VVCATeBOyOSJC3KmgF6nsiAra8uGROiLdkJf5nJAZnIHmlUFXKEWWhXMm6mhRuugrdIZaU7wwjxXN5/L0SMl2eQhW84yAowJ5troq9Hcay01j//avwSsm2R+LknRudcT9BAvPRv1bihqTHMktW1Md/B1WYznoW1Vo3a1+y/fcuYENHDKoPDnNUw1f+r3vKZjykpjwSNZl8oaXlNw65LM3/8P7FsFcfTU2IKsFVkVkc+HfUmAcmawX07e2h0XpRNM4qofrfoAqmprsrl4R2Zvfyars3cxTOBzWEF1Z5AT0yIHDQenoBw4EMEqgUEsgoA5tB7dD2XXbpkjwZzNxuL38sP9T2Xl/md6DjzifBvqU9B8EI3OVPMlbz7sRwIEl2EkNQAp6AroJTjyZI/Bl+ZwBirBaxXWn1+XJzf/IWs/3JExvJ+Er6DgaXyM2FKAOjr74cby5AS0TgzQBgNoCHy1gCSrsrl6TZ7e/ifWQG/IeOngFehUso9vSMC8Mfr9XD4P0XvA8ceblYLtRViyrxVkq8/uSAnvDuFkO6dGqBloD/rj25EOrqceA43WiVyD0dqWrC/e10ptzl6XKa556mi0IRB/lb8EHEToi6klswk2iSuLsj7/tTy9eUm2Fu7IOKyY+WsKL3VhCDdkyyX0HGjgWOLtdVlHZR5/9WepLN7WhfUcuv1cBDAqRAgY2xgEl6S6JKvPrsqjm3+TaPkBpplScNEo6OwADBkQysGb+XgHl1JuQFMe0+aj/oFe86sia8+/lZmrf5Li0kMZh58QYS5tA68NH8PkLCY0Dl6LUaSwB1NDLdBHJtCCaBMO/zWsc16SaOWelDj4wtuSdLe3o8mBG2L51iPL6x7sX9C5AE2HwWCuCG45iUHoJLhOMLpcffZfefTlRxKvLoBpsM9ZDAyhOVmbx/zM/qt+eHNS+W592TVTt72Pz7CkCehwJQbrmtjxzMEWd56F62t4SeDH8uzBJSxtzqGhY1MqLESC+TMbPaTUkF8BBg3lFXIBmr7eXD3IIqpXxPIHtp7Igsw/uCu3r3wk49GSlHGeQF8gDEDy5cARPlwRya8qeYnk/4OOW8YrEoEYWQYx30R5WWa//0Rqm7NSpt+MwNUanvXgzg5FV4+qnxPQ4EjCjsUYMsdoRUm8IkuPLssPX12WY9E8KoAWwzU3rRjtmLWXHtVp5Mnai/7YhDHCrFakhIb+4NpfZeXJFbxmdU5ewpMA687cg6uBoFPfx2578Z0L0GxswlnnANt/Ill6eEOWH2AkE1fwouKaVHWGI60+KmQGmuD0IW8J0LdiSPhOXMiaO5qffPeFbFQiTMSu6ek0Pd+hIDMw6sJ7OiDImx9HLxegRUQO6leE1QoBrgJ+Y3gG1e0YXSkAhQVbHcPAIWX3ySUQCoRLIj70QgJ04iFbuCcBlvrirSWZBJDYk8T6qlWWiTkzgotOszrOBJ2BtBcc5QK0AkcDZJNOJe0UkMclDH11LCuhpsvNzzClWTde+bB3CVCcdL3SXT8q33rPxwuuyqjQ0bCxO4OwgzbwTT3ZMqA2fM2E9DpNsHc+9pIjF6BZpVgHtgiKATGucaBV+dADCTj5ZpJulTlB1hznrt1vJpFcI33flas4PbFOEvBA6yQZH5+rBDzQchWnJ9ZJAh5onSTj43OVgAdaruL0xDpJwAOtk2R8fK4S8EDLVZyeWCcJeKB1koyPz1UCuUzY5soRiPFFcpyP5CSjvRaTc9ucdGSkPeFlW9gx/2gzmumOKiy9YPklnQnnbhNOKtf/xDTj63nTa04063+uaIBKmkY50XXBeoYmNtIyMTNfwNQ9l9t4Kt+CbTwgHfsHSjqZ7ehY3iZiWl/jn2lsht+914Q8NUJKozmq8XAoroYSaPbuW1syCfi3LQkSLp9gn3vCw7C6S4/yg8qcnogKDQQFL/iLOFxz0x+BFuGeJ7AJtAiPCDQcmLewQ0mMTOkhnxE046+HbHbsEmzmgfzhuCDyhgQaeA0iHALBKX0e2uFuCgOZLgDhnq+UIp+OCbJi9JQdlo1gS0d4ogBHWq0gn/FjdWQ6vbaLofseSqBRxSpGXHBNj3LVtyrhnbhJbRmvT3BW4gXyRB6CMMEiv+DklR66gEJD3dVA62J0GxQY0wgEeILy4hr/yi9oIJ/xRBtDKO1Mz5wBykqqzwFeWmR7vvNYBHICPA4nhWgL6Rew1X0KFcxSBUu05SOlBv5j8JLwbUy4aoR2XhrPhuMqq3aD5yztXrhgqiqFtkJszqusPZSlJ5/j78NONPFIZXQKUABO9myvPARgYRmRzFSXKkatVbaSoo1ZvIviilSW7kLXFBOApklby2u6R5dfWXuGXSzY+AmUcy9oDCukGzyROeYmQ8bBnPJFLLWNBbyC4KqUlmeQno2niZZWyeyfglbL5gbFbamszmGHDMF2eMJQAk3Pg0Kw7DJV9NyNgC5p4fE3Mv/4Rrs+XiBv6oe2iG9uVasIggYYxKtpUQ22UdhYuIfzjvc0NzjRTHUr5fhqywXrA8tXxhFD7rpzb0gy40PLhM4SwONfMSbQNp8DzEtPEcsn/DQCuWI7INR08zJu1LbBqumOZk2fzXuDyvBcdQW0hggaV72vAkHG8ihMbjuKsUm8asLfExuqMlByPhY5RxwVp3SyiWFvKp7v7J70lVrIDbuE7+x8zBHy3CS7WvCsPp0WZ2US5DoIAMiLOKwbwgp2CgSjAg1l0ZdTf1SLJuSche2Uu/fx2RLILrcroOnojPvLQMOqnk0sr1hXAbM4EDJ1BNEaMIyLvZYFu6D4Im2l4Aoxou3k8NyB0z0kHxY68aDqB7/00cgvfUEriFf0N4tkQ30tAgcgIyk6chlBD6BovJXnWNY8pN+J9wxaeUeRFzYqPQfSBR9dAa0QI1nqX7AAVDHl21W99Z6PW+N43yl9S1ptuqRh6fV9HErP0tm0QOM5r7LLY3x7meQ/pcwECC3l816j2vNa+g559CHyKG7YJOF3wRIpYNI6UTGkbXVKBzUt9W3np6m8ulIzeHbl6+9enrembSovQ35KHpXQ6RtsbA34Qp5dQldA0yPxEJDt0tyFon88MhLg1BD9X8w67RoASjYxH7wEeiuBbOegt2V66iMoAQ+0EVT6IKrsgTYIqY9gmR5oI6j0QVTZA20QUh/BMj3QRlDpg6iyB9ogpD6CZXqgjaDSB1FlD7RBSH0Ey/RAG0GlD6LKHmiDkPoIlumBNoJKH0SVPdAGIfURLNMDbQSVPogqe6ANQuojWKYH2ggqfRBV/h8AMTa9hr71zgAAAABJRU5ErkJggg==;" vertex="1" parent="1">
          <mxGeometry x="431" y="675" width="64.17" height="40" as="geometry" />
        </mxCell>
        <mxCell id="BIOtD-0W4ChOzR4a4uk3-46" value="" style="shape=image;verticalLabelPosition=bottom;labelBackgroundColor=default;verticalAlign=top;aspect=fixed;imageAspect=0;image=data:image/png,iVBORw0KGgoAAAANSUhEUgAAAJoAAABgCAYAAADl9mtoAAAKrmlDQ1BJQ0MgUHJvZmlsZQAASImVlwdUU9kWhs+96SGhJYQiJdRQBOkEkBJCC6AgHWyEJEAoIQYCil0ZHIERRUQEFMGKKDgWQMaKKBYGxQbWCTIIKONgwYbKu8AizMxb77319lp7ne/u7LPPPmfdk/VfAMjKXLE4FVYGIE2UKQn186JHx8TScYMAAjAgAgZQ5vIyxKyQkCCA2PT4d/vwAMlG7K7lRK1///2/mgpfkMEDAApBOJ6fwUtD+BTiL3liSSYAqL1I3DA7UzzBbQhTJUiDCPdMcOIUD09w/CSjwWROeCgbYSoAeBKXK0kEgERH4vQsXiJSh+SJsLWILxQhLEbYPS0tnY/wcYRNkRwkRpqoz4z/S53Ev9WMl9fkchPlPLWXScN7CzPEqdwV/+dx/G9LS5VOr2GCOClJ4h+KjKrImfWkpAfKWRQ/P3iahfzJ/ElOkvpHTDMvgx07zXyud6B8bur8oGlOEPpy5HUyOeHTLMjwCZtmSXqofK0ECZs1zVzJzLrSlAh5PEnAkdfPSQqPmuYsYeT8ac5ICQucyWHL4xJpqLx/gcjPa2ZdX/ne0zL+sl8hRz43MyncX7537kz/AhFrpmZGtLw3vsDbZyYnQp4vzvSSryVODZHnC1L95PGMrDD53EzkhZyZGyI/w2RuQMg0AzZIB6mISwAdBCFP3gBkCpZnTmyEnS5eIREmJmXSWcgNE9A5Ip7VbLqtta09ABP3dep1eEebvIcQ7cZMbKMTAG654+PjZ2digQcAOBkDAPHeTIzxGQAlQwCu7eFJJVlTscm7hEH+BZQAFWgCXWAITIElsAWOwBV4Ah8QAIJBOIgBSwAPJIE0pPNssAqsB3mgAGwFO0A5qAL7wGFwDJwATeAsuASugpvgNrgPHgMZ6AevwAj4AMYgCMJBZIgCaUJ6kDFkAdlCTMgd8oGCoFAoBoqDEiERJIVWQRuhAqgYKoeqoVroZ+gMdAm6DnVBD6FeaAh6C32BUTAJpsI6sAk8B2bCLDgQDocXw4nwMjgHzoW3wGVwDXwUboQvwTfh+7AMfgWPogBKAUVD6aMsUUwUGxWMikUloCSoNah8VCmqBlWPakG1o+6iZKhh1Gc0Fk1B09GWaFe0PzoCzUMvQ69BF6LL0YfRjeg29F10L3oE/R1DxmhjLDAuGA4mGpOIycbkYUoxBzGnMVcw9zH9mA9YLJaGZWCdsP7YGGwydiW2ELsb24C9iO3C9mFHcTicJs4C54YLxnFxmbg83C7cUdwF3B1cP+4TXgGvh7fF++Jj8SL8Bnwp/gj+PP4OfgA/RlAmGBNcCMEEPmEFoYiwn9BCuEXoJ4wRVYgMohsxnJhMXE8sI9YTrxCfEN8pKCgYKDgrLFAQKqxTKFM4rnBNoVfhM0mVZE5ikxaRpKQtpEOki6SHpHdkMtmE7EmOJWeSt5BryZfJz8ifFCmKVoocRb7iWsUKxUbFO4qvlQhKxkospSVKOUqlSieVbikNKxOUTZTZylzlNcoVymeUu5VHVSgqNirBKmkqhSpHVK6rDKriVE1UfVT5qrmq+1Qvq/ZRUBRDCpvCo2yk7KdcofRTsVQGlUNNphZQj1E7qSNqqmr2apFqy9Uq1M6pyWgomgmNQ0ulFdFO0B7QvqjrqLPUBeqb1evV76h/1Jil4akh0MjXaNC4r/FFk67po5miuU2zSfOpFlrLXGuBVrbWHq0rWsOzqLNcZ/Fm5c86MeuRNqxtrh2qvVJ7n3aH9qiOro6fjlhnl85lnWFdmq6nbrJuie553SE9ip67nlCvRO+C3ku6Gp1FT6WX0dvoI/ra+v76Uv1q/U79MQOGQYTBBoMGg6eGREOmYYJhiWGr4YiRntE8o1VGdUaPjAnGTOMk453G7cYfTRgmUSabTJpMBhkaDA4jh1HHeGJKNvUwXWZaY3rPDGvGNEsx22122xw2dzBPMq8wv2UBWzhaCC12W3TNxsx2ni2aXTO725JkybLMsqyz7LWiWQVZbbBqsno9x2hO7Jxtc9rnfLd2sE613m/92EbVJsBmg02LzVtbc1uebYXtPTuyna/dWrtmuzf2FvYC+z32PQ4Uh3kOmxxaHb45OjlKHOsdh5yMnOKcKp26mVRmCLOQec0Z4+zlvNb5rPNnF0eXTJcTLn+6WrqmuB5xHZzLmCuYu39un5uBG9et2k3mTnePc9/rLvPQ9+B61Hg89zT05Hse9BxgmbGSWUdZr72svSRep70+sl3Yq9kXvVHeft753p0+qj4RPuU+z3wNfBN963xH/Bz8Vvpd9Mf4B/pv8+/m6HB4nFrOSIBTwOqAtkBSYFhgeeDzIPMgSVDLPHhewLzt857MN54vmt8UDII5wduDn4YwQpaF/LIAuyBkQcWCF6E2oatC28MoYUvDjoR9CPcKLwp/HGEaIY1ojVSKXBRZG/kxyjuqOEoWPSd6dfTNGK0YYUxzLC42MvZg7OhCn4U7FvYvcliUt+jBYsbi5YuvL9Fakrrk3FKlpdylJ+MwcVFxR+K+coO5NdzReE58ZfwIj83byXvF9+SX8IcEboJiwUCCW0JxwmCiW+L2xKEkj6TSpGEhW1gufJPsn1yV/DElOOVQynhqVGpDGj4tLu2MSFWUImpL101fnt4lthDniWXLXJbtWDYiCZQczIAyFmc0Z1IRYdQhNZX+IO3Ncs+qyPqUHZl9crnKctHyjhXmKzavGMjxzTmwEr2St7J1lf6q9at6V7NWV6+B1sSvaV1ruDZ3bf86v3WH1xPXp6z/dYP1huIN7zdGbWzJ1cldl9v3g98PdXmKeZK87k2um6p+RP8o/LFzs93mXZu/5/PzbxRYF5QWfC3kFd74yeansp/GtyRs6SxyLNqzFbtVtPXBNo9th4tVinOK+7bP295YQi/JL3m/Y+mO66X2pVU7iTulO2VlQWXNu4x2bd31tTyp/H6FV0VDpXbl5sqPu/m77+zx3FNfpVNVUPVlr3BvT7VfdWONSU3pPuy+rH0v9kfubz/APFB7UOtgwcFvh0SHZIdDD7fVOtXWHtE+UlQH10nrho4uOnr7mPex5nrL+uoGWkPBcXBcevzlz3E/PzgReKL1JPNk/SnjU5WnKafzG6HGFY0jTUlNsuaY5q4zAWdaW1xbTv9i9cuhs/pnK86pnSs6Tzyfe378Qs6F0Yvii8OXEi/1tS5tfXw5+vK9tgVtnVcCr1y76nv1cjur/cI1t2tnr7tcP3ODeaPppuPNxg6HjtO/Ovx6utOxs/GW063m2863W7rmdp2/43Hn0l3vu1fvce7dvD//fteDiAc93Yu6ZT38nsGHqQ/fPMp6NPZ43RPMk/ynyk9Ln2k/q/nN7LcGmaPsXK93b8fzsOeP+3h9r37P+P1rf+4L8ovSAb2B2kHbwbNDvkO3Xy582f9K/GpsOO8PlT8qX5u+PvWn558dI9Ej/W8kb8bfFr7TfHfovf371tGQ0Wcf0j6Mfcz/pPnp8Gfm5/YvUV8GxrK/4r6WfTP71vI98PuT8bTxcTFXwp2UAijE4YQEAN4eAoCMaAfKbUQ/LJzS05MGTX0DTBL4TzyluSfNEYB6ZJiQReyLABxH3GQdAIrI84QkCvcEsJ2d3Ke176ROnzAs8sWy13uCHm5fvA78w6Y0/F/6/ucIJqrag3+O/wKWtgaKM15glQAAAGxlWElmTU0AKgAAAAgABAEaAAUAAAABAAAAPgEbAAUAAAABAAAARgEoAAMAAAABAAIAAIdpAAQAAAABAAAATgAAAAAAAACQAAAAAQAAAJAAAAABAAKgAgAEAAAAAQAAAJqgAwAEAAAAAQAAAGAAAAAALw1sigAAAAlwSFlzAAAWJQAAFiUBSVIk8AAAE5tJREFUeAHtXVlzG8cR7sUCBE1SZ0zrsK04thRbKTsPrjzkJS+JH1x5Tn5iqlKVR78kUSVOynZKTmJZlmXZuixRF2WRFO8DIHY339e9A4DAQgTJxcFgRgKwOzvT09P9TU/PtQwSBPHBS6DHEij0mL4n7yWgEvBA80DoiwQ80PoiZl+IB5rHQF8k4IHWFzH7QjzQPAb6IgEPtL6I2RfigeYx0BcJeKD1Rcy+EA80j4G+SMADrS9i9oV4oHkM9EUCHmh9EbMvxAPNY6AvEih2U8q1P/5OJB6TpBAjud9V1FlmkE1Q6/w460kSIDbEh7+tIUI0Zd4akDahjRisnQhi8B1UpVosyy9+/4dWJnfcdwW0JGCFCTD32UHD36gEUtkocPYqEuZtDWncC+ll5Wul07v7JAgk0Iawe+PqCmgBK0uw9cmaJQC1yhdfhu9A2y5iJS6kz/YgP9IovFBhWcRoNbLiGdfZslP4VhR+YaXALj68Yi4+CyTmDZ4ynr+sU3theI6EQUJrlxWQR4WT9axPccE2CgKPQmy8OHQJNJhoINfERYIqqRdTPsBTE7sJktWgyiRVVjGrJ9mlLCq+wfsuid1jttROiiSDHUIBJRE/BqZUTmRA/xv4HDfuLuygJzYs7U0yyyLtQXadlChkxIagRiiTyXpkV0AzYDnppsKrk+jBBRSjpVDRapopcgaF3B4LVA1Tt3sLapY61ZUCbifH1Ao0Fgm0WdPkTYjkfMrvKLVwsVo7Uolh5bID4zs9y87Rv1irT7f8dQm0/rHPkrSdqiIJMKqLKirAH7AWXD/moDrIUgRyMFP6SGEb00JZRNBRsSy9EerlMKpeFsGCm5Q2H2lR+IrxiWDKwpAPI+EPnylmmRB3ZsUYK1JTs4dEzb2j0uUX0iKZNS2N1Dz8ilEXyqLLatTzDfJiKIGm2oFUVNz4ijHCSpKShIUyjTXu+Q1VqBZNaRqR8UUaRYyWE6lKEhFs0GvYrNmMTIiqoEuIgiKUSQoM7teVl/7ief0JgEMohcm2lEM0isT1icooaLhfgAzoqiZFgLCI9GhcKRFXJ02JONKzAlCO8sInsRSTqgyn8iir9jC8vKqQIWMonDqo4ffI9HkpH/8xnOcxqwlkTrG3B3tgeqlJsDUrz2euInEFSdXzAU1SdblbrwMpTb0uR16+IKXxY0hHJbMU5FXzhHzapTPOPSOvidS2FmXu/r+lJBXYYG0WTNQUCEba6RB1OSuTqFOpjDJSa02WHFcsy10bv7yPJNqcl9XHX8JorqZ0G6maChqqyyEFGgSaOphBXEBrj3VkNvHKeTl9/gMJx06aEFX5WfKktszqSbwlm3NXZH7mWxkLawDKNiwVR3wcEULlzko4x191VpAjJ1+T02//SiaPnUOaElGEgkBTgQ9rZchrKpxlbsv60i2Ze3hFkuq6minOPQac8yJolF9eA/wYaU6deFVeu/gbGT9yDnRQBkNzncifjuhYrtEIYJlX5m7IxrNbANoaMuDZDt6bCSjFofgaTqBBiaoUfNk/1T4ECnZV6bt1fVQQLQ3y0RHHh7/waqAWKgb3UCJVopRVUbxKlYRLe0rXHt0bQZAOSugbJVB6G86cOgNMbOs1KLDLJ238t7JokThVYynUOUN6rdMORy0lpuwwD3hW7gE25d/opKnwk9IjU4504+FQXJHzwxFUsykQDgfHnssmCRwCoBm46AgHzmNuqoC/PBwSGEqg0fo7t8P1Zq292+EQr+fSSWAogUaPhMDiGj6vCTxed99xMqX74HIPOZl6aAIrzo+ri16n9/Vr3g9/GEqgwe9V0ZI5DrbonvF6V6DtEL4DGnMe5tBa664kMXQVPuxaGDqBeoayJeCBli0XH5uzBDzQchaoJ5ctgZwmbOkcNTlI8OQ5MZmky0ecXvShXxKArHVyGb4dHVwEnfDFre4r3N3T7QmjOQGNjrpzWlFRzLqr664VZQ1334HZk9qNKlEnd/1Fk9fJbh3LD0wi+QCtvo7nAIZdD7gsYJ2OS0mM9aFfEoAVQ0/CYD0J11oJMtsdx55mECEfoBFVWARPChG28HC3RRlbX7DFL9pIK1seRN1GtEzuVbPtSQm60O0oUoumW6OwjYmqGkTIZTDAvp9uAVtLhC08xYlTUjr2qlTDcakVciliELI5lGXSXgW6Dw6eGTYAxKVxmT53UbbCaWy1Kg2sd8kHBfQFWIm4JFHyEvZZvSGvvPVLmTjxllRxTM8gmDYl9qVqvgfUtA4lfLpnWrtGdp3YVBnHZWxUOS4nzr0vb773WylNnEYHym3l7Epp9agDDtx4b9ftv3iUQ8il60x4Mgn/CCEdB5Sn5OjZn0k4MS0L947L8qMv8GxLSoWSxDXbosM8FgbjM+Qgu6EkQT1QxCEUEWIfby2qSaF0TI6ffFeKpUmZuf4Xqa7NyJhsw4fmpil4ctqfUn8ZulA1ZcTvsfa5AI2tgA4nnU9lCXvGwvJJmZr+kYTFcfhtCTYDfgGgbWMfPXaIaqvi7jAf8pcAoEbBQuY6GEA3ysYfltj4fy5vYDv8/Wt/l9rKbRkrrJsOdPCARFkOnNI6OJc5AQ081lsFmwA3/JVhvSekfPIdmb5QkgJOMy8+/FzKwYZZZzxv7Kk/eEU8hWwJqEEihjDFERWPysSp9+T1d0sy+10k26vfYQxXxYAUu5h1C5amziZ0wNhcgEb22IrMotGypaMeHp8oTsnkyz+VUnFMCuGYzM1clrF4E4cAMLemp4UOWAOfvWsJBDwMU5yUY2cvYDv8r2X2Vihb899LocbGDz+th11MLkBzp8bUVKtjSefSPtrvw1yXjrwpp85jmzNOID2/+y8ZC9aRghBlCuZUuKZ17V3L6lorhzYhZIm+0v41KkGJFmrYRo7TWRG60ckz78spmZSF5GOcqfgG6lqr95wqfYCOv6bTgyMwF6ApmDjFoTPQBhzd2sPuVHnEb7Eo5aPn5MxPPsBUSCgLM5+i51yGdeNefoyBkJbzPrpMwhry48O+JMCDN9r4IUSdrCXwqB8OwCDsAD50guHA8emLOLYH/xm6WQfYkuoKAIeeht0Teht7qQ/y5aCLfIAGRggv+8aVA5z+2pGQhCeQMP1Rmnhdzrz9gcRhLEv3PhHZ2sTQABO9RXzgJ8QRzDsr6sO+JEA9UHpsuGytAQ9O42Qz7wIeIOUvQaf3Y3Lk9EWcjSnJs1JRVp9el2hrHptMOVzD0FVzMcfBQy5Aa2PD6mPRBA3n2QA6bSFjRfhrp+Xc2x9iYDAuszc/gyDmWHukp23jxwPNhHfwbwUdwKZAwxfvec2RaMxTZWjck9MXZLqABl4ak+XZKxKvzynMCjofl48uegO0HfKx1gRbjFgwDRwlWKIqvHRWpt/5UFY312Tl0adSDLbQ+jD6UaeUovAhDwmwd6nVMDhTv81Ao990VVCATeBOyOSJC3KmgF6nsiAra8uGROiLdkJf5nJAZnIHmlUFXKEWWhXMm6mhRuugrdIZaU7wwjxXN5/L0SMl2eQhW84yAowJ5troq9Hcay01j//avwSsm2R+LknRudcT9BAvPRv1bihqTHMktW1Md/B1WYznoW1Vo3a1+y/fcuYENHDKoPDnNUw1f+r3vKZjykpjwSNZl8oaXlNw65LM3/8P7FsFcfTU2IKsFVkVkc+HfUmAcmawX07e2h0XpRNM4qofrfoAqmprsrl4R2Zvfyars3cxTOBzWEF1Z5AT0yIHDQenoBw4EMEqgUEsgoA5tB7dD2XXbpkjwZzNxuL38sP9T2Xl/md6DjzifBvqU9B8EI3OVPMlbz7sRwIEl2EkNQAp6AroJTjyZI/Bl+ZwBirBaxXWn1+XJzf/IWs/3JExvJ+Er6DgaXyM2FKAOjr74cby5AS0TgzQBgNoCHy1gCSrsrl6TZ7e/ifWQG/IeOngFehUso9vSMC8Mfr9XD4P0XvA8ceblYLtRViyrxVkq8/uSAnvDuFkO6dGqBloD/rj25EOrqceA43WiVyD0dqWrC/e10ptzl6XKa556mi0IRB/lb8EHEToi6klswk2iSuLsj7/tTy9eUm2Fu7IOKyY+WsKL3VhCDdkyyX0HGjgWOLtdVlHZR5/9WepLN7WhfUcuv1cBDAqRAgY2xgEl6S6JKvPrsqjm3+TaPkBpplScNEo6OwADBkQysGb+XgHl1JuQFMe0+aj/oFe86sia8+/lZmrf5Li0kMZh58QYS5tA68NH8PkLCY0Dl6LUaSwB1NDLdBHJtCCaBMO/zWsc16SaOWelDj4wtuSdLe3o8mBG2L51iPL6x7sX9C5AE2HwWCuCG45iUHoJLhOMLpcffZfefTlRxKvLoBpsM9ZDAyhOVmbx/zM/qt+eHNS+W592TVTt72Pz7CkCehwJQbrmtjxzMEWd56F62t4SeDH8uzBJSxtzqGhY1MqLESC+TMbPaTUkF8BBg3lFXIBmr7eXD3IIqpXxPIHtp7Igsw/uCu3r3wk49GSlHGeQF8gDEDy5cARPlwRya8qeYnk/4OOW8YrEoEYWQYx30R5WWa//0Rqm7NSpt+MwNUanvXgzg5FV4+qnxPQ4EjCjsUYMsdoRUm8IkuPLssPX12WY9E8KoAWwzU3rRjtmLWXHtVp5Mnai/7YhDHCrFakhIb+4NpfZeXJFbxmdU5ewpMA687cg6uBoFPfx2578Z0L0GxswlnnANt/Ill6eEOWH2AkE1fwouKaVHWGI60+KmQGmuD0IW8J0LdiSPhOXMiaO5qffPeFbFQiTMSu6ek0Pd+hIDMw6sJ7OiDImx9HLxegRUQO6leE1QoBrgJ+Y3gG1e0YXSkAhQVbHcPAIWX3ySUQCoRLIj70QgJ04iFbuCcBlvrirSWZBJDYk8T6qlWWiTkzgotOszrOBJ2BtBcc5QK0AkcDZJNOJe0UkMclDH11LCuhpsvNzzClWTde+bB3CVCcdL3SXT8q33rPxwuuyqjQ0bCxO4OwgzbwTT3ZMqA2fM2E9DpNsHc+9pIjF6BZpVgHtgiKATGucaBV+dADCTj5ZpJulTlB1hznrt1vJpFcI33flas4PbFOEvBA6yQZH5+rBDzQchWnJ9ZJAh5onSTj43OVgAdaruL0xDpJwAOtk2R8fK4S8EDLVZyeWCcJeKB1koyPz1UCuUzY5soRiPFFcpyP5CSjvRaTc9ucdGSkPeFlW9gx/2gzmumOKiy9YPklnQnnbhNOKtf/xDTj63nTa04063+uaIBKmkY50XXBeoYmNtIyMTNfwNQ9l9t4Kt+CbTwgHfsHSjqZ7ehY3iZiWl/jn2lsht+914Q8NUJKozmq8XAoroYSaPbuW1syCfi3LQkSLp9gn3vCw7C6S4/yg8qcnogKDQQFL/iLOFxz0x+BFuGeJ7AJtAiPCDQcmLewQ0mMTOkhnxE046+HbHbsEmzmgfzhuCDyhgQaeA0iHALBKX0e2uFuCgOZLgDhnq+UIp+OCbJi9JQdlo1gS0d4ogBHWq0gn/FjdWQ6vbaLofseSqBRxSpGXHBNj3LVtyrhnbhJbRmvT3BW4gXyRB6CMMEiv+DklR66gEJD3dVA62J0GxQY0wgEeILy4hr/yi9oIJ/xRBtDKO1Mz5wBykqqzwFeWmR7vvNYBHICPA4nhWgL6Rew1X0KFcxSBUu05SOlBv5j8JLwbUy4aoR2XhrPhuMqq3aD5yztXrhgqiqFtkJszqusPZSlJ5/j78NONPFIZXQKUABO9myvPARgYRmRzFSXKkatVbaSoo1ZvIviilSW7kLXFBOApklby2u6R5dfWXuGXSzY+AmUcy9oDCukGzyROeYmQ8bBnPJFLLWNBbyC4KqUlmeQno2niZZWyeyfglbL5gbFbamszmGHDMF2eMJQAk3Pg0Kw7DJV9NyNgC5p4fE3Mv/4Rrs+XiBv6oe2iG9uVasIggYYxKtpUQ22UdhYuIfzjvc0NzjRTHUr5fhqywXrA8tXxhFD7rpzb0gy40PLhM4SwONfMSbQNp8DzEtPEcsn/DQCuWI7INR08zJu1LbBqumOZk2fzXuDyvBcdQW0hggaV72vAkHG8ihMbjuKsUm8asLfExuqMlByPhY5RxwVp3SyiWFvKp7v7J70lVrIDbuE7+x8zBHy3CS7WvCsPp0WZ2US5DoIAMiLOKwbwgp2CgSjAg1l0ZdTf1SLJuSche2Uu/fx2RLILrcroOnojPvLQMOqnk0sr1hXAbM4EDJ1BNEaMIyLvZYFu6D4Im2l4Aoxou3k8NyB0z0kHxY68aDqB7/00cgvfUEriFf0N4tkQ30tAgcgIyk6chlBD6BovJXnWNY8pN+J9wxaeUeRFzYqPQfSBR9dAa0QI1nqX7AAVDHl21W99Z6PW+N43yl9S1ptuqRh6fV9HErP0tm0QOM5r7LLY3x7meQ/pcwECC3l816j2vNa+g559CHyKG7YJOF3wRIpYNI6UTGkbXVKBzUt9W3np6m8ulIzeHbl6+9enrembSovQ35KHpXQ6RtsbA34Qp5dQldA0yPxEJDt0tyFon88MhLg1BD9X8w67RoASjYxH7wEeiuBbOegt2V66iMoAQ+0EVT6IKrsgTYIqY9gmR5oI6j0QVTZA20QUh/BMj3QRlDpg6iyB9ogpD6CZXqgjaDSB1FlD7RBSH0Ey/RAG0GlD6LKHmiDkPoIlumBNoJKH0SVPdAGIfURLNMDbQSVPogqe6ANQuojWKYH2ggqfRBV/h8AMTa9hr71zgAAAABJRU5ErkJggg==;" vertex="1" parent="1">
          <mxGeometry x="431" y="730" width="64.17" height="40" as="geometry" />
        </mxCell>
        <mxCell id="BIOtD-0W4ChOzR4a4uk3-47" value="" style="shape=image;verticalLabelPosition=bottom;labelBackgroundColor=default;verticalAlign=top;aspect=fixed;imageAspect=0;image=data:image/png,iVBORw0KGgoAAAANSUhEUgAAAJoAAABgCAYAAADl9mtoAAAKrmlDQ1BJQ0MgUHJvZmlsZQAASImVlwdUU9kWhs+96SGhJYQiJdRQBOkEkBJCC6AgHWyEJEAoIQYCil0ZHIERRUQEFMGKKDgWQMaKKBYGxQbWCTIIKONgwYbKu8AizMxb77319lp7ne/u7LPPPmfdk/VfAMjKXLE4FVYGIE2UKQn186JHx8TScYMAAjAgAgZQ5vIyxKyQkCCA2PT4d/vwAMlG7K7lRK1///2/mgpfkMEDAApBOJ6fwUtD+BTiL3liSSYAqL1I3DA7UzzBbQhTJUiDCPdMcOIUD09w/CSjwWROeCgbYSoAeBKXK0kEgERH4vQsXiJSh+SJsLWILxQhLEbYPS0tnY/wcYRNkRwkRpqoz4z/S53Ev9WMl9fkchPlPLWXScN7CzPEqdwV/+dx/G9LS5VOr2GCOClJ4h+KjKrImfWkpAfKWRQ/P3iahfzJ/ElOkvpHTDMvgx07zXyud6B8bur8oGlOEPpy5HUyOeHTLMjwCZtmSXqofK0ECZs1zVzJzLrSlAh5PEnAkdfPSQqPmuYsYeT8ac5ICQucyWHL4xJpqLx/gcjPa2ZdX/ne0zL+sl8hRz43MyncX7537kz/AhFrpmZGtLw3vsDbZyYnQp4vzvSSryVODZHnC1L95PGMrDD53EzkhZyZGyI/w2RuQMg0AzZIB6mISwAdBCFP3gBkCpZnTmyEnS5eIREmJmXSWcgNE9A5Ip7VbLqtta09ABP3dep1eEebvIcQ7cZMbKMTAG654+PjZ2digQcAOBkDAPHeTIzxGQAlQwCu7eFJJVlTscm7hEH+BZQAFWgCXWAITIElsAWOwBV4Ah8QAIJBOIgBSwAPJIE0pPNssAqsB3mgAGwFO0A5qAL7wGFwDJwATeAsuASugpvgNrgPHgMZ6AevwAj4AMYgCMJBZIgCaUJ6kDFkAdlCTMgd8oGCoFAoBoqDEiERJIVWQRuhAqgYKoeqoVroZ+gMdAm6DnVBD6FeaAh6C32BUTAJpsI6sAk8B2bCLDgQDocXw4nwMjgHzoW3wGVwDXwUboQvwTfh+7AMfgWPogBKAUVD6aMsUUwUGxWMikUloCSoNah8VCmqBlWPakG1o+6iZKhh1Gc0Fk1B09GWaFe0PzoCzUMvQ69BF6LL0YfRjeg29F10L3oE/R1DxmhjLDAuGA4mGpOIycbkYUoxBzGnMVcw9zH9mA9YLJaGZWCdsP7YGGwydiW2ELsb24C9iO3C9mFHcTicJs4C54YLxnFxmbg83C7cUdwF3B1cP+4TXgGvh7fF++Jj8SL8Bnwp/gj+PP4OfgA/RlAmGBNcCMEEPmEFoYiwn9BCuEXoJ4wRVYgMohsxnJhMXE8sI9YTrxCfEN8pKCgYKDgrLFAQKqxTKFM4rnBNoVfhM0mVZE5ikxaRpKQtpEOki6SHpHdkMtmE7EmOJWeSt5BryZfJz8ifFCmKVoocRb7iWsUKxUbFO4qvlQhKxkospSVKOUqlSieVbikNKxOUTZTZylzlNcoVymeUu5VHVSgqNirBKmkqhSpHVK6rDKriVE1UfVT5qrmq+1Qvq/ZRUBRDCpvCo2yk7KdcofRTsVQGlUNNphZQj1E7qSNqqmr2apFqy9Uq1M6pyWgomgmNQ0ulFdFO0B7QvqjrqLPUBeqb1evV76h/1Jil4akh0MjXaNC4r/FFk67po5miuU2zSfOpFlrLXGuBVrbWHq0rWsOzqLNcZ/Fm5c86MeuRNqxtrh2qvVJ7n3aH9qiOro6fjlhnl85lnWFdmq6nbrJuie553SE9ip67nlCvRO+C3ku6Gp1FT6WX0dvoI/ra+v76Uv1q/U79MQOGQYTBBoMGg6eGREOmYYJhiWGr4YiRntE8o1VGdUaPjAnGTOMk453G7cYfTRgmUSabTJpMBhkaDA4jh1HHeGJKNvUwXWZaY3rPDGvGNEsx22122xw2dzBPMq8wv2UBWzhaCC12W3TNxsx2ni2aXTO725JkybLMsqyz7LWiWQVZbbBqsno9x2hO7Jxtc9rnfLd2sE613m/92EbVJsBmg02LzVtbc1uebYXtPTuyna/dWrtmuzf2FvYC+z32PQ4Uh3kOmxxaHb45OjlKHOsdh5yMnOKcKp26mVRmCLOQec0Z4+zlvNb5rPNnF0eXTJcTLn+6WrqmuB5xHZzLmCuYu39un5uBG9et2k3mTnePc9/rLvPQ9+B61Hg89zT05Hse9BxgmbGSWUdZr72svSRep70+sl3Yq9kXvVHeft753p0+qj4RPuU+z3wNfBN963xH/Bz8Vvpd9Mf4B/pv8+/m6HB4nFrOSIBTwOqAtkBSYFhgeeDzIPMgSVDLPHhewLzt857MN54vmt8UDII5wduDn4YwQpaF/LIAuyBkQcWCF6E2oatC28MoYUvDjoR9CPcKLwp/HGEaIY1ojVSKXBRZG/kxyjuqOEoWPSd6dfTNGK0YYUxzLC42MvZg7OhCn4U7FvYvcliUt+jBYsbi5YuvL9Fakrrk3FKlpdylJ+MwcVFxR+K+coO5NdzReE58ZfwIj83byXvF9+SX8IcEboJiwUCCW0JxwmCiW+L2xKEkj6TSpGEhW1gufJPsn1yV/DElOOVQynhqVGpDGj4tLu2MSFWUImpL101fnt4lthDniWXLXJbtWDYiCZQczIAyFmc0Z1IRYdQhNZX+IO3Ncs+qyPqUHZl9crnKctHyjhXmKzavGMjxzTmwEr2St7J1lf6q9at6V7NWV6+B1sSvaV1ruDZ3bf86v3WH1xPXp6z/dYP1huIN7zdGbWzJ1cldl9v3g98PdXmKeZK87k2um6p+RP8o/LFzs93mXZu/5/PzbxRYF5QWfC3kFd74yeansp/GtyRs6SxyLNqzFbtVtPXBNo9th4tVinOK+7bP295YQi/JL3m/Y+mO66X2pVU7iTulO2VlQWXNu4x2bd31tTyp/H6FV0VDpXbl5sqPu/m77+zx3FNfpVNVUPVlr3BvT7VfdWONSU3pPuy+rH0v9kfubz/APFB7UOtgwcFvh0SHZIdDD7fVOtXWHtE+UlQH10nrho4uOnr7mPex5nrL+uoGWkPBcXBcevzlz3E/PzgReKL1JPNk/SnjU5WnKafzG6HGFY0jTUlNsuaY5q4zAWdaW1xbTv9i9cuhs/pnK86pnSs6Tzyfe378Qs6F0Yvii8OXEi/1tS5tfXw5+vK9tgVtnVcCr1y76nv1cjur/cI1t2tnr7tcP3ODeaPppuPNxg6HjtO/Ovx6utOxs/GW063m2863W7rmdp2/43Hn0l3vu1fvce7dvD//fteDiAc93Yu6ZT38nsGHqQ/fPMp6NPZ43RPMk/ynyk9Ln2k/q/nN7LcGmaPsXK93b8fzsOeP+3h9r37P+P1rf+4L8ovSAb2B2kHbwbNDvkO3Xy582f9K/GpsOO8PlT8qX5u+PvWn558dI9Ej/W8kb8bfFr7TfHfovf371tGQ0Wcf0j6Mfcz/pPnp8Gfm5/YvUV8GxrK/4r6WfTP71vI98PuT8bTxcTFXwp2UAijE4YQEAN4eAoCMaAfKbUQ/LJzS05MGTX0DTBL4TzyluSfNEYB6ZJiQReyLABxH3GQdAIrI84QkCvcEsJ2d3Ke176ROnzAs8sWy13uCHm5fvA78w6Y0/F/6/ucIJqrag3+O/wKWtgaKM15glQAAAGxlWElmTU0AKgAAAAgABAEaAAUAAAABAAAAPgEbAAUAAAABAAAARgEoAAMAAAABAAIAAIdpAAQAAAABAAAATgAAAAAAAACQAAAAAQAAAJAAAAABAAKgAgAEAAAAAQAAAJqgAwAEAAAAAQAAAGAAAAAALw1sigAAAAlwSFlzAAAWJQAAFiUBSVIk8AAAE5tJREFUeAHtXVlzG8cR7sUCBE1SZ0zrsK04thRbKTsPrjzkJS+JH1x5Tn5iqlKVR78kUSVOynZKTmJZlmXZuixRF2WRFO8DIHY339e9A4DAQgTJxcFgRgKwOzvT09P9TU/PtQwSBPHBS6DHEij0mL4n7yWgEvBA80DoiwQ80PoiZl+IB5rHQF8k4IHWFzH7QjzQPAb6IgEPtL6I2RfigeYx0BcJeKD1Rcy+EA80j4G+SMADrS9i9oV4oHkM9EUCHmh9EbMvxAPNY6AvEih2U8q1P/5OJB6TpBAjud9V1FlmkE1Q6/w460kSIDbEh7+tIUI0Zd4akDahjRisnQhi8B1UpVosyy9+/4dWJnfcdwW0JGCFCTD32UHD36gEUtkocPYqEuZtDWncC+ll5Wul07v7JAgk0Iawe+PqCmgBK0uw9cmaJQC1yhdfhu9A2y5iJS6kz/YgP9IovFBhWcRoNbLiGdfZslP4VhR+YaXALj68Yi4+CyTmDZ4ynr+sU3theI6EQUJrlxWQR4WT9axPccE2CgKPQmy8OHQJNJhoINfERYIqqRdTPsBTE7sJktWgyiRVVjGrJ9mlLCq+wfsuid1jttROiiSDHUIBJRE/BqZUTmRA/xv4HDfuLuygJzYs7U0yyyLtQXadlChkxIagRiiTyXpkV0AzYDnppsKrk+jBBRSjpVDRapopcgaF3B4LVA1Tt3sLapY61ZUCbifH1Ao0Fgm0WdPkTYjkfMrvKLVwsVo7Uolh5bID4zs9y87Rv1irT7f8dQm0/rHPkrSdqiIJMKqLKirAH7AWXD/moDrIUgRyMFP6SGEb00JZRNBRsSy9EerlMKpeFsGCm5Q2H2lR+IrxiWDKwpAPI+EPnylmmRB3ZsUYK1JTs4dEzb2j0uUX0iKZNS2N1Dz8ilEXyqLLatTzDfJiKIGm2oFUVNz4ijHCSpKShIUyjTXu+Q1VqBZNaRqR8UUaRYyWE6lKEhFs0GvYrNmMTIiqoEuIgiKUSQoM7teVl/7ief0JgEMohcm2lEM0isT1icooaLhfgAzoqiZFgLCI9GhcKRFXJ02JONKzAlCO8sInsRSTqgyn8iir9jC8vKqQIWMonDqo4ffI9HkpH/8xnOcxqwlkTrG3B3tgeqlJsDUrz2euInEFSdXzAU1SdblbrwMpTb0uR16+IKXxY0hHJbMU5FXzhHzapTPOPSOvidS2FmXu/r+lJBXYYG0WTNQUCEba6RB1OSuTqFOpjDJSa02WHFcsy10bv7yPJNqcl9XHX8JorqZ0G6maChqqyyEFGgSaOphBXEBrj3VkNvHKeTl9/gMJx06aEFX5WfKktszqSbwlm3NXZH7mWxkLawDKNiwVR3wcEULlzko4x191VpAjJ1+T02//SiaPnUOaElGEgkBTgQ9rZchrKpxlbsv60i2Ze3hFkuq6minOPQac8yJolF9eA/wYaU6deFVeu/gbGT9yDnRQBkNzncifjuhYrtEIYJlX5m7IxrNbANoaMuDZDt6bCSjFofgaTqBBiaoUfNk/1T4ECnZV6bt1fVQQLQ3y0RHHh7/waqAWKgb3UCJVopRVUbxKlYRLe0rXHt0bQZAOSugbJVB6G86cOgNMbOs1KLDLJ238t7JokThVYynUOUN6rdMORy0lpuwwD3hW7gE25d/opKnwk9IjU4504+FQXJHzwxFUsykQDgfHnssmCRwCoBm46AgHzmNuqoC/PBwSGEqg0fo7t8P1Zq292+EQr+fSSWAogUaPhMDiGj6vCTxed99xMqX74HIPOZl6aAIrzo+ri16n9/Vr3g9/GEqgwe9V0ZI5DrbonvF6V6DtEL4DGnMe5tBa664kMXQVPuxaGDqBeoayJeCBli0XH5uzBDzQchaoJ5ctgZwmbOkcNTlI8OQ5MZmky0ecXvShXxKArHVyGb4dHVwEnfDFre4r3N3T7QmjOQGNjrpzWlFRzLqr664VZQ1334HZk9qNKlEnd/1Fk9fJbh3LD0wi+QCtvo7nAIZdD7gsYJ2OS0mM9aFfEoAVQ0/CYD0J11oJMtsdx55mECEfoBFVWARPChG28HC3RRlbX7DFL9pIK1seRN1GtEzuVbPtSQm60O0oUoumW6OwjYmqGkTIZTDAvp9uAVtLhC08xYlTUjr2qlTDcakVciliELI5lGXSXgW6Dw6eGTYAxKVxmT53UbbCaWy1Kg2sd8kHBfQFWIm4JFHyEvZZvSGvvPVLmTjxllRxTM8gmDYl9qVqvgfUtA4lfLpnWrtGdp3YVBnHZWxUOS4nzr0vb773WylNnEYHym3l7Epp9agDDtx4b9ftv3iUQ8il60x4Mgn/CCEdB5Sn5OjZn0k4MS0L947L8qMv8GxLSoWSxDXbosM8FgbjM+Qgu6EkQT1QxCEUEWIfby2qSaF0TI6ffFeKpUmZuf4Xqa7NyJhsw4fmpil4ctqfUn8ZulA1ZcTvsfa5AI2tgA4nnU9lCXvGwvJJmZr+kYTFcfhtCTYDfgGgbWMfPXaIaqvi7jAf8pcAoEbBQuY6GEA3ysYfltj4fy5vYDv8/Wt/l9rKbRkrrJsOdPCARFkOnNI6OJc5AQ081lsFmwA3/JVhvSekfPIdmb5QkgJOMy8+/FzKwYZZZzxv7Kk/eEU8hWwJqEEihjDFERWPysSp9+T1d0sy+10k26vfYQxXxYAUu5h1C5amziZ0wNhcgEb22IrMotGypaMeHp8oTsnkyz+VUnFMCuGYzM1clrF4E4cAMLemp4UOWAOfvWsJBDwMU5yUY2cvYDv8r2X2Vihb899LocbGDz+th11MLkBzp8bUVKtjSefSPtrvw1yXjrwpp85jmzNOID2/+y8ZC9aRghBlCuZUuKZ17V3L6lorhzYhZIm+0v41KkGJFmrYRo7TWRG60ckz78spmZSF5GOcqfgG6lqr95wqfYCOv6bTgyMwF6ApmDjFoTPQBhzd2sPuVHnEb7Eo5aPn5MxPPsBUSCgLM5+i51yGdeNefoyBkJbzPrpMwhry48O+JMCDN9r4IUSdrCXwqB8OwCDsAD50guHA8emLOLYH/xm6WQfYkuoKAIeeht0Teht7qQ/y5aCLfIAGRggv+8aVA5z+2pGQhCeQMP1Rmnhdzrz9gcRhLEv3PhHZ2sTQABO9RXzgJ8QRzDsr6sO+JEA9UHpsuGytAQ9O42Qz7wIeIOUvQaf3Y3Lk9EWcjSnJs1JRVp9el2hrHptMOVzD0FVzMcfBQy5Aa2PD6mPRBA3n2QA6bSFjRfhrp+Xc2x9iYDAuszc/gyDmWHukp23jxwPNhHfwbwUdwKZAwxfvec2RaMxTZWjck9MXZLqABl4ak+XZKxKvzynMCjofl48uegO0HfKx1gRbjFgwDRwlWKIqvHRWpt/5UFY312Tl0adSDLbQ+jD6UaeUovAhDwmwd6nVMDhTv81Ao990VVCATeBOyOSJC3KmgF6nsiAra8uGROiLdkJf5nJAZnIHmlUFXKEWWhXMm6mhRuugrdIZaU7wwjxXN5/L0SMl2eQhW84yAowJ5troq9Hcay01j//avwSsm2R+LknRudcT9BAvPRv1bihqTHMktW1Md/B1WYznoW1Vo3a1+y/fcuYENHDKoPDnNUw1f+r3vKZjykpjwSNZl8oaXlNw65LM3/8P7FsFcfTU2IKsFVkVkc+HfUmAcmawX07e2h0XpRNM4qofrfoAqmprsrl4R2Zvfyars3cxTOBzWEF1Z5AT0yIHDQenoBw4EMEqgUEsgoA5tB7dD2XXbpkjwZzNxuL38sP9T2Xl/md6DjzifBvqU9B8EI3OVPMlbz7sRwIEl2EkNQAp6AroJTjyZI/Bl+ZwBirBaxXWn1+XJzf/IWs/3JExvJ+Er6DgaXyM2FKAOjr74cby5AS0TgzQBgNoCHy1gCSrsrl6TZ7e/ifWQG/IeOngFehUso9vSMC8Mfr9XD4P0XvA8ceblYLtRViyrxVkq8/uSAnvDuFkO6dGqBloD/rj25EOrqceA43WiVyD0dqWrC/e10ptzl6XKa556mi0IRB/lb8EHEToi6klswk2iSuLsj7/tTy9eUm2Fu7IOKyY+WsKL3VhCDdkyyX0HGjgWOLtdVlHZR5/9WepLN7WhfUcuv1cBDAqRAgY2xgEl6S6JKvPrsqjm3+TaPkBpplScNEo6OwADBkQysGb+XgHl1JuQFMe0+aj/oFe86sia8+/lZmrf5Li0kMZh58QYS5tA68NH8PkLCY0Dl6LUaSwB1NDLdBHJtCCaBMO/zWsc16SaOWelDj4wtuSdLe3o8mBG2L51iPL6x7sX9C5AE2HwWCuCG45iUHoJLhOMLpcffZfefTlRxKvLoBpsM9ZDAyhOVmbx/zM/qt+eHNS+W592TVTt72Pz7CkCehwJQbrmtjxzMEWd56F62t4SeDH8uzBJSxtzqGhY1MqLESC+TMbPaTUkF8BBg3lFXIBmr7eXD3IIqpXxPIHtp7Igsw/uCu3r3wk49GSlHGeQF8gDEDy5cARPlwRya8qeYnk/4OOW8YrEoEYWQYx30R5WWa//0Rqm7NSpt+MwNUanvXgzg5FV4+qnxPQ4EjCjsUYMsdoRUm8IkuPLssPX12WY9E8KoAWwzU3rRjtmLWXHtVp5Mnai/7YhDHCrFakhIb+4NpfZeXJFbxmdU5ewpMA687cg6uBoFPfx2578Z0L0GxswlnnANt/Ill6eEOWH2AkE1fwouKaVHWGI60+KmQGmuD0IW8J0LdiSPhOXMiaO5qffPeFbFQiTMSu6ek0Pd+hIDMw6sJ7OiDImx9HLxegRUQO6leE1QoBrgJ+Y3gG1e0YXSkAhQVbHcPAIWX3ySUQCoRLIj70QgJ04iFbuCcBlvrirSWZBJDYk8T6qlWWiTkzgotOszrOBJ2BtBcc5QK0AkcDZJNOJe0UkMclDH11LCuhpsvNzzClWTde+bB3CVCcdL3SXT8q33rPxwuuyqjQ0bCxO4OwgzbwTT3ZMqA2fM2E9DpNsHc+9pIjF6BZpVgHtgiKATGucaBV+dADCTj5ZpJulTlB1hznrt1vJpFcI33flas4PbFOEvBA6yQZH5+rBDzQchWnJ9ZJAh5onSTj43OVgAdaruL0xDpJwAOtk2R8fK4S8EDLVZyeWCcJeKB1koyPz1UCuUzY5soRiPFFcpyP5CSjvRaTc9ucdGSkPeFlW9gx/2gzmumOKiy9YPklnQnnbhNOKtf/xDTj63nTa04063+uaIBKmkY50XXBeoYmNtIyMTNfwNQ9l9t4Kt+CbTwgHfsHSjqZ7ehY3iZiWl/jn2lsht+914Q8NUJKozmq8XAoroYSaPbuW1syCfi3LQkSLp9gn3vCw7C6S4/yg8qcnogKDQQFL/iLOFxz0x+BFuGeJ7AJtAiPCDQcmLewQ0mMTOkhnxE046+HbHbsEmzmgfzhuCDyhgQaeA0iHALBKX0e2uFuCgOZLgDhnq+UIp+OCbJi9JQdlo1gS0d4ogBHWq0gn/FjdWQ6vbaLofseSqBRxSpGXHBNj3LVtyrhnbhJbRmvT3BW4gXyRB6CMMEiv+DklR66gEJD3dVA62J0GxQY0wgEeILy4hr/yi9oIJ/xRBtDKO1Mz5wBykqqzwFeWmR7vvNYBHICPA4nhWgL6Rew1X0KFcxSBUu05SOlBv5j8JLwbUy4aoR2XhrPhuMqq3aD5yztXrhgqiqFtkJszqusPZSlJ5/j78NONPFIZXQKUABO9myvPARgYRmRzFSXKkatVbaSoo1ZvIviilSW7kLXFBOApklby2u6R5dfWXuGXSzY+AmUcy9oDCukGzyROeYmQ8bBnPJFLLWNBbyC4KqUlmeQno2niZZWyeyfglbL5gbFbamszmGHDMF2eMJQAk3Pg0Kw7DJV9NyNgC5p4fE3Mv/4Rrs+XiBv6oe2iG9uVasIggYYxKtpUQ22UdhYuIfzjvc0NzjRTHUr5fhqywXrA8tXxhFD7rpzb0gy40PLhM4SwONfMSbQNp8DzEtPEcsn/DQCuWI7INR08zJu1LbBqumOZk2fzXuDyvBcdQW0hggaV72vAkHG8ihMbjuKsUm8asLfExuqMlByPhY5RxwVp3SyiWFvKp7v7J70lVrIDbuE7+x8zBHy3CS7WvCsPp0WZ2US5DoIAMiLOKwbwgp2CgSjAg1l0ZdTf1SLJuSche2Uu/fx2RLILrcroOnojPvLQMOqnk0sr1hXAbM4EDJ1BNEaMIyLvZYFu6D4Im2l4Aoxou3k8NyB0z0kHxY68aDqB7/00cgvfUEriFf0N4tkQ30tAgcgIyk6chlBD6BovJXnWNY8pN+J9wxaeUeRFzYqPQfSBR9dAa0QI1nqX7AAVDHl21W99Z6PW+N43yl9S1ptuqRh6fV9HErP0tm0QOM5r7LLY3x7meQ/pcwECC3l816j2vNa+g559CHyKG7YJOF3wRIpYNI6UTGkbXVKBzUt9W3np6m8ulIzeHbl6+9enrembSovQ35KHpXQ6RtsbA34Qp5dQldA0yPxEJDt0tyFon88MhLg1BD9X8w67RoASjYxH7wEeiuBbOegt2V66iMoAQ+0EVT6IKrsgTYIqY9gmR5oI6j0QVTZA20QUh/BMj3QRlDpg6iyB9ogpD6CZXqgjaDSB1FlD7RBSH0Ey/RAG0GlD6LKHmiDkPoIlumBNoJKH0SVPdAGIfURLNMDbQSVPogqe6ANQuojWKYH2ggqfRBV/h8AMTa9hr71zgAAAABJRU5ErkJggg==;" vertex="1" parent="1">
          <mxGeometry x="431" y="790" width="64.17" height="40" as="geometry" />
        </mxCell>
        <mxCell id="BIOtD-0W4ChOzR4a4uk3-78" style="edgeStyle=orthogonalEdgeStyle;rounded=0;orthogonalLoop=1;jettySize=auto;html=1;exitX=1;exitY=0.25;exitDx=0;exitDy=0;entryX=0;entryY=0.25;entryDx=0;entryDy=0;strokeWidth=5;" edge="1" parent="1" source="BIOtD-0W4ChOzR4a4uk3-50" target="BIOtD-0W4ChOzR4a4uk3-64">
          <mxGeometry relative="1" as="geometry" />
        </mxCell>
        <mxCell id="BIOtD-0W4ChOzR4a4uk3-50" value="" style="rounded=0;whiteSpace=wrap;html=1;" vertex="1" parent="1">
          <mxGeometry x="672" y="550" width="90" height="290" as="geometry" />
        </mxCell>
        <mxCell id="BIOtD-0W4ChOzR4a4uk3-51" value="Elasticsearch" style="rounded=0;whiteSpace=wrap;html=1;" vertex="1" parent="1">
          <mxGeometry x="680" y="608" width="75" height="40" as="geometry" />
        </mxCell>
        <mxCell id="BIOtD-0W4ChOzR4a4uk3-52" value="HBase" style="rounded=0;whiteSpace=wrap;html=1;" vertex="1" parent="1">
          <mxGeometry x="680" y="663.5" width="75" height="40" as="geometry" />
        </mxCell>
        <mxCell id="BIOtD-0W4ChOzR4a4uk3-53" value="Clickhouse" style="rounded=0;whiteSpace=wrap;html=1;" vertex="1" parent="1">
          <mxGeometry x="680" y="730" width="75" height="40" as="geometry" />
        </mxCell>
        <mxCell id="BIOtD-0W4ChOzR4a4uk3-73" style="edgeStyle=orthogonalEdgeStyle;rounded=0;orthogonalLoop=1;jettySize=auto;html=1;exitX=1;exitY=0.5;exitDx=0;exitDy=0;entryX=0;entryY=0.5;entryDx=0;entryDy=0;strokeWidth=5;" edge="1" parent="1" source="BIOtD-0W4ChOzR4a4uk3-54" target="BIOtD-0W4ChOzR4a4uk3-50">
          <mxGeometry relative="1" as="geometry" />
        </mxCell>
        <mxCell id="BIOtD-0W4ChOzR4a4uk3-54" value="" style="rounded=0;whiteSpace=wrap;html=1;" vertex="1" parent="1">
          <mxGeometry x="542" y="550" width="90" height="290" as="geometry" />
        </mxCell>
        <mxCell id="BIOtD-0W4ChOzR4a4uk3-55" value="数据过滤" style="rounded=0;whiteSpace=wrap;html=1;" vertex="1" parent="1">
          <mxGeometry x="550" y="607" width="75" height="47" as="geometry" />
        </mxCell>
        <mxCell id="BIOtD-0W4ChOzR4a4uk3-56" value="情感标记" style="rounded=0;whiteSpace=wrap;html=1;" vertex="1" parent="1">
          <mxGeometry x="550" y="675.5" width="75" height="47" as="geometry" />
        </mxCell>
        <mxCell id="BIOtD-0W4ChOzR4a4uk3-57" value="......" style="rounded=0;whiteSpace=wrap;html=1;" vertex="1" parent="1">
          <mxGeometry x="550" y="754" width="75" height="47" as="geometry" />
        </mxCell>
        <mxCell id="BIOtD-0W4ChOzR4a4uk3-58" value="实时计算" style="text;html=1;strokeColor=none;fillColor=none;align=center;verticalAlign=middle;whiteSpace=wrap;rounded=0;" vertex="1" parent="1">
          <mxGeometry x="557" y="560" width="60" height="30" as="geometry" />
        </mxCell>
        <mxCell id="BIOtD-0W4ChOzR4a4uk3-59" value="数据&lt;br&gt;获取方式" style="text;html=1;strokeColor=none;fillColor=none;align=center;verticalAlign=middle;whiteSpace=wrap;rounded=0;" vertex="1" parent="1">
          <mxGeometry x="305" y="555" width="60" height="30" as="geometry" />
        </mxCell>
        <mxCell id="BIOtD-0W4ChOzR4a4uk3-60" value="存储" style="text;html=1;strokeColor=none;fillColor=none;align=center;verticalAlign=middle;whiteSpace=wrap;rounded=0;" vertex="1" parent="1">
          <mxGeometry x="687" y="559" width="60" height="30" as="geometry" />
        </mxCell>
        <mxCell id="BIOtD-0W4ChOzR4a4uk3-61" value="MySQL" style="rounded=0;whiteSpace=wrap;html=1;" vertex="1" parent="1">
          <mxGeometry x="680" y="790" width="75" height="40" as="geometry" />
        </mxCell>
        <mxCell id="BIOtD-0W4ChOzR4a4uk3-79" style="edgeStyle=orthogonalEdgeStyle;rounded=0;orthogonalLoop=1;jettySize=auto;html=1;exitX=0;exitY=0.75;exitDx=0;exitDy=0;entryX=1;entryY=0.75;entryDx=0;entryDy=0;strokeWidth=5;" edge="1" parent="1" source="BIOtD-0W4ChOzR4a4uk3-64" target="BIOtD-0W4ChOzR4a4uk3-50">
          <mxGeometry relative="1" as="geometry" />
        </mxCell>
        <mxCell id="BIOtD-0W4ChOzR4a4uk3-64" value="" style="rounded=0;whiteSpace=wrap;html=1;" vertex="1" parent="1">
          <mxGeometry x="810" y="550" width="90" height="290" as="geometry" />
        </mxCell>
        <mxCell id="BIOtD-0W4ChOzR4a4uk3-65" value="数据分析API" style="text;html=1;strokeColor=none;fillColor=none;align=center;verticalAlign=middle;whiteSpace=wrap;rounded=0;" vertex="1" parent="1">
          <mxGeometry x="825" y="560" width="60" height="30" as="geometry" />
        </mxCell>
        <mxCell id="BIOtD-0W4ChOzR4a4uk3-66" value="数据导出" style="rounded=0;whiteSpace=wrap;html=1;" vertex="1" parent="1">
          <mxGeometry x="817.5" y="718.5" width="75" height="40" as="geometry" />
        </mxCell>
        <mxCell id="BIOtD-0W4ChOzR4a4uk3-67" value="预警" style="rounded=0;whiteSpace=wrap;html=1;" vertex="1" parent="1">
          <mxGeometry x="817.5" y="664.5" width="75" height="40" as="geometry" />
        </mxCell>
        <mxCell id="BIOtD-0W4ChOzR4a4uk3-68" value="实时分析查询" style="rounded=0;whiteSpace=wrap;html=1;" vertex="1" parent="1">
          <mxGeometry x="817.5" y="611" width="75" height="40" as="geometry" />
        </mxCell>
        <mxCell id="BIOtD-0W4ChOzR4a4uk3-69" value="数据管理配置" style="rounded=0;whiteSpace=wrap;html=1;" vertex="1" parent="1">
          <mxGeometry x="817.5" y="780" width="75" height="40" as="geometry" />
        </mxCell>
        <mxCell id="BIOtD-0W4ChOzR4a4uk3-70" value="用户" style="shape=umlActor;verticalLabelPosition=bottom;verticalAlign=top;html=1;" vertex="1" parent="1">
          <mxGeometry x="970" y="641" width="60" height="100" as="geometry" />
        </mxCell>
        <mxCell id="BIOtD-0W4ChOzR4a4uk3-71" value="" style="endArrow=classic;html=1;rounded=0;fillColor=#000000;strokeWidth=5;" edge="1" parent="1">
          <mxGeometry width="50" height="50" relative="1" as="geometry">
            <mxPoint x="256" y="694.5" as="sourcePoint" />
            <mxPoint x="290" y="695" as="targetPoint" />
          </mxGeometry>
        </mxCell>
        <mxCell id="BIOtD-0W4ChOzR4a4uk3-75" style="edgeStyle=orthogonalEdgeStyle;rounded=0;orthogonalLoop=1;jettySize=auto;html=1;exitX=0;exitY=0.3333333333333333;exitDx=0;exitDy=0;exitPerimeter=0;entryX=1.022;entryY=0.386;entryDx=0;entryDy=0;entryPerimeter=0;strokeWidth=5;" edge="1" parent="1">
          <mxGeometry relative="1" as="geometry">
            <mxPoint x="970" y="691.3333333333333" as="sourcePoint" />
            <mxPoint x="901.98" y="690.94" as="targetPoint" />
          </mxGeometry>
        </mxCell>
        <mxCell id="BIOtD-0W4ChOzR4a4uk3-76" value="&lt;font style=&quot;font-size: 18px;&quot;&gt;消费&lt;/font&gt;" style="text;html=1;strokeColor=none;fillColor=none;align=center;verticalAlign=middle;whiteSpace=wrap;rounded=0;" vertex="1" parent="1">
          <mxGeometry x="489" y="653" width="60" height="30" as="geometry" />
        </mxCell>
        <mxCell id="BIOtD-0W4ChOzR4a4uk3-77" value="&lt;font style=&quot;font-size: 18px;&quot;&gt;写入&lt;/font&gt;" style="text;html=1;strokeColor=none;fillColor=none;align=center;verticalAlign=middle;whiteSpace=wrap;rounded=0;" vertex="1" parent="1">
          <mxGeometry x="622" y="651" width="60" height="30" as="geometry" />
        </mxCell>
        <mxCell id="BIOtD-0W4ChOzR4a4uk3-80" value="&lt;font style=&quot;font-size: 18px;&quot;&gt;写入&lt;/font&gt;" style="text;html=1;strokeColor=none;fillColor=none;align=center;verticalAlign=middle;whiteSpace=wrap;rounded=0;" vertex="1" parent="1">
          <mxGeometry x="760" y="729" width="60" height="30" as="geometry" />
        </mxCell>
        <mxCell id="BIOtD-0W4ChOzR4a4uk3-81" value="&lt;font style=&quot;font-size: 18px;&quot;&gt;查询&lt;/font&gt;" style="text;html=1;strokeColor=none;fillColor=none;align=center;verticalAlign=middle;whiteSpace=wrap;rounded=0;" vertex="1" parent="1">
          <mxGeometry x="760" y="581" width="60" height="30" as="geometry" />
        </mxCell>
        <mxCell id="BIOtD-0W4ChOzR4a4uk3-82" value="&lt;font style=&quot;font-size: 24px;&quot;&gt;数据处理&lt;/font&gt;" style="text;html=1;align=center;verticalAlign=middle;resizable=0;points=[];autosize=1;strokeColor=none;fillColor=default;" vertex="1" parent="1">
          <mxGeometry x="447" y="500" width="120" height="40" as="geometry" />
        </mxCell>
        <mxCell id="BIOtD-0W4ChOzR4a4uk3-83" value="&lt;font style=&quot;font-size: 24px;&quot;&gt;实时分析&lt;/font&gt;" style="text;html=1;align=center;verticalAlign=middle;resizable=0;points=[];autosize=1;strokeColor=none;fillColor=none;" vertex="1" parent="1">
          <mxGeometry x="795" y="500" width="120" height="40" as="geometry" />
        </mxCell>
        <mxCell id="BIOtD-0W4ChOzR4a4uk3-85" value="" style="shape=image;verticalLabelPosition=bottom;labelBackgroundColor=default;verticalAlign=top;aspect=fixed;imageAspect=0;image=data:image/png,iVBORw0KGgoAAAANSUhEUgAAAjIAAAIiCAYAAADSGiLCAAAAAXNSR0IArs4c6QAAAIRlWElmTU0AKgAAAAgABQESAAMAAAABAAEAAAEaAAUAAAABAAAASgEbAAUAAAABAAAAUgEoAAMAAAABAAIAAIdpAAQAAAABAAAAWgAAAAAAAACQAAAAAQAAAJAAAAABAAOgAQADAAAAAQABAACgAgAEAAAAAQAAAjKgAwAEAAAAAQAAAiIAAAAATw8TNAAAAAlwSFlzAAAWJQAAFiUBSVIk8AAAQABJREFUeAHsnQecVNXZ/8/MAipKE5QiZREV7DRFQAMYEyv2oEYTEVvypqjRaJI3+bDGN9UYk7z551WDuMZo7AU0sSGLiihKEVFBRZa+SpMmfef/fM/sGe7OzuzOzE65d+Y5n8/u7af8zp17f/epxmhRBBQBRUARUAQUAUUgoAiEAtpv7bYikDYCXfqPLTcmPDIcNrKUEomUR0yoXNYo5fa/Mb3qliyWeNarWQ+ZiF2aUKi6tjZcxb6auRPsknUtioAioAgoAvlFIJTf5rQ1RSD3CHgJSyRiRkqL5fLnJSiymfWyREhOFbXWRsoqldxkHV+tUBFQBBSBhAgokUkIi+4MGgJd+o8bi6SljriMSNT/7l07mmGD+9pDPbp1Mt27djIsKT26dYzttyvyb9nKNW5V1tfadbdv+ao15o13Ftpzlq+KHoudvGfFkhslNnsA0TVFQBFQBLKNgBKZbCOq9eUFASd1CYXMWGmwAXEZOqivJS1DB/Wz/XEEJhedc+QGYkN5dPJ0M2NWdN21FwqHl0ZqayNIbVbOuW+s269LRUARUAQUgeYhoESmefjp1XlGwEpeQpGRYttyubdppC0XnT3cQFxySVq8bTa2DrlBisMyntiEw6FlQmpeUUlNYwjqMUVAEVAEUkNAiUxqOOlZBUSgS/+rxEC3dqSojcZ7u4HUZczo4ZbAePf7cR1Cg8QmntSEQqGlJlI7VUmNH2dN+6QIKAJBQECJTBBmqUT7CIEJhWorZPgx1ZFTGd147TmBRSUZqZEBTYtEwhVqKBzYqdWOKwKKQAEQUCJTANC1ycYRqCMwlXJWL3fmjdeebaUvzjjX7Q/60pGaGyomeoeihMaLhq4rAoqAItAIAkpkGgFHD+UXgXgC4+xegix9SRVBR2juuPsZ4/GCWiISmrEqoUkVRT1PEVAEShEBJTKlOOs+G3O8CqmUCEz8VCQhNCqhiQdKtxUBRUARqENAiYzeCgVFoNvAcRXOiLeUCUz8JMQTmrKy8PLa3bunqOt2PFK6rQgoAqWOgBKZUr8DCjT+OinMVNf8mNHDzJ9uvdJt6rIOAQgNnk533D0puicUWhKpjYhB8MRKBUkRUAQUAUWA1DFaFIE8IkAgu1AoXClNWk8kvJCwgfFD7Jc8wpB2UxCa68dP9AbaE3VTrdjPVFanXZleoAgoAopAESGgRKaIJtPvQ4mXwtxZMS4QMWD8hOsjk6Yb5+FEDBoJFjxepTN+miF/9sVFwtaEqf6cH+1V8xBQItM8/PTqFBHw2sIghXni7zeneKWeFo8A0hm8mx6d/IY9JGkabl05e2JF/Hm6XXoIeAmLJkwtvfkv1RErkSnVmc/TuONVScSDKQV36nzAC5mJ2c7YYHqqasoH7n5rQxOm+m1GtD/5RkCJTL4RL6H2vKokPJIw5lVbmOzeAKQ9uH78vTb2jKqasoutX2tzUhdNmOrXGdJ+5RsBJTL5RrxE2vOSGFUl5XbSvaom3LR37ar9hdrN5BbzQtSuCVMLgbq2GQQElMgEYZYC1kcviVG36vxNnlfVpHYz+cM9ly3xW9KEqblEWOsuBgSUyBTDLPpoDF0HjKuS7ljX6sfvuVlVSXmeGyUzeQY8R83VfQxUSPX2t0QzmjAVFLQoAg0RUCLTEBPdkyECSmIyBC7Ll2E3c+E1v7e1hkzkfo0GnGWAc1hdHYGplCZ6uWY0YapDQpeKQGIElMgkxkX3pomAkpg0Acvx6V4yI01NWzVn4sgcN6nVNwOBeAJTSuk6sPHifkWaqAlTm3ETlfClSmRKePKzNXQlMdlCMrv18HK4TjyaVqxaKyG8VTKTXXSzU1u8CqmUCEw8gkkIjSZMjQdKtxsgoESmASS6Ix0ElMSkg1b+z/VKZtQAOP/4N9aiN0hkKROYeIziCY0mTI1HSLfjEVAiE4+IbqeMQN3X5FQuUMPelGHL+4lKZvIOeaMNen83nKiefYnhgtBowtTE2Oje+ggokamPh26liID3YawkJkXQCnial8xI6PorNM5M/icjPsq1JkxNbQ4gNJowNTWsSvWsslIduI47cwSUxGSOXaGu7NGtk216xqyFpkWL8ODWB/Zfv7lmztxC9afU2o3+ZswcGXc5Yydh6i9/fIlx88I+LYkRaNemtU0u271rJ/NCFRCa8nA4fP6+nQd8ofdwYsxKba8SmVKb8SyMt03X/oupBrfQi84enoUatYp8IDBscD/bzPS3F7QNh0MD9+187NOba+Z+kY+2S7kNbGGMidwHBkhhZj73e3NU356lDElGYwezMaOHm42bvjTvL1zWTmy+zm3bbUBo06o5VRlVqBcVDQJKZIpmKvMzkDrj3nIeyORO0hIsBCAziOqjL4LQAPmirQzWCILTW1RJbboOfFp6fDm9hvjrb6Z584d05rRRA20lSBeljGzTdcCo/bocW6WkvHnYBvlqJTJBnr08973bgCsqjQmdQ7N8VWoJJgJHypft81PnmI2bt5brF21u5tCrSsIjaeIff6DSyyxCDSEfOqifxJ9ZYO9jVTVlEdwAVqVEJoCTVogu82CWYCR30jbGvarbL8QsZKdNvmohM3iESBm5X5cBS9TWIDvYUovXhgzJ5csPV+jvJXvwxmriGXTaqAExVZPafsWgKbkVJTIlN+WZDdjZxWCkeLo8PLQEGwFHRBHPq71M9ubSS2Jwq75PJDFacoeAV9WE7ZfazeQOaz/XrETGz7Pjk7557WLwtNBSHAiovUx255HfSSgUGU+tSC2vvvRr2W1Aa0uKgDNkd3YzqjJNClVRHtA4MkU5rdkbVJf+48bKV471uFg5+97sVaw1+QIBDH+HnHWL7YvGl8l8SjTCdebYZfNKb7wkTcuRTWT9XVfY393T3hUagVA4VEEfUClpKT4EUDG5uXVzXXyjzO2IlMTkFt90ah82uK+VhnFNxIQur5ubdKrQcwOIgKqWAjhp+epy1EvJjMBgUVVK+UI9/+0Qn4Mv2eUr17Rv27V/7001c3EZ1pICAkpiUgApz6dAzvFomi4eTZvwzNN7Os8zkP/mlMjkH/NAtEgMDBMKW5USsS+ccWggOq+dTBsBvmQnPPSyKSsr69T6wIFzNtfMrk67khK7QEmMfyec5xUEPeqZF+qvNjP+nats9ExVS9lAsQjrCIXClQwLzwteclqKGwEe/ARs2727tnsoVFtR3KNt/uhsOAJjRlCT5hprPp65qKGemilixkcjLOeiJa2z0AioRKbQM+DD9usMfK+jay9JDAwtpYEAZMYFytuvy6BpKpVJPO9eF2slMYkx8ste7mnUTBozyS8zkpt+KJHJDa6BrlVCfv9JBlCOEajmhAn0VKbVeWJytJU/EvOJG/EoCZLHfaDFg4CSGA8YAVmFzFA0YWpAJiyDbiqRyQC0Yr7EK42574/fL+ah6tgSIACZqZPKtFepTEOAXGBITZjaEBs/73FxZjRhqp9nKfO+qY1M5tgV5ZUSM2YsA3MuuUU5SB1UUgSitjI2nZZIZdRWxguUc+XFi+/Ga6MYeY/rur8RYM6w+YtEIj2dDaC/e6y9SxUBJTKpIlUC53kNGC86e3gJjFiHmAgBjCRJdChlRN09kei0ktrnQhEw6Cf+fnNJjb2YBguZcfe2Gv8Wz8wqkSmeuWz2SNwXOGJzLaWLgEpl6s89ZI7gauzFuFdLcBHg3iacBEUiWY9HlW439F+gEVAiE+jpy17nbdyYOndSFZtnD9eg1uRxuS95qYwQ/KnMI+pWDy5BndqS7zdz6D7WJGHqrXXPvpLHJcgAKJEJ8uxlse/hUDQVgfuBZ7FqrSqACPDl6uykwqHdYwM4hKx02WsXo+rWrEDqi0rUXsYX05C1TiiRyRqUwa7Iic7HjFbbmGDPZPZ6H5M+hMKjsldrcGqqUzvYoHdqF9O8eZs6dap5/fXXzdatW5tXURav9kieReqoKqYsQpv3qpTI5B1y/zXofsQYwfElrkURAAHuBTx08PIoRaNfl0TTSab0rsgMgd27d5tLLrnEnHTSSaZdu3bmrrvuyqyiLF/llTq6uc5yE1pdnhBQIpMnoP3cTDgUGUn/PF8ofu6u9i2PCDgJXampl6yXUiTSCyKnKqXm3XBTpkwxn332ma2ktrbWnHrqqc2rMItXM7fMsbD1XnWeaVmsXavKFwIt8tWQtuNfBJxaKaZK8G9XtWd5RsDdE6Fw+OQ8N12w5jD+dL+JUiT3S5cuTUsF1LJlS3PwwQcnna8HH3wwdmzMmDGmd+/esW0/rPzp1nFmyFm3mHBZ2VeRPNbMnVDlh35pH1JHQIlM6lgV5ZnEUhA3RBsoStVKRTnFzRqUUy9JePcefLGunHPf2GZVGICLXbC0fCdMXbhwobnyyqhrcL5geuyxx0zXrl3rNffNb37TTJ8+vd6+xjZ69OhhHnnkkaR9X7RoUezyxx9/3MydOze2nWhl9OjR5ne/+12iQznZxz2Ok8Mdd0+ShKmmQhoZmZOGtNKcIaBEJmfQBqNiITEj6SmJ1bQoAokQQL1EnhqRUoxMdLyY9nkNfF28kXyNb/PmzWkRiGz0a9u2bdmoxmzZssV8+OGHTda1c+fOJs8bOHBgk/Vk+wTu8UcmTTfLV6214QZUKpNthHNbnxKZ3OIbhNqtV4baAQRhqgrTR496KVSYHuSvVU3RYcwpp5xikLK4smPHDvPkk0/azXA4bFAPecsRRxzh3bTr8VIeCNP69evtsdatW1ujX+9FtLF27VrvrryuR6Uy55gbKiaSmqNSGi/Pawe0sWYhoESmWfAF++KoJ0pt1Ngt2EPR3ucQAY96yXovFevXqlca4wdi/7Of/cyceOKJWZ3ZGTNmmNtuu63ROisqKuodf+mll2JEZvDgweZf//pXveNsvPzyy7F9qMcmTJgQ22bl+eefN6effrrdx/G//OUv9Y7jmo1XUyELhB3PTZHK9FJbmULORPptK5FJH7OiuSIcrh2JfYz74i6agelAso6AUy/VeS9VZb0BH1ToN2nMaaedlvWXO5KPdMszzzwTu+TMM8+Mraez4lVh7b333ulcmrdz46QyFdLwyLw1rg01C4Fws67WiwONgJCYsQygGOxjvvzyS/PUU0/ZPx68uHlqyR4CPOQpxWonUxcnR9WsCW6ZSZMmxfYWM5FhkE4qI6sln5ojNukBWFGJTAAmKYdd7EXdxSCRwePj/PPPj0GFvn3//fePbetK8xDo0c1mw6YSe880rzb/Xa0JUxPPyZw5c8yyZcvswS5duphMDXG9Epm99torcWM+2KtSGR9MQgZdUCKTAWjFcInax2Q2i/369TMrV67M7OImriorKzPLly83++67bxNn5v+wx07GFJv9QF3SQCuNKcW4MY3dTV610hlnnCGGsE3be997773m0UcfrVct3kqu/PznP2/gXk30X78Uz4edejD5ZVKa6IcSmSYAKtbDah+T2cyuW7fObNq0KbOLU7jKTw/0+O4Wq50MCVMjMlhNmBo/48Z4iUw6aqWmfiNNHW/Yk/ztgbSTlgIPpmK2CcsforlvSYlM7jH2ZwuRSLkxIbHS909upZtuusmsWbMmI7xqamrqXfed73zH4OaZScH99LLLLmv00jZt2piHHnqo0XNSPXjjjTeajz76KNXT9bwsI+Ci+ELUtOxBYMmSJbHgdUTv/drXvrbnYBNrxx13XL0z3n33XeMMjfv06dNA7QuxWbBgQb1rCrkRk8qUaMLUQmKfSdtKZDJBrQiucUabsR+sD8b0z3/+M5aTpbndIWJppqVFixZNEhlE7NlSAaFSCkJx94q7d4LQ56b6qAlTkyN05513xg6iGrroooti225l6NCh5he/+IXbtMtE7tdE63322Wft8QceeMBwnbf4wf3a2x+PKrWoQw54xxzkdSUyQZ695vXdGm3yg9WSPgIbN240J598cvoXFscVRWPwS8JUIWaaMDXuviTfUnyW6v/85z9xZxnTqlWrBvsS7cAY35VEAfTcMT8ti1WV6ieMs9UXJTLZQjJA9ThDX4I/+akQVItQ55mU+fPnm6uuuip26b///e8G4uvYwSZWDjrooCbOiB4+7LDDUjqvqZPIReNn2xjXf0hvXcCwojH4dWolJ21yYy31JUHxtm/fnhUYyHz9ySef2Lq6d+/eIKpvVhrJQSXuniilhKk5gDEvVSqRyQvM/mzEb9KYo446KmOg4r8MhwwZkjGRSaUTkB3vV2Yq1yQ7Z+TIkWbatGnJDvtqP/eMRD71VZ8y7YwmTE2MHDmT/vGPf9Q7ePvtt8fUrXw0NGYvgy0MEktXSG8QIfKmlPLy8nrH3DmZfsC463Ox5F4fOqgvecZKJmFqLnDMR51KZPKBss/aUI+l5k8IxsXf+MY3ml+R1NBUNuCsNJKlSvhKJYEk95BUWZWlagtSjSZMTQw77tHxEkJiyPBHiTesj68FGxj+EhVsYdq1a5fokC/3OfVSMdmF+RLoZnZKiUwzAQzk5T70WIrHkcR03q+6+OPx2/EJ5wiOl04o9AEDBpjf/OY38dUm3eZB//jjjyc9XqwHYl5u9h4K/ChHMAI/5FXyC5Jvv/12LK+SX/pUyH541EtNB9ApZEdLvG0lMiV+A/h1+Ni4NEfcnK6qJt22UGVdc801WYHvkUceMatXr85KXVpJagg4OzFUB1r2IBDvgbTnSONrBx54oDnvvPPqnfTWW2/VCx5JMMnDDz+83jlugw+RV1991W36ZulRL6n3km9mpWFHlMg0xKTo94iYtJxB+s1Ghj65kkoEUXduNpbx7aHnX7x4cYOqzz77bLN+/XrTqVMn8/3vf7/B8Ux2EJMGexvcsPEWIWaHt2CPs99++3l3FWzd3TMYyXYdMO7yuo4sSdKharc/ZCLR9VCoWtJg1e0P1y13VdfMraxbN3kpql5NDLNXpXTMMceYefPmJT4xbi/nYgvjyjvvvGOIx+RKt27dTFVVlQ0m6dROffv2Nd/85jftKV73a35bfipOvaTB8fw0K/X7okSmPh665RMECBDnAmjlo0vxROGll14yZ511VqNN33PPPY0ez+Rgovg3f/rTn8x1112XSXX5uqZXkoZi+4X4jLDnRCQMY0xI7xJ7ho2QIg5bQiSkp8qea0lP2K7XzJ0Q3WcPNP9fMSVMbT4ae2q44447zKBBgwyEHelJqkRmTw3GPP300+aKK64wGzZssLsh5qQs6Ny5syF30y9/+Uu7n9+XIzLDhw83Lo2B3+Iqecj7SO84dd0/CCiR8c9c5LMn5TTmSQSYz7ZTaqtr164pnacn5RcBd8/ghj3zud/bxpetXJOwE8tW7vFucucsX7XGsB5/rM4TyhIfpD22Qkt6aseznojo1EbKKo3JWJpj23I2ELY9/WeQrPzlL3+xROb//u//0kKEDPQ/+tGPzN133x27DknnX//6VwNRaaxwHoEo/VjcPS99s/eMH/tY6n3y551T6rOi47cIPPXUU016SGQDqmOPPdYMGzasXlW4l37wwQf19hVqo0ePHoVqOqV23Rdr/Mn19zdti+LIzhvvLLRVzZi1IEZ48JSSYl8kjuhIxurLjRFpzsArl4h/bzXqq9pIqEr2iaoquQRH7WMsvEn/ffe73016rLEDEBYviSHyNdG6zz333MYu8/0x7uM6N+yiiZ/ke9DT7KASmTQB09PzhwCGh++//37OG7z66qsbEBmMeeMNEwns9etf/zqn/fne975nshVoL6cdzUHljvhcdHbURiLem8hJclgi2YHwRNfXQnB6ob6SD3shN7UxCQ5qqnhyo/Yx2Z08FyPmhhtuMG+88YZNNIlNzOTJkw3egO44rXrXE23H9yzedi3+eL621U4mX0hn1o4SmcxwC/pV9svWvTiCPph89X/FihVW7J7L9jCQ9DORcfdMIYLi0Xa0/ah058ZrozPhJThOiuMkOEhvPORmibW/iURO9FvC1FzeU7muG2nmm2++Wa+ZlStXWlubejvjNsi9FA6H4/bu2RwxYoQ1EN6zR9cUgcQIKJFJjIvu9RkC48aNM6NGjUraq48//jhmRMhJzjMi2QX33XefeeWVV5IdbnI/X5wnnHBC0vNQS7lsvridNpZfhszApCnQkhkCXoLjpDiQGwpSm0cnT49JbpxaimN+t48hwu5ee+1FV7NW+J1oSR8Bd6/I/TMy/av1ilwjoEQm1wj7s368Q3rxsHdf2P7s5p5eEcb/sssu27Mjbs3rDUEgvMbO5dLZs2c3i8icfvrpZsKECXG92LOJpxGidsq1115rrr/++j0H49bGjx9fj4TFHdbNDBBw9zVqKi+5gdjcUDHR1ujOyaD6vFzCfeOXMmnSJLNs2TLbnVWrVtXrFm7UqXoYEuTS5V2ikoEDB9ary7tx4okiOPNfsdJs/3WrtHukRKa0519HnyECM2fONLfddlvSq70B+RChb9q0Kem5JMsMSnGSDr8lHE0Fv6jkJupJFcT+pzLGXJ1DWIBEoQFor7KyMuVmn3/+ecNHAAX3a+xoglC4d4otYWoQcE+1j0pkUkWquM6rluGIRGatryUytRI5za/lvffeM/ylUqZMmWL40+IfBPwujQEpYhuRLTqbBUKNrZeW9BHgnimEbVj6PS29K5TIlN6cB2bE69at821fy8vLzcknn5y0f6i6+KPgucFfskIo93x4ZyVrP539Lv5LEIhAonFhDExxNg+JzvHLPtJ0nHTSSVntzjPPPJORO/RPfvKTWKRekpzedNNNWe1XECrjnimWhKlBwDudPiqRSQctPTdvCOCmuWbNnkBrV111VczmJFEntm7dGtu9bds2m0IgtiPByhdffJFgb+q7vvrVrzZpI+OIzLe//e0mbWSCQmRSR8ifZ+5RjfkrDL4/0drTqyOPPNJwz1M6duy450AJrRVZwtSimjklMkU1nekNJvpQ75veRXk6G2mMN+8LxoTxGa4b60o65zZWT7JjM2bMMD//+c+THTbkjnGFkO1eUub2u2UQbWQ80U7dMHQZAASyET23S5cu1kh3+/btpmfPngEYtXax2BFQIlPsM5xgfERAJXhYgkO+2eVcl12H+vTpY5Mquu3mLrETSDfjtbdN3KtTjfyL4a/X+NdbT9DWCURHCapqyc+qMSJMkwHaEXjSBWS7YGjLvejszxpLBYLXFCpUijfUAERm1qxZdn8p/XP3vDw7y0tp3EEYqxKZIMxSlvtIpNOQREDFXsC5pma5iWZX95///CdWR/v27Q3xL7IZ5ZOcMHfeeWesjXRXDjjgANO/f/+kl+Fi6rJn9+7d2xxyyCFJzyVeyPLly5Me99MBp5rxU5+KpS9IS7JtExOPDQHovvKVr8TvTrhNagxUutksxFMiZQFE6rjjjstm1VpXCSOgRKaEJ9/PQ3/uuedi3RsyZEhWSQwVn3/++TYbL+upPlD5Er300ku5xJCL6fLLJRp+kuKNI/PDH/6wURsZXFAfeeQRWxOkJwglZi8QhM56+uiImKrGPKDkcRVVFDnUglg890x5EPtfzH1WIlPMs5t0bLVVJNtzyfmSnlagA/PmzTN4RriSi69Ugm2lEnDr4YcfjpEM1x+W2L3wl6wgZXHlrrvuSlm1RH4pV8477zyDobCfirtnguD14yfctC+KgCKQOwSUyOQOW9/X7NeYCN4ouIjbx44dWzAs8TxqjLCk0rGFCxca/tItiPb9RmTcPePsBdIdk56vCCgCikC2EVAik21EA1BfzdzK6q4Dxk2Tro7gC9tPX9dPPvmkmTp1agzFCy64wBx00EGx7XyvECsm1fDr3r4RGwbPJsrQoUMN6rF0i3N3Tfe6XJ3vpDFBjoqrRCxXd0fx1+sh75qmwGfTrUTGZxNSyt3h5X/FFVfEIGjVqpXxqlpiB/K4cuqppxr+0i3YyDgiM2bMmEZtZNKtu9Dnex7ohe6Ktq8IKAKKgFEiU6I3gXgtVUnMuRGPTn7dFxIZSAyEgaRyrpBMkUBchSi//e1vzcSJEzNu+vPPP49dW1FRYf72t7/FttNdIfM3kVULXYIUFTcZVi5fDka/SsiSoaT7FYFgIaBEJljzlbXeivdjtZAZ4+JqZK3iDCsiHPuGDRtiVw8fPtzccsstse18rxBnBpfvbBTG5R1bunX6JTfOHtWSRsVNdw71/OAj4DzeZCRLgj+a4hqBEpnims80RhP1XPL8ONO4NvunEiUX25jXXnvNEAgMl+SysrLsN5Rijd/4xjcMxrZ+KN5gZIXsD3lmKH6yqUoXD6Qw2Mn4PWFquuPS8xWBUkZAiUyJzr4z+JWHui8Mflu2bGkee+wxG4BrwoQJpkOHDgWdGYKGpRo4rKAdzVPjThozdFBfVcnkCfNsNYO6lkzaBMNLtZAiZObMmfZ0rk0lVEGqdQf1PI/0ujqoYyjWfqd+ZxcrAiU8LrGRqWT42Mn4oXTu3NlKYlhq8RcCxWAf4y9E89ebiy++2AZ/xJX/7bffTqnhd99915DOgD9SFWhRBPyMgBIZP89Onvrmvrbz1Jw2E0AEHpk03fY6qBF94yH3i0o1vl/Z3kayQlJSkpY+8MAD5qOPPsp2EyVTn7tnyFVXMoMOyECVyARkonLTTexkjIlIyU39WmuxIODir/g1N1eqOHvCzKd6SaDPIx3Azp077Rj23Xdfm+co0AMqYOddwlTJl1JdwG5o0wkQUBuZBKCUyi5nJ7OiZp0v7GRKBfegjdNJY7CPCXoZOqifqFLfMH5OmJpNjF0OL+okWSOqpUmTJjXZxLJly2Ln1NTUGJKsplLatGljbr311lRODdw5TiITuI6XQIeVyJTAJDc2ROxkxA3bN/FkGuurHisMAo9OjqqVxoweXpgOaKsZIYA6yRsl+7LLLjOzZs1KO+s76qlUM8Vj31asRMZNAqEr3Lou/YGAqpb8MQ8F7EVUvTRdUhVoUQQSIVAMbtduXM51vBTswkj3sWvXLjt0CAYZ23NdyI1WrGXPPRN9ZhbrOIM4ruK964I4GwXoc0y9JG7Y14+/1/zp1isL0Att0q8I3HH3M7ZrY0YPKyq3a2fz41fcs9Evr1oJzyXiMpEuY9CgQU1WT7JUp07C/Zq4TqmUrl27pnJaIM9x9wzPzEAOoIg7rUSmiCc31aE59dKeL45Ur9Tzih0Bd09gW1IMhYB42PogZWJsTkJTDGPzjoEUGdOmTYvtQq1EIchjKoEevfb/PXv2NCNHjrTXl+o/9zuQ8WtUXx/eBKpa8uGk5L9LUVEpXxyeH2z+u6Et+goBjBudWino3kq+AjYPnXniiSfM7t27bUv9+vUzgwcPzkOrJdFEdUmMMmCDVCITsAnLRXcRlUpshPup2y/B8XIxTq0zPQScke+N156d3oU+P9tJYYr1Xkeacvfdd8dm4cILL4ytuxWSkO6zzz5J/0477TR3qvnwww+TnufqePzxx2PnF+OKCwhJst1iHF/Qx6SqpaDPYJb6XxuJVIRCoctVIpMlQIugmjvujrrpFotayU2JC+rnCTnvDhXF8qGHHjJE5nWlffv2bjW2JLbMtm3bYtuNrUCMmjrXSX8aqyfIx9xzUT2W/DmLSmT8OS9575Uz+hX1khr95h19/zXojHyxJ3ESDP/1MrMeufEUY1yQHTt2mF/84hdpAbP33nubgQMHpnUNJy9YsMDgml0KxalYjVGPJT/OtxIZP85KgfoUiYRFKlM71X19FKgb2qwPEHBB8G689hwf9Ca7XShmg9+77rrLLF68OC3AKioqzC233JLWNZx8wQUXGFy8i714nofT1GPJn7OtNjL+nJeC9Kpm7oQqaXgaRr/ui7wgHdFGC4oAc8890L1rx6KTxjhgXXC/YrKT2bRpk/mf//kfN0RdZgkBtY/JEpA5rEYlMjkEN4hVO1dsvsiL8Ws8iHOS7z47aUwpxBTyfG3nG+ast3f77beb1atXp13vK6+8Egucl87FqJZKobjfg9rH+He2lcj4d24K0rOauRMruw4YNxZbGX7A6nZbkGkoWKOlII0BXGcnUzCgs9zwZ599Zv74xz9mVOuLL75o+NOSGAGkkxSejXZF//kOAVUt+W5KCt8hpDL0QtVLhZ+LfPfAfX0WuzTG2cnwkioGqcxtt91mtmzZYm8X0hFce+21+b51irI993uQwe2JLliUIw32oFQiE+z5y0nvvVIZTVuQE4h9WSlzzYu9GD2VEgGOnQzeKNjJBF1CU11dHRviH/7wBzN//vzYdlMrV111lfn+97/f1GkNjt94441mypQpDfYX0w4XS8l93BXT2IppLEpkimk2sziWSKR2bCgUXjz97QUR+WINBf1Bn0VoirIqpBKPTn7Djq1UbKPcPV0MEplzzz3XPPfcczaVAOkICHiXajnkkEPMsccem+rpsfPatWsXWy/WFXW7DsbMqmopGPOU917aaL8hc+uKmnUhVTHlHf68N+jmmCi+7gWf907kuUGveglpVJALySAJfPe3v/0t7WFs2LDBrF+/Pu0/YtYUc3G/CaKeq9u1v2daJTL+np+C9q62trYyFC4bK18lvdTwt6BTkdPGmVv35Vkq0hgHqFMvBV0q07ZtWzN79mzTu3dvN7SUl7/5zW8Mf1rqI+DuidpIqKr+Ed3yGwIqkfHbjPioP3yFRGojFXSJr5NijITqI7gL1pUbKibath+/5+aC9aFQDTvpUzEY/WZCYgqFu9/b9SZMVW8lv8+WMSqR8f8cFbSH9Q1/J5on/l56L7uCTkCOG7/g6t/bFkrFwDceTtRLY0YPs/ZBxWD0Gz++VLaPPPJIM3z48FROrXfOSy+9lHYU4XoV+HjDGflKkshbfdxN7VodAkpk9FZoEgEMf8PhsmmifuiJZKbU1A9NAhTQE5hLp1L6063jAjqK5neb+xlDZ6dKaH6NwarhW9/6VsYpCtJNhxAUZFzC1NracFVQ+lzK/VTVUinPfopjR8VUWxu6nNMffuZ1vJhSvFJP8ysCzKF7WKNSQjJRqqWYjH5LdQ6zOW5n5Ct1Sm4lm7Ylm9VrXTlAQCUyOQC1GKvkB91t4Di8mMbj4YGKqZRffkGfY+elU0peSo3NGVKZC6/5fUlKZSZMmGDmzp3bGDwJj82cOTPh/qDvdEHwSKIb9LGUSv+VyJTKTDdznF36XzVSUthfTTUYRl4/Xu1lmglpwS7HLsYFvlM1YXQaMPrFTghVW6mpTz/55BPDn5aoUwO/DSlLVBoTnDtCVUvBmauC9RQSEwrVTpXolt0GHn2wzYrsHvgF65Q2nBECSGLULiYxdC4jtvsiT3yW7i1mBNzcizRmbDGPs9jGpkSm2GY0y+NxJIZq+WJ99v7/Ni4PDzYWHn1yllvW6rKNAHYxLnpvqdvFJMKWBKnc43yRuxdaovOKbd+vfvUrm/16165daS3PO++8ooKCZ5lKY4I5pUpkgjlveel1PIlxrteI4e+sGGf7AJkppYd+XoDPQSOQGGxAKJAYFz8lB00FukonlSklgl5WVmYy+QuJb3IxFfccU2lM8GZVbWSCN2d56XEyEuMa5+t1+ao11vPFPfTZp8V/CCiJSX1OuIeJIYL6DTWckz6mXoN/z5w3b55xaQU+++yzWEeXL19u3nnnndh2qiukNXBl0aJFsTo6dOhg+vTp4w4FYslc10lj1FMpEDOmnVQEmkBAvJMqug4YF+EPd+vGyh/uetqed9wZP46QYFKLvxBgTtxcnn/V7/zVOZ/2ZumK1YG/p2+55ZaI/Mztn2TDjqxYsSK27fbnaikqJ5/ObOJueX8jfMAJLloChoCqlgI2Ybnurrz0qsSodzztoIJoSsqC1wuRUfma4auGr38t/kDAK4nB9sOpBv3RO//2grACuKVzTztpo397qz1rLgJujoniq55KzUWzMNeraqkwuPuyVUiMdGwEnUvHjsK58GJICplhuykCRBtacoeAkpjmYYutDDYTqJhYBv1+bteunfne974XUy01D53Grx4wYEDjJ/joqJtjurRy9sQKH3VNu5IGAkpk0gCrmE/NlMSASfQL9hwLD2TGfeEE/eEf1PlWEtP8mXP3NAk1uZ8xjg5SAMhzzjnHbNy40QLRv39/s++++5q//vWvzQemyGpwCVPFwHdUkQ2tpIZTVlKj1cEmRKA5JMZV2K5Na3PaqIF284WqueaFqjl2fdjgfu4UXeYBASUx2QP5qL49rar0g4+WmfcXLguUVKZHjx7mzDPPtH8HH3xw9kApoppcYEgZkhj43ltRREMruaEokSm5Ka8/4GyQGG+NjrggkneB19w+73m6nn0EkBy4L0xUgzd9Jyoly35LpVMjkpjnp84xkBmK3svFMff8VlxMJUmKO2pzzdwvimNkpTmK4goEkMYcduk/ttyY8Mhw2MhSSiRSHjGhclmjlNv/xvSqW7JY4lmvZj1kInZpQiFJqhiuYl+QjMXwTvIa9mYztgi6Z/dSxdCU7MpBEs0zl0EqfF064piOfVOQxliovjopV/euHa07djZ/J4UaUym36+YTDFApBemZXcrz1tjYQ40dLIZjXsIiL+2RMqZy+fMSFNnMelkiJKeKWmsjZZV+/KF448Tk6sXHA8PFZ9CXQNbvMVuh96HMjlzNZW56H5xa+YIn+CP3sSZMDc68Jerp8WfebD3S8FJSA99ECAVvX1ESmS79x41F0lJHXKwXTvzU8EByX1ZICrp37RSTGPTo1tGe7pUgLFu5JlbFspU2qZhx+wgMxwuF7bqgSrFzPSuW3PiB2OSDxLhxgwkJJpEWgDkGwM7LyZ2jy8wQiJd6qXt1ZjimcpX3PlZX9lQQ8+c5HsnltFVzJo70Zy+1V+kiUBRExkldhGGPFQAaEBcePJCWoYOihqeOwKQLVirnO3IDsaG4KKHea0Ph8NJIbW0Eqc3KOfeN9R7L9bqXxJBmIB+eRWACDnzRUlTV1PxZ9jyQbRyfYopA23x0clMD97EzECXOjBLy3OCcq1qRDnvsYnrXzK2szlVbWm9+EQg0kbGSl1BkpNi2XO6FzX35Q1xySVq8bTa2zgMQKY57oTtbBq4Jh0PLhNS8kg9JjZfEFOKrMl7VpPFmGrtrEh/zSmE4Q1VJiXHK1V6vKk/JTK5Qzn693nlTu5js41voGgNHZHgZh8O1I52RqgOQFzNBrPIhYXBtZrqE0PDDipfWSBK2pSZSOzUXpAapVSgUXkyfC0FiHFaM3amaXF8gNH4gnK6Pflxyv2Cn4UhwIefQj/jks09eMpkvqWY+x1dsbSmJKbYZbTiewBCZOmlChQwhpjriYc4LMMgi3mSkRsY5Tb4cKrJlKNx90FWv7q6tPckvL0BeBryYsSly9kqqHmn4A2WPVyQOVirJSoxTPvd6jX91PvKJfHptKYlJD6+gnu17IlNHYCoF4F4OZES6SF+8xrjuWJCXjtQ4t+W6sTSb0LhYMX4hMW6OGK/XdkZf0g6Z6NL75c8eclop2auPUSG3vGSGeVGpYiFno2HbXhIjR9W4tyFERbPHt0QmnsA4u5cgS19SvWscoXESi7rrloiEZmy6Ehq/khgvFozXq24qpbn24uDW4wkMBFTj8Dh0/LV00jLuWSUz/pkbJTH+mYt89MR3RCZehVTKL7UkhCZlCY0jMdxIQTAK5QXutRti7vnKLRUphPvCdz98CExQ7L5cn0ttyW+UecMbhvtV1UyFvwOUxBR+DvLdA18RGW+k2VImMPE3QTyhKSsLL6/dvXtKY67bQSMx3jEnIzRjRp9YdOJ75tarXgMHJTDeu8H/60pm/DNHSmL8Mxf57IkviEydFGaqG7jaAjgk6i8bvPRCoSWR2ogYBE+s9J6JW7rE1LmPfUGQxHj77l3nocTXrvPU4VgxSGniiakbMwSGL3q1tXCIBGvplaipa3b+505JTP4x90uLBSUyXaIuwZUChvVE0gd5arcFL0KvTYlcJeqmWrGfqaz2ksIgkxgvEt4vXrffEZogSWmQNM2YtcCqIdw4WELcITDFZrzuHWOprCuZKcxMe3HXODGFmYNCtlowIuN94QKAxmNI/zbwGoUSg0aCBY8PhUMVkgmtVzF+ETpJhteOBtQgNRQkGX4iNnwhQlyiy2ikZ9tR+Qd5IWBjEOIeuT7rMjUEvL9LPs7UUDs13DI9yxvlWklMpigG+7qCEBmvLQw/dM0Rk/lNlEhaUQqYJiM1IAmxQbpBziyIDSXX6hrXH5d3y6sOsx2Qf8wL/SgFzzs35lJdQl41YWpuZz9OlaSZrHMLt69rzyuRiVclFaPUoFCz7RWtDjzqYPN/v722ZFQVjkSAfby0xjsfTh3FPpd3y6vOiU8WSr2uZJIolPaQuPglVYYbiy7zgwD3j1MBu3tBSWx2sPdKvaRGjRGTHVgDW0veiIxXlcSPWmMuZP+eif8K5KFZiqoLR2ycdASkE0lIsjkDjiRBjJS4ZBPZYNfFvej1SlNVU/Pn06tKksS79zfmvdn81rSGICCQFyLjJTGloPYo5MTz4EQ6o3Et6s8CuFAgexRsV5yUxe6Qf+4c0iZQICeuOMmNV2rjpDq5Vlu5PugyuAjoR0bz5y5OCqOqpOZDWjQ15JzIeEmMulXn777xqppUhZc/3LUlRSAZAhBlp2riHD7qkJoqEU6GWHQ/JJDnmZOqykvri5VzJnZo/Co9WkoIlOVysARlC4Ui42kDV+CrL/1aLpvTuj0IDBvcz27x43cPALfPc5quKgKKQJ4QaNemtVX1du/ayby/cKn54KNlIiFcYN7/aKk5bdTAPPUiWM1gMD3+jodtctkuB3YwLVu2MFu37di7bbcBoU2r5lQFazTa21whkDMiE+TIsrkCO9/1QlxQfzgDWL4I9YGZ71nQ9hSB+ggc1ben/A4HGIjNC1VzhcgsM6hN2so2x7QYi8fXL7nVYgMeSPOfuvcnZsCRB9vn2V6tWvbb+4ABszbXzK5WvBSBnKiWlMT468ZCNHvhNb+3nVIbJX/NjfamtBGIVzeVundTvB1MIuNopzYPh0PLVsy6V5lfaf+E7OizLpFREuO/u8p50iDGRpytkhn/zZH2qDQR8KqbNm760v4+UQXzQi8llRPk5MJrbhcJ1Rx7Izj7oV/++BIrufLeHTzP3l9on2Pt2nQdMGpzzZxK73FdLz0EsiqRURLj7xvIK5lRA2B/z5X2rjQRgMA4VTAIOLd+P0WsztbM8EHldU2nXghMKhnfuXbIWbfYrkheuVtXzp5YYTf0X0kikDUi4/VOKpYcP8V4RyiZKcZZ1TEVGwLxnjqMz5EaYnAFtUBA3NhcmAPG4iQw6XhwuWdZWVnZ8l27It+qmTuhKqi4aL+bh0BWiIySmOZNQr6vdg8A2tUcV/lGX9tTBFJHgBc/ahfiQrniCE2QpDRImnKRMNXZywg2S1bNmVjuMNJlaSHQbCKjJCaYN4x7APBQLNUIwMGcOe11KSLgJBletRM48PulIMnwE7HhYykfCVPBxRObR1MV2Luh9P41m8iIXUwE2NTmIng3j5fMkLjTRa8N3ki0x4pA6SCQjNSAAMSG33EpJUwFD2cvE4mYK2rmTqwsnbtBRwoCzSIyzrgX/aZmsA7mDUXAKcTWOofBnD/tdWkj4EgNKMRLa7zIOHUU+1xqDe+Hizf1BudQrysulYfb53KYse21c3Hns6S9fCZM9bhtL4lEakfWzK2s9vZH14sbgYyJTLcBV1RGTOhy4Fk5+97iRqmIR8fDiCRsPJBUqlbEE61DKwkE+D2j1nFkg0G7yN65AsCRJIhRIROmumSSmkgyVzPt33ozIjJqF+PfCc2kZ2r8mwlqeo0iEAwEnCSF3zmlWBOmMs49KqbwKPViCsb9mY1eZkRknF2MerxkYwr8UYfay/hjHrQXioAikDkCXhWTejFljmPQrkw7sm+dXUw5NhVEXdRSHAiQl4kvmhmzPrJRM9Fva1EEFAFFIEgIECmZqL+iKm/ftmv/3ptq5j4dpP5rXzNDIC0i06X/uLESRfE6mpr5XDR3T2bN6lV+ROBISVg34aGXrb0MGXo1gZ0fZ0n7pAgoAskQgMjgis5zTALldWp94MA5mlgyGVrFsz+czlBC4VAF56NS0lJ8CGCs5+YWVZMWRUARUASChgDPMRwXdu+u7R4K1VYGrf/a3/QRSFkig5eSVD9CVUrpgxykK5DCYBSoySWDNGvaV0VAEfAiAJmJqZi6DQhtWjWnyntc14sLgZQkMl36jy13rtZEgdVS3Aj86daoxA1C4zwdinvEOjpFQBEoJgSiUhn3rgpdwTusmManY6mPQEpEJhQKV3LZmNHDrP6xfhW6VWwIONEssWVUxVRss6vjUQRKAwFsZdAgRCKRnuFQ1CyiNEZeeqNskshg4CuwjACaIGddpf9aUkdgzOjhNjonwbRUKpM6bnqmIqAI+AcBJ10OhctOJv6Zf3qmPckmAk0SGfFSGkuDzgg0m41rXf5FwCuaJY2BFkVAEVAEgoaAky7X1tb2EMPfiqD1X/ubGgKNEhmvNEbjiqQGaDGdhWiW8OOomFQqU0wzq2NRBEoHASddlhGPqHunlc7gS2SkjRIZlcaUyF2QZJheqYzayiQBSXcrAoqArxHwPsfknVbh685q5zJCICmRqdMnWtsYlcZkhG1RXOSkMmorUxTTqYNQBEoSAWf4K4Pv1W3guIqSBKGIB52UyDh9IoGFtJQuAt6vGZXKlO59oCNXBIKMgPc5Zoy6Ywd5LhP1PSGRqfO5t9IYjRuTCLbS2sfXDEWlMqU17zpaRaCYEHBSGXXHLqZZjY4lIZFxPvcqjSm+Cc9kRHzNOK+1Rye/nkkVeo0ioAgoAgVHwLljm1B4lAbJK/h0ZK0DCYmMi+KLtbcWRQAEnFRGvZf0flAEFIGgIsBHmQbJC+rsJe93AyLj3NNwu2XStSgCIOAeAOqKrfeDIqAIBBkBJ5UJhcMSJE9TFwR5Ll3fGxCZcCgykoNqG+Mg0qVDwEnoVL3kENGlIqAIBA0B91FWWxvp4cwogjYG7W99BBoQGadWcqqE+qfrVikj4O4JVS+V8l2gY1cEgo+ASmWCP4feEdQjMs6/nuSQqlbywqTrIOC+ZFAvadoCvScUAUUgqAjwLOM9p1KZoM5g/X7XIzKRiBnJ4aGD+tU/S7cUgToEnHpJpTJ6SygCikCQEXDmE1FbGU0oGeS5bBHXeY3kGweIbtZHwKmX6u8t3a3PVq8r3cHryH2PQOcD9vd9HwvVQSeVeXTyG2IrUztW+lFVqL5ou81DICaRcSnOcU3ToggkQ8CrXlKpTDKUdL8ioAgEAQEnldG4MkGYreR9jBGZcLh2JKfpF3dysPRIFAGnXlLvJb0jFAFFIMgIuA8zjfYb5Fk0JkZkxD5mLEMJsn3MRx99ZGbMmJHWjPz97383q1evTuua+fPnm/fee8988MEHaV3nTp40aZL55S9/af+mT5/udgdmyY+fohKZwEyZdlQRUASSIOCkMpFQeGSSU3S3zxGIERnpZy/66heJzO7du83NN99sXnzxxZQgfOihh8ygQYPM17/+dfPuu++mdA2E4pprrjF9+/Y1d999t1iw16Z03eDBg80xxxxjhg4dmtL58Sc99dRTZvz48fbv9deDF/K/R7eOdkh4L2lRBBQBRSDICPDOsyYVkUgvFxA2yOMpxb5bY9+ofUxtdDJ9gML27dvNJZdcYnjh/7//9//M888/b0466aSkPVu/fr359re/bSA/lLPOOsvMnDnTdO3aNek1X375pfnBD35gj3P9d77zHbN161Zz/fXXJ71GD0QRcOJYl0TSL+RX50cRUAQUgUwQQF3O8ywUMhVyfWUmdaRzTTSicHhkOGzK7XWRSLnEcIuum7p9dcIFe9yYJXVLFtX8C5mIXUqnq2trw1Xsq5k7wS5ZL6ViiQz2MaJa8o005rnnnrMkhomAcJx55plmypQp5rjjjks4Nx06dDD/8z//Y37605/a48uXLzejR482r776qmndunXCa5CILF26NHaMuiEzzSkLFy60Kqem6qiuro6dgorq8ccfj203tnLBBRfIPRtq7JS8HXM/fOxklMjkDXZtSBFQBHKAgJPKCJkRqcxVI7NFCLyEpS68Sbl032o/GAbv3Whp8rkeu0bOt+tCfEbYa6WOUKh2POtdB4xjsURIThUrtZGyymyNhfr8WiyRETTL4Xfdu/ojt9L5559vxo0bZyZOnGhx27RpkznttNNMVVWVOfrooxNiecstt1j7GNRFlFmzZplLL73UPPHEEyYstNdbIEV//OMfY7u6detmnn76abP33nvH9mWyQh0/+clP0rr0wQcfNPylUnbt2mXKyspSOVXPUQQUAUVAEUgRAaTM7uNMSEGFXDYyxUsbnIZ6CklLHXGxZGMPYYmeTi5D9wFI27x7ne2hU927ba5YtnJNrJ1lK6Mqfbdv+ao11l6R7Tp1fy8XoV/GcrmX3BQrsbE0UAZaLSj1euvZ38XAjKFWoJWdO3daexfIiyudO3e2UpbDDjvM7aq3/OKLLwz2K4sWLYrtv//++63aye34/PPPzbHHHmtqamrsrn333dfWOXDgQHdKk0sID+qvtm3bmg0bNsTO/93vfpc2kYld3MQKkhgw8QuR4Ucz5Kxb5AfY0cx87vdN9L54D2scmeKd22IYmcaRSX0W3TONKyKR8KhUJRlO6iKP6LFyaVRKQiV1BfubqMQnGmjWERh3PJtLR26cI8ajk6dblZm3DQkAuDQiIY2R2qycc99Y77GgrjsiI8IpY1bOvtdX41i3bp01qMUbyZUePXqY1157zfTq1cvtqrecO3euvQZ7mYqKCoOkxr38xcXOnH766eaFF16w1yCpefLJJ80555xTr46mNpIRmU8++cR8+OGHTV1u/vznP1tVGSeeccYZKam0OnWS9PMZGhc32aEMTvD+6P1232QwnIwvUSKTMXR6YR4QUCKTHsiPTJpubqiYiP3J/U295K3kRZIsO+mHa4mPu4vOHm49gHNJWlx7TS15ViPFYRlPbMLh0DIhNa8EXVITQh8o4qepfv2y/vjjj80JJ5xgIDWu/P73vzc//vGPLQnYtm2b2x1bTp061bRr187ES1k2b95s3n777dh5rIwaNarettvAA+r22293m/WWjsiw89RTTzX77befeeyxx1K2X7niiitMZWWlrfO3v/2tJVt2I2D/jj/zZivKfPyem2Ni0oANodndVSLTbAi1ghwioEQmPXDdB5pIwJfKB1qDr2Xel3U2peO9NSN1QTUFgfF7YYxIbOJJDWM2kdqpQSQ1MSLDRDzx95t9OQfTpk2zaiZsRFDf3HTTTbafqIUwBs5FOeWUU8xLL71kq0aNBJHq0qWLJSteIuPaxngYCdADDzxgiE3TWEHC9Nlnn9lTysvLDVKmpgp2PS1btmzqtLwev+Dq31uxpRKZvMKujSkCKSOgRCZlqGInuueaCPCvqJk7sZIDdR/8FbI6gm2KUxm5ODTRvcH6n4zUyCimiXqtIlX1WqFH3cJvHkuJABkxYoQ1iN1rr72sN1Kic7K9z6mjqBfyBFGhfdRa3oLtCiorAtxhiIwnVPw53vPj1/Fg4q+pkmqMm6bqyeZxxKa4LM6YtaBkJTLZxFPrUgQUgcIjsMfo11QIgakWjUWl+P/EpDM3Xnu2lb54jXEL3+vMesAYLjqbv+FW9YSkBtWalBFoasR+NhCEpoXfPJaSTceFF17Y4BAeSi52TIODnh24byPNofzXf/1XSjYxBMlzZcmSJXYVyQxSGVcw9r3yyivNnXfeacnM5Zdfbr75zW8apCyNlTVr1hjUXK40dX7Hjh1NixZRBzN3jR+WzssNVq8l9whAmCG0LF2BSPMX75nnjutSEVAE0kPAY9fSi5c5Vzu7lyBLX5pCwZEaxg+huePuZzAdcIRmiUhoxvpVQuO/t2NTaHuOf/WrX/VsJV/1PuRPPvlkq6ZKfnbDI47IoJJ/q3sAAEAASURBVFLq3r17vROwccGzas6cOaZVq1bmW9/6lrnnnnvqnRO/USw2MvHj0u3cIkDAxi8keOMO8V4LSVPQGdSN7du3EzutNvUITnN6AjGieAlTc+rTaxWBoCDgXuCuv6VAYNxY3TIJobGkzq8SmhZicV3OAPwiJsO4F4lFooIB7xFHHJHoUE73OSLTu3fvBga9kJeHH37YRgn+xS9+YXr27Fkv0F6ijm3ZsiW2G5dxb2C+2IEEKxCpAw88MMGRwuxy94yLa1CYXpROqxCLWbPeMbNnz7ZRqBl5y5YtJF3GseZrkpqjffsOzQYDic8WkRZCkvi9KZlpNqRaQUAQQAJxx93ROGSlSGDipykJoRkhyoEHug24YkpTXl3x9eVy23cSGQxmyZuUqHgNcBMdz8U+HuzLli2zVR9yyCEJmyCuzcUXX9xoGoWEF8pOJDr8pVKwFUL6oyV9BHCLJ9nnUUcdZQ4//PD0K/DBFdhtYXT+6rQqg6v/zp07rEpp2LDh5iCRFB5//JBmqyBRwX6y6BOzbu06sfk6xuzfcf9m15kqdJAmYiW52Ex7yUdCG1HfOglRqvVw3q7du8xGifEUqY3YOvjgiC+bJdDmNlEXcwzHAa9dXPy52drmeYI6nGULmc8yH6qMszXWoNSDFObCa/bEwhozepj5061XBqX7Oe+nl9Dg6SRkT9QSocu7DrxypPy+xCA4ahCd84400gAhb8s57qIJsq5lDwKffvqpDX7HnmREZs/ZpbXm7pkg2Mj861//MmPGjDEsg1qssfvZ50gspDNMRyEYvPghHsROeurJJ8z69evsS5J9Gf3JC3areAG+LIlaf/vbX5nJk5+2pCJfUplIpFYy0X9uprz8onlZ/mbPnmV27NiR0nTRR+/fpo2bzPTXXzPTpk01ayS7fbwtHerm99+fb6qmTjHz35tXz2bN2yB1cu3u3RCQ1P9qa6NkxVsX65BPyGjNqlVm48aNscNRgtN0/ZyXr/mIda5IV3hu4aHkSAxeSHhgKolJPOEQGmyECJwLVnIjirrJ3CfqpqpoUMDE1+Vjr+8kMmSV9qqWyJv0wQcfJMUCVUtTDzvvcZJLYqDbWCFB5eTJk+0p3kzajREZogX//Oc/b6zaZh8bMmRIs+vQCoKLAJKJ9u3bm7POPtusXbfWTJr0jFkratgtWzaZN6ZPN3/5859Mea9yya+yxxg4ndFiGkNcprdmvmU+ERUvKtNV8sI966xzTP8B/dOpKu1zeTlDPqqmvmIW1AWVXL5sqTlcVMkHHHBgUmNmXuyQA4gbhAO1LX/bt203H7z/vmBRa/r2O9yOq4skkSX3Gjhy7ntCYJaJl2G3bgdZqQz740nCihXLLeEJeSBlNWpFtGeYbp9bSofN/pID7vDDjzCtRdpD3fxt2LDRzHzrTbP400XmaFEJDht+opVCfSrbNStX7qkwydo+rfcRTI4y5JfLhwQpSTcCvzteCnNnxbhAxIDxA/AQGkK1uOCB0qcR4XDZNAkQOL5Q0hnfERki8fLnyoQJE8zVV1/tNhssEUN7iUqDE+J2pBJ3xutRNG/evFgNjREZgu/FB+CLXagrikCWEECScOhhfc1weQHOEVsZiAySgmXy0n/uuWdN5wM7N3gZ07T3xet5Jzfo1W4hBjWf1VgbnA9EYrFDiE2PHj1zSmRqhVSQT23u3NlCPubHVEubN28yCxZ8KKlA2pl99tmnQV/ZsWnTRrN48WIrdYHUfPnlFmvfAw7EamrZqqWQmK2WHA0IDRIVUmuzdu1aS2yWijfiOiGENTWrJCL3B6Z9u/bWKxHiQdkt6qlVQi7eFmInNMTuS/UfpKWdkM699tpb5uuwWB432W0+//wz217bdm2FzBxjSdgCaf9jiS/VVAGH7dt3mBMkyjcG3lrSR8BrC+Pn+Gnpjyy/V+CyjYcTeD46+Y2ecm/f123guPKVsydW5LcnxkBketEoLEtLFAGMHF3BrsKVPn36uNWkS8TG5557btLjmRxAOuTtUyZ15OIad8/UJSrLRRMp10nwwn/84x9Jz8erjEJKCl58yQqk+Stf+Uqyw77YLyHFTUdJWdHpgANi/eHFCSFAvRQvkEH6wMuaFz1lX5FKtJWXbIuyht8xnAN5oeARhXSHFz+SCtrIdqHeLaLOwi7nlSkvi4pni73X6TMfHW+/9Zbpc/AhpttBBzWQytCfddI3iAYEiL5D9MrLe5tOnQ6wkpq999nbkpA5oqbq2KljbH2LEB5IT0uxj/ngg/fNwgULDBKbkaNONr17H2yHCWFYu3aNJTOo9YjgDbaixEoIQxQdpDpiMC1SIaQ5SNC6dutqiQxjJWRD69ZRorR50xZL2rDRgcht377NSpC2iTRpm3ioEXKhTRtshMhiLDht3mwlSevFc+3wI45UIpNwFpLvRJV0/fiJsdxDxIMpZnfq5Ehk7wjvAFRxLDGUltt0vKiaRspvQFy1K6uz11LjNTV8kjV+vu+OrpQvpnhxcHwnyW6NESHlrrvuMhdccEH8KfW227TZ86VDXiRsK/AUSZbfyXsx0qF0AuJ5r0227vqe7LjuN1b9+M9//rNJKN4XdQN/yQoG1X4mMry8ISX/EenLrHf2pNvoJ+qT7/7X980RRx5hDVzt+OQFyG8DVe1l37zESibYP2ToMHPNNdeazl26ypZ9M9vTETpsESLxj/srRa30kDlMJD9jJZ3GKad8PSckhkb5vWCrwnj4CGgn0pczRXW2csUK8/prr5olS5eYd96eaU5u+zWRcCTwohI8MNRFOgGJa9+hvWBwlCUBYLXPPq2FROwjUo+dlhghwV25aqUQhP2sygqSgMHveml7zZrVdsw9e/ayaputW780G4VgQJB6Sm63c845z+zE/qjuWRIFzfNfKmslEqAvt2w1//n3ZOuNSJJa1FyutGq1lz2HvlH/l1u+lJAOPcTu6Uzpxza7PXv220LOZspYOkg4h7EWe6RKk555RsjRMpE+fW5JmqtTl00j4FUl4ZHEy9cTL6bpCvSMRhGAEA4d1E+I4r029ky+VU0QmSXy1wu26r6wG+2xzw4SLK6pwkPDFZIv8pdqIW7MRRddZP9SvcZ7Hhm7MykuhUEm15byNeeff7754Q9/2AACvOGqxOPr+uuvTygxI3/Xv//97wbX+W0Haonnnp0sRqzTYiqY7pLi4tTTThd103BzoOd+2ykkARIDQbCEpW4wqEyQVEDwvd46VjoiX/3HHHuM2SovzlNO+ZrkORtar85s4bFbCNbGL9YbbNDmzHrHSj46S7DJE04YZvr2Pdx06dxFyMxKq4J57713TVuRkh533PFCQOQjo+73TH/337+jGTBgoJCLXebNN9+Q7U5WlbN40SIrnWnbto2QkrAldztEwrJeJDg7ZXnU0GOF5NUKAWor6p9W5rVXqwwfRUiC3PMCeyE8m5BM0U5PsT/iOIa88R9P7hrsVrbv2Ckqqq4G+z5IkFeCw3lId5C2EBcIqRDbzBt1EicINRZ97tixk01fItmKhUDtNN17dBd1mUjW5Lx0VV3Zmrcg1uMlMapKyt0MQgyxnXGqphYtwreJ3YzJh90MREZLjhDgoVVTU5N27Tz8gmDI57yV+MLxSyGOD1KV+AKmFFz4Ex1/8MEH4y/x3TYvumVLl9mXPy/ZrkJEUA8dP+R481UZV4f99xevn9UimVhvvhCSQIwibDyWilSDF7ArvGCrJLHqyuUrTafOB5gO7TpYN+sOHaKu1kg0eh/cx5KYZLYprq50l4yBCNnY9nzyycfmzRnTrQcP7uO4ew8ZcoIlLahS+/fvX2fDUmPVR/uJ5OUQkRJxzP0+WIcIVC+ptgQEKQYfN9gPoWZqJ3YvHO8qqimkMGACsThKxrjw44/EaLa9Ke/d29rntJI+oeYJCxkRVmElOBggQ2RQCdF3vI24HtUVJJCCofHKlSsMxLGj7Ids7V1n00Psp7Kw1OcpOCj07dvPSovAl+eEi9yN0mr9+i9MSK6xEb2lbcbREjWTSJ1CobBVcanbtgfQRla9JEbdqhsBKkuH4lRN3eXWzovdDESmWv5EIrM2kBKZLOGfs2p4saRb3Es33ev0/OQIEHeFkoqdU/JaCnsEMvK5qBVQfSCx4KWH3cagQYPNwWJH8pkY6c565x0zY8YbdokB8O5d4josEgRUIq4s/vRTc/dd/2fJALY2BJk86aSvmOHDTjTdhFD07z9AXp4heYE3jL3i6shkyX29Y8d2K6l4843p1m18l3gcIb346imnmqOOPtr2CS8kJA6DjjvOukXjybREiAqSqFGnbBWJUX+rgoIAgMmGDV+YDUJQWrRoafYR41rUYxAleeub/fbdTwjHfkJeR1qboikvvyzSGWPaC+mb9+4cc6B4RIEh0ZKxXYF4IL8FW2x0Nm7cYIkMBsCoriZPfsaqqU499QxRYR1pJS5IViaLB9m6tWtEMnaGGTBwkCVMqIQhWhgcQ4IYP/ZN/fodYXqV97b9hQxxzBXGjl1OWPqOZ5IMwh5CBvOFjBNp2gHtDpBr65Mjd70u9yDgkj+yp5QT2+5BJH9rzvbI2c2IEbDJpRFwYCUy6J69X5mNTZH3QcHXKi6lqRS+ljDWy7TQrp8i8WY6jmTXuYi+fldJvv3221ZtwDh46QS1IIUYKC/JQw89VF5+8qqXdxxf6njZPfHEo2Za1VSRviwTe4+19kWazEPPxZhxeGz4YoN4zHxsXnzhBXEHHm5fxgR5pHh/O3ZHhv8gCisksOS8eXPNRwsXWkKG+mTgoKFWNXSQeEaVieRh9qy3rUQJ8nGcBPg7/oQTTAshAlWvvGLWyAv+FSEiK0SixDFe9LhYf/DBfLNK1FDO3mb1mtXi3vypNZj94MP3zTohIJRRktJk+/atZu/Wewth2cuSPIxscWXfKVKi/fbbV6Q3e8dGSEydjeIV1VrsbLDd2SWkMOoluV2MeaO50iAnEKlPRLqDJAf1GBIUVETgjBQFaQtSKFysIVyotCCJSKH2F0LlLZAfPKmw69lfJEvMcbRErIqQZx7SoUSG2u5MXRobH4aEthQlMYW5I5zdDHF65FU4XqIBl+cqGnBgiQwxVaqrq9OeocZcueMrIwFkEFQO8f3W7foI3H333bEdo0aNsvFRTjvttNi+oKwggYAYO3IMKZ//3nvWNuT1118TkjDPBrRLZzzuxcnLE6kHNjXr1603w0880Uo+0rEnS9Yu/V4u8VrefHOGEKaF9qXeU4gLKh3irCCdQH0DOSC43+fiNt1DVIQDRdKECueYY/pbA9sPJZ4UUqb3ZJzEg+klNiu4LL8/f74lDRAHpFKMAeNY2kUVREA8JDPbhw23ZKRjJ1RTLawnVEuR4iDBgWjsL9IpJDKQN/4ggngK4ZbdRmxtnJ0RKiQ8jChcVy1ecJBJ+ox6DkKFV5QlHUhkWrSywe8IvLd8+TJ7He3iebSvSIFw06Zw/pfi7YTdDBKgjmKX43gMx1AXMkZUiC0kNYWWxAioJCYxLoXYi90MRNKSGaIBDxhXvmrOxJHZ7kvs1xC1d+ib7fpLvr5MguTxEP3Vr37le+ycjYyL8OvHDuO6ft9999muQX7fEnfes846y9xxxx3muuuu82OXm+wT9wdRYXEpfuThf5kqkcQgWWiuSpKX8vz574l7+qfmIyEcl172LbG/OcFKPiAFzSnkE1uw4AMrdekn9iEDBg+2diIQGFf3TjHY/XSRpEcQ42Rcy5FcMFaI28hRX7X2J7PFUwsyAGFBMoHaBinK9u0brOSDfYgxIBpIsHjph8WuBGKAXREYEaiO4Rx8cB9LRCCEW77canq32ROvBsLwpXgVcQ0u2rhBO1sV+rl1a5TIQDrAjDGg8sMeB3UUnkpR6YkQGSEduFPjGVWzqsaSHvpHzB76gF0P48SzinmlfuxqIEV0lGPMDYSLOjtITi3UaFoaIqAkpiEmhd7jyMx14tG0QrJpi2SmMtuSmRbyM6kW/euIQg823fYRyfIVlErhC81bUv3KbCwAnre+ZOs83G677bZkh5Pu52EbBCKzfFUUV7+qlogdc8kll9iXF7F9iCHz3//93+Y3v/mN9V76SL7m//d//9e+oJJOhg8P8DKbVlVlKu+71xr+4sbbXBLjhkk9xECZPv11s1p+N5d+81JzsfxBODItvIhxi8YDqk+fQyVeSxerOsGw1hXOwX6G3zR9wGAW4kDhd4Sk5JhjjjWH9OkjRKtaJDQ7RALSywwWT6auEv/lP+JxRoA53JiRVtz793ssifnOd79n24IkILmxdYuaiLpR3yCF+mjhAlH5rLfejC7IHCrILZs2WwkIY8eOBukVxAmJC2SFPqNWIpgdfcQFHvIEEaM9jmNg3EKuxxbptDPOtJGEX321ysatgajFRC4yzu1Sr1ODMQY8tSi2HenfDhkz6+2E+DjjYHuC/rMIKInx740AmfnzrVfGJDNiM1OdTZuZFrWRUJX8Bi+fMWtBoEI0z5o1y+rSETHzFdRY4TgPH8rjjz/eZByZxupK5xgPnV//+tfpXGLP5bogFCeR8WNfKysrzQ033GBfyiSKfOCBB+zLhvngfqioqDB/+9vfbLA3jgWlbBcJwSuvTDGPP/awjb/ibDWy2X9e9qhVUAM9+fSTViJx7nnnWzKRaTtIK4i2i13LOpGAzBBjX6QKhxxyqKiWJK0CBEpIDJIQ7n9s0yQWRaw5R2aYuxaiqoEoIGWB4GBvAvEg1AHpBpCSIMHAfghj2jdnzLBEhOB5kEDr9SR141oddU0PmWPFQ+qQQw+1buk0iopn0+ZN9p7BVg6bHaIIYxCM2oqkmrSBugtpGB9HxJqhn6jmkKrQt1bSX9d3jJr5aaNOInjh3iJJwg7nlZdfMivE64kAfCtWLLPjx87p4X89JGMts+SPcRO/BpzARolM7NawK3gnqU1MfUz8tuUkMzGbmSwaAMdUS34bdFP9wXaFeCG8hM4444ymTi/YcSQAxV66d009Lk+usSBT+emnn26ef/5529TBBx9snpFAYnxRuzJ+/HjrZvuzn/3MPPLII9YwNtN4P67OfCx5yaPGIDDam6IiI7tzLguSmXdFqtVKCMdBB3UXA9vjMyYzXqPWGnn5v/rqNKsaQq3iiAxqFV7UEBk+UJCAOKkM44QQIB1B8uIKxATShVSKlzsSEYgM1yLuwLD/DZEuHXnkUXaeqZ9raCsknllIipD+HHXUMWIz093WQTvUuVkkMtQJeYEs2bZFmsNH0Zo1q4V0rJB8TVG10iGHHiYkTWxaIDJiXEwbSHdQK7GPflFXC2LaiCSGWDD71I2RWDoffbTAjh1yFG1/q3VNp00kR6jMqBPy10buZerTEkXA62Kthr3+viviyYzEmanORpwZkd3WVjF0boYgFB5M55xzjrnsssvs11Qm7s1BGGcQ+ujuGW5OvxSMRV8Q7xsK9wjbkJn48tOf/tT84Q9/sLt5QfDy8HvBIPeJJx4Tm5hXJMHixqx1l7HzwnSSB6QY+8jLkxcvkg6yUN9fOdFGFG5uo2C9YeMX1vMIItZK2qVAMLBVcdLIHRJUjgjGhPnnb+XK5TZHES96VziX/qGOguThYo7UZKPEfoEAIddEnYSRLDY3qINoH6+nDyWHE+Pse1g/S3I6d+lsI+66upF0IWlBorKveDNxexCVFwNc2sJrcvasd6zUCtzwooK0UPBYoh1rlFtWXyW3QeYNexxHkIg8jIqNmDHklGIu+MO4mCB8/HEMyRE2NTZGjcxNEO5Xh2Uul0picoluburmfUF6CEpd0LyxdqMZ/2ISGT/ky0k0Dh4mrswQEfGRRx5pH3huX7z9i9vvl+USSUyXbuGh3ls8Ovxe3D3jJxuZ0aNH2wc/+F166aWNQnjjjTdanE899VSrhmr05AIf5MX8rBguv/rqq1aa4F742egWaotDRaJwcJ8+VvVDnUSW/vDDDwyJFfkNosp9/LFHzY9//BMhCJmrPp0dDBITItZa41xpj/goUduS3VZt9MLz/xFiJa7QMAgp8nqXGDcHyUfM+TbarSMxkJzVEluH38wiiRX0srhn457OdZAJ3LlR8fQWMjvv3blWUvOuLAnGR3A5Rwg6HdDJnHveBdbOhfY2o1ratEHUP3uZtmLoS7GEo1NHUVm1tJ5RxLehXaRVhwl+SEnYxp0b1RdGufGB61BnQZIgP0gJe4g66tzzL7DB9BZXLzaPPfIvK/EZNvREM0RsiugfUZjff3++uIvvsmoxG7DP9kj/oaag8GL00weVzkzjCHjizHSXmFW3duk/tqo5uZlacLG4RE2TZkfAbv12M3z44YcxRBB18+cKtg+8hPxaeAgRaTbdgljb78VJY/wU1ddhlo6nGCkN/F4gMe/Ne1fC6L9qpQm8oLNR+LonLg0B5ggUiHoNWxAKRqxEAMYgGskDXkzkEBs+/ESJNXNiTHKSbj/w9tksEhMKhADVEr8TMnhjF+I8lVD9eD9ioDPEVSGgHAX35jlCruYJLsSMsS98iQ3TurXkVRJ8dguRsCoeefmjEsONmwB7EChsXywRFD5GXBgkNSTGxKuI/dSFvc4mUS1hTwNOFOaB/kKoPvn4YyFea229J0juKux1KFxPMD5izmAP5A1cR73givfRvkJi2oi6qLUQGv4o9AsvKSQ/3eW5gcqNwlijWc7FvkfsY1StZGGxsWJYI+2AezFGj+j/ICDAnGFnGc2cHa6UPo/MtN8xiUymFeTyOnKf4GkSXxCDoxrA/sTr+RB/XlC3sdvwFr7e/Fr8JI1pDkbYO1B42fitoE6ZMuUVsceQODGiSslG4YXc/9gB5qKLL7ZRfaPB1+qPHcK0fPkyiVo7yTz5+GNmiUgMnnnmaXOYuE9j85IJVtvFUNYRFNQ2qFMoGL8iyUCigYSoX7/DrfrFO9ZDJEgf6iAKqrU5c+eYdyTzNf1E6tKnzyGmn8SlwX5lp6imCD7HuAYOHGylH4MHHyduzS1E1bRO2olKlfBamic2KtjVoDKCiPDH9pdfbrbkzvWRdpHQoO6prV1o+9dFAuAR74baQI/+oyIjH1P7/YXIlNV/xG7YsNGqwrp3725j21AnheuiarItksyyfiBOojMjeWac1lBZ7WNsckJn3Et+Hy3BRAAyw0exSPdHiCdTRaaeTPZXJs/uKvntjnh08uu+ksjgGsuXkrcMHDjQxgU55phjvLsDt15VVWUIuIdonS8+jBshaHwFL5TIp64cILp99/B2+/ywxMuN4jcJXirYYFz5xz/+0b4UeDGQD+ull16KjmfYsFSqyNs5vFTJBE3U3hqJnZKNAgEZcvwJ5gc/vE5e/Ifbew9pQ3zBjoPMzBeLC3u3g7qZP4pN0cviYTNgwCBzzrnnCOGQcP5pEr+tInHAjoX2yJ3EPc8LmjQK/NYZ7wGSNuDbY6+w6hdvnzgXIkHBuJdYK6h9NouqBvfmwSJ5gcysEPKFPcle0sZBBx1k+gopotDfAYMGmYi0Z4mH9H3x4k8tQUO1xUcR/cKYF7sbpEcQpHbEppFCPyEiBNijn0hGqH9f+e1CYtiHFxKqI6RC7SWHFa7XrnCcSMGQJH7vRBJ2xbp0i3SotnaXVbm1l0zfFK7hWDQ9AURGJTK8+OQr3uKDca+W4CLAhzCZyJ0nU6bGv5bIyG++mueRCznvF1h+8IMfmHvuucfqznlgYtNADBAesEEvEBgMl/lrrGCw6seyR7XkH4+lVHHi6/cf//hHg9MHyUvucHmx+628POUliXey2LrfZqNvJGccc/FFIvXoZ0lyY2SE3xoSCGLAjLnoYsnR9DfzzwcqRd2x2YwadbK1McJNmhcuxS2T9XObkANUKKhPIJGu1IpqaZ24LWM301HsVTjWmCTygAM6i1r5NCFDrc3r01+30g0IEP1FrcOYOog0ZsSIUWLvs8q8/trr1sbEtUc/UaXtJ79D7gd+j0iCKBARVNicg8cQcVsgMXxkvPTi8/KbXWnTERDU7mNRMaF2I9Em9UBUUJNBbDDS9T6rrHfVli9tXfvJxwtB9lzZIVI31GnIdVC5tZXgfBT6gAoL+xgKQfJKXbXk7GLurBgXyA8pO5H6L4aAM/4lL1Om9jJ1jADPpbDVV8Vq98FKN8nuS3j5a6+91tx///02IqsPupWVLmDfwxdm1E20YZU8rC666CJz6623Njzogz1OrOsXiQzBCzH0TUVSB1n57W9/a18ovKAoX/nKV0TFcpIPkK3fBaQUM6ZPt2S+/pH0t3i5o845TdzTkcjwMk2lcC92liSVIyW9w/TXXzNvSAwYDGXx3MHIlWNIRIil0lSMk62olsRGBulHG6dWEgKApGbLlk1WyoJnEEkTGytIMVH54LZMfJW9xTYGYoBdDLFYICVIZ/oKWSPWy8yZb1rJhqsTgnDkEUea7pIqAQ8p3LD3EukLGGErg3qI3ydB6SAjpEbAjfsDMYBGXXW0qIaWS16rZSL9mT79NSEtncRLqYPEnyE4oUh8pH7sZhzpoF5UXdi7QHiwkfHiTzA8pC6ch50SfaFYIiMxa7iGdbJ1uzrdWEppSdA7CnYxF509vJSGXtRjba69jCUyzuAXPRVf2n55OTFzF154oX1Bua+lTGbzyiuvtDEfuBZy1Nzyox/9yMakSPTFSDj1P//5z9YOgIdSssKD/J133rFBtXhA8cf5/PEAJWkf4mc/FieN4WHiFxuZM8880/CXSkFdcMstt6RyakHP4V4gweKCBQuyYhtDfdz/o0efbV2D0xkcL/Py8t7iNXSeEBnJri0GwO+KazsuxkdL1uqjRNV7lEglMBzGboR7OFFB9YKBLR5JuBhz3/OSxptnh4T1J7aKTSEgMV6aKqhhsLdBekJwORmejZj7/vz3xdNnH0mB0NeSAmyM+C15nyG0ub+QD67lODFf+E3SH1SNn6/+zNrVdBDjWty335I8UQQiJJjd0GHDrYSKDN7PPvusBPd7QzypelkjaLJX7yZOjNQfr6yzqRCkPeZhP6nH+/tGIgPRgaQQJ4dzKNSzbn00kB/7IH+lSmQemTQ9FvRO7WKa+nUE7zhkpk5lOEJUTGPTiS8T09HI77dSfie+s5NhOrwPoEymhwiu2SyNRetFx06gvlRKKtKDVOrJ9zlBto/JN1bNaY8XF3mU1q5dY1+wzamLayEjX//6qVZ6kOhlSHv8ybNASpRcs+YK7sKDxfMHT7xqMfzdLikFcH0mGeRccWkm9swpX/ua+d73f2htR9x13iVeOZCPdmID0qG95BKSgqsyofkJEicdkGN4MsXTAG8t0XW8ilDH8JsjczbB6Z57brL1DEIdhsqLYH59xTiZqLsQWG8hhsuzkydZIoMqCzUSkZPxgiKbdvcePaxUhXQNL4sNFbZqo0efYwaJ0TBB6YadeJKoybaY5//znHnu2Uk2+WVZmTxSxZAYAkKuJoyYccEG1/VCiCBOBNhDGkO/XQFLCBPzgrcT51MgVmvXRIlMe8EFGyF3zF1bKss77n7GDhWVkpbiQ4CPYub2hoqJBKuskBFWpjrKPb+kuivc13aqFeh5pYcAX0YUP0X0LcZZwC14/vx59uWXjfFBZIbiKpxA0seL9+OPP5KX8r/FzXqajSMT/8K0L1mRwBwhsZxcLBNUcxCT1aJmwnYESQjtxBfqihrRbhLisM3sJTYyqEkoqFc/EykIfSBeDMHreMlzTWN/G0UVgzszklGC4S0X9Q8E5tj+A6TOHbZfG8RmhZg0uFMT7wXj5R6iTuIPyc8XIgWhP9ZeR0jDO2/PtN5h9InzkTht+GKDNYo+W6RRSJysW7VInHDpHirG4V//+mnWuBh1GCoqpFGM5QNRaaEyczh+sf4LUT1tFhXYflZS5PaDAUkmaQfjYCRFrlDPOiGyLCFSjhR5r3XnFvPy+vH34tmiKqVinmQZG+pCJP3C4HuRXDLV4XqeOFE7GfkCsAb9qVag55UeAi4Qnuqoczv31dXVYpuxrJ5tR3NaRBJwmKhbsJOJLysl188UCSY3U9yZ24q04GsiuRkxcqR94XrPRTp6xBFHiNHrCyZqfho9St3YfR0nEhtvOggkMBAy1DeQBgJEQn5wdd4oBGjpkqXidr3GkigePdiX4IZM9F0Mf5OXiFUjfS6B+7ApQTWE3cwJQ4ciTBK7mPel7mozX1zWp1ZNiUV3hnQhxSEeDZ5Jq2yOo+1CfHaZjyVI3gxRF4E7hrqHHdbXGgQTw4VcTMccc2w9lRmEBTsciFStqJNQCWE0fIDklKIdspOT0BIboq6i0sPtG4Nf7IgwKGZukRKxTaBAJDKQwE5CZBxRAZOoO3etxYz+QgjFKNJmA3deXMlxCv6RulgjdiCoH7QUNwJ/unWcGXLWLXwsfbVL/6tG1sydUNXUiGNExtnJrKhZ5zs7maYGocfzh4CTxljWnL9m02qJtBV//etfzdlnn20GDRqU1rV+Onn2O7Os7Ug2+sSLsWMnCYMvBrFelYar+5UpU8xDDz5gX+IQCELpk10a+xdv4eXdq7y3vGj3kAykK4cddqj50Y03WbWLV+LzmbiMz5bAdXgOES2YQHKUNSJlQPLTSnIYYVxLpnKkDhAebE+s/Zn0OVmBCC1atMhGHsae7HAhV/36HS6kprVZ8MGHViUzS4gEyRjxAkK1BMFZJGSF+DPbIUvi1o6KDGKF0TDEw3okSbsQFyQ7B4gH1YF4Q8m4E0ma2Ifk5uJLLrWkBJwHDhho65k//z0b06Z374PNN8ZcZAmUU62R9mGJEK3evXtLBN9hEggv6rWE59X+HffE6IHIbN68yWIDfi+99KIlbBDKU0873SbJTIZRsey/fvxEO5Qxo4f5yn6zWPD12zhQMRGpWbyYusvPqUL6N7KpPsaIDCfKb6ZSLvSlnUxTA9Hj+UHg0clRtdKY0f71GPj73/9ufvnLX9pw/lOnTm0ADF/iLh9Tg4Oyg2Bvo8RDp9Bl3nsEastOlGdesKhE4kPmuzES3h8JAUSCsmzpErEVWdSAyKBeai/2JFJdrAwZeoL57ne+Z/rLCxz1h5MmcMLypUvN22+9aV2XqRu7EUjIOpFyzHzzLXTh4nW0w0ooeGkjjXnnnbcTkq1Yg7LCudibQKxIrYAdDOODpHUSg3ukJ29Ju9ioDB063EpJRGtl1T1IXbZKviNIBfFoIDKffPyJVUcR2wViMWLkKFEd4T7dUuxWojYu3va962DijfV00oiR1g17qhgHE16BOTx9y1lWUgXxwRNt67Z3LcECqyFDhlqpFf2h/6jHXLGSF5HQEFuK+DOQLdrDqeDEk77iTivapdfAl3gjWkoDAd4vzD0OSKlIZeoRGbFSq8INe7p4LmlRBBIh4De360R9xNgaz7GqqiqbBfu0006rd9rixYutN1y9nZ6N/vI1joSgkIUXNUanBGXLVsErx0tAvPWKsIIPmVhhnT7EF/a5/bxQBw0abM4//0Kr0sF4FrLgLcRpOVjUL8RiyXbBwJeX/kCRuu0vrs/0h4LtC0QEF2ckKcOHnRizCyLA5OES/Rf1THxpAUEQNRDSmF69egtJamVP8RKz+Gvctvcc1EmkcYDc4AHFsTai+jrqqKMteVpH4D+5EKh6iaSo1V6trL0NfYagWHuduomCSGHXhDoQAkhhWiBZeFAVe3EfTmrgW+wzXX98UanMOVHD31BtpRwtr39G/a16RCamXhIWhHGVMuD6YJX6lvMaQMTrF7dr5oQovfPmzas3Pc5D5Xe/+515+OGHY8f4gndeZYj1L5Gota68+eab4mL7Sj07CHcs30tetJ9//pm8vHZmrWmCqiXgJrb+XuW9xEtHYqOIVAapAOqSrl0bhipA/YNEC2PfHuLVc+E3xpgzzxpt3aYTdRS1CmSDWC/ZLkg3eOljHxMu26PqgsAcP+QEm0pBdDJWQsOYIGD9Bwwwhx7WN5azydsnCAX2KqjGvKoz7zmprENcIEtIifDqwq38ACEoPcTbC08o8IuIZxPSKGLhEHEYqdI32l9kPTRt+3UNMUa8o/oceqhguMcqiUSSXslNKv0K2jleaYza4wVt9prfX8LAkMtPpDK9mpLK1CMyNC2/9Ur5HVo7meZ3RWsoJgScR9vQQf18NSzURC+++GLCPiGV8RYvkSEw3q9+9avY4a+J6zDlggsuiO0rxAovXKK5bpUXIMQhG4U6vxCvGJd0Mb7OU075usFwdsqUl0V11N7G5Im3j+Ea1DBrJUAbtjbXfue/LInxqlXi68Xwlxezk+LEH2/ONoQBgsJffGGeMdiluOOcz8sfN+ZEheNIdVg2t7h+YfPC2CEk1EtkXsiS7JJt+lZm++fSlHBOfPuMBVLpxZBznASquX316/UqjfHrzOSnX3FSmQppdWSylhsQGadewjPFb8Hxkg1C9+ceATwHnFrJb19HTz31lI18O378eGsnQTJRb8FeBluZ22+/3Rwv+XiWit1GfEGV9LJ47WBkevXVV8cfzus25IWouWRwzlbhJbhmzWrrOUTCSPdyd/V36dLZ4F48QOxciCp7CN44Cdy0UW/gXXO+kL1RJ58cs0tx9cQvaaepF673BR1/fabbyV709KWp/qTSZjzZ4BrvONxxSIh3f7TtqArM244jPt59bp26IEKlVHj3+PV5U0rzUOixeqQyjdrKNPh1oF4S/+37RfB5ud+SSBYa1FJu330dYU3ut8IX/zrxfHnwwQetBOPyyy+PGaniunrffffZaLKcY+0PEgwAkkMZO3asfLVHA7UlOC0vuyzpWB3NdpzNBskYTW6gbgcd1CA4HOqNI4880v411iZ2JL3Em6nPoYeIfUd5A+lB/LUY7xLDhbguiQo2IG3EjsapAhOd47d9UVfpL2L5j+gfRKSjxJWBqGBATKoCSB8EhDQH2CdpSR0Bp8b24/Mm9VHomc1FIFWpTAMiQ8MSYbNCvgIud6qE5nZGrw8+AiT0ovhNreSQ7S65b2666SarKrrqqqvMjBkz7MsFgkJIfNRG5K5KVKolbsijjz5qbWP8kLoAIkPOINQ42SxkZH799dckOu/gjIkDqqIzzzrLtLSGw02rYDBs/VS8n0hBgKQpEmFMdWoRkTRAQkm46CciQz+RgjipSvwcECOG9Aw7JJAeqiFKi5ZiyyIGvrh6EwNnxYrl1lsJA2jsclq0iAb/i5eExdfNnDP/EKL49tkfkXg1oRDH4q8snm2v9FfjxhTPvGY6Ek/KpKRSmYbKZWkNqYwspqFewuhXS2kj4L6OiB3jual8B8pPf/pTMVI9yMbrwO0V9cxf/vIXa0DZWJqKO++805KGb3/729aLpNADyxmREQnBC8//29SsqsmYJBFjJln03kS48TIm5gkJFEX5YiVnxEWhDoLoob6KelP5480M9vQPV+d4IuHGh5SpRqIY4y4NEWNsLMMSW+dT8TSbNett86nEuFkpZGb58qU2ai/kJxpFOOre7uryLpFaof7D9T0RiYVgIWEk6rB0s2iLe96oNKZopzitgSGVcV5r4dDusYkuTiiR4cRIJFwRCtVOValMIthKa58LgufHryO8lYZJmHhXiC3Ci5GEgYj2XVwUXKpdue6669yqXSKNoXC+Hwpf3UgyeHFls1AfQeD+I7mBSAPQuXPnjKpP9oJPVBlqI7ybdu3abTNI48Wzr3gZ4ZLNix9JRisJqAcpQArhbEEgFK4d+s3cEM+lzOOdRHucxzGWXM+fK7t3c91Ou6+peonXQh30Y6lEHybCcHn5wVYt5OpjSV9I8Ajp6Nipp+l9cB/bT7ymyBX16aefmG1CdPqIF9LeIo3ZvXunSK9aCrEhTs1Oc8ghh1pi563TrdP2MrHf2iJEimCE8YUUDJCjY/oPFMxaxh8umu26xIHGz7GqigbsgAwk9gEdCo9K1OWkRIawwF0HjEMqMwKG7MeXWKIB6b7sIsDcI5nDDS52M2W3iWbVhsfMkCFD0qqjU6c9uWy48IknnjCnn366uf/++22kVYyGC1l4IWLPk+irvLn9os7nnp0sMU2OsQHViITrCIOr+0vR/mzfHTH7lIXM3nt4gdkpvGrN9lojig1zwD6ienEXNLLEGwd1FOeSF4m28BrqKS/q3bsle7UkXUTKgN0JZKOduCOTUDHqoiwZpIWYYGNDID0ID0HvnBrK2aLYoHZCMFoLccAjiKB/XE8gOlcvqQPaiKcVRBcMIDykCSAbN/ViO0XOpfXr1ttAgBDgsrKWprcQLdRDDiOIDOdxPakHcKd2x5C6IKkh/swhhx5mY9IgvcGuaI1Em94t5GjnznJLhLZu22rJHbFwAAcStVNc7rmevFE7hChF24HoSfRjUTV+/PFHZuXKlVJvV9uunyRZjdwCaR1yH008b/wU4iGtQejJWUeAewGNgBiA90zkip2UyNAT+W1VynNnBDeXEpmsz00gKnQPFr/GFOLLd4qE10+nkCXZW5Do4L596qmnmoqKCivNufjii72n5HWdGCNEf80FkWEgn0gU34n3TZDw9t0ktP+R8uKt/xhY/mWtWbR5tzl4vzJz8L7idSQvWnkOmLU7Iubx5TtMmxYh881ee5lWCRXTDaHiRc+Lmtg4LPEMk4UQm43mvXlzJGHkZzavErFmiKdy3PFDTPXiT+3LG/JBWoGoqicsUXeHmvLevaWunXZ/1P5mo5WG7C+uzUcdfawkbuwgNiyzbTA6JDg75VyuIWLvEklJQDZxiA3RjG1MHLFzGTR4sG2P4xASyocfzLdZtQ8V6Z6T9CD9+VKiArMNoYLYMD7+iCLMNsRqjRhrdxTCDNFGenOQ2HCRXRuS9pnEB6LtTZKDCpUU8yzWL0J++tokk5C/z2pW2SSSxJnpIgH23prxhpCYFUJydpppVa/YXFjdDuoe61dD1IO5Z8asBbbj+r4J5vzlstdI6PBkq1MvVXnbqv8E8x6R9Zq5EytFKjMWqQwvNL+53cZ1VzezjIDfpTHe4c6fP9+Gwffui1/npXLSSSfF77bbSHV+/etfm+9973vWy6mgREbe8qhgckVkUHG8Jyq5u+/+P/ODH1xnE0l6jVCXCol5Ztl2s59ICw5rFzb9O7YwhwmpWbRpl5m6cpfpItKY87q3EiKDnCW1gmQE1QleStjF8BL/aMGHZqOQmaOPPdZmw/5ECAuGsn37HWFdvJfLOmqpI4RsrV6z2qpniJTbVqQuKyRw35Il1TbvUB9R1yD1QB0Eafho4YdCAtbbJJa09emiT63x7UYx+sZzizYiYkvVV3IzIflatOhjIT2rJDN2T0u0IBnt2reTwHn9bDA9SIorBBWEqCDZIV3AQhkDqqM+hxxmo/N26dLNqtAWLHjfSnyOFTXQJsnAvXRpteEYKaqI2EwiTSRIm0QqtF5I64EHdhHBTMjighHx7FmbRXKzQ+xvWltp0UHSN+y+2rffX/rZ3QbS886Z61/Ql06t5Efpb9CxDXr/3T0hdnonx4+lUSLDyfJMtVIZXmpKZOLhK+5tv0tjvOhDQv71r395dzVY56WYKIaMOxHycsMNN4hnz+tWeoDovhAFuw6CzuWKyDAmEjVWTX1FXub97EvbG8WX9/aabREz9cudpu+WsFm9VdIltNltlmyuNe9u2W027AqZJbI8ur0EeUsRoO3yUuYFjbcTxr+omZYsWSwShRamRZhgcdHAdng3bRO1C+qkbUIY2ouUpVyiA+8lkWyxXdkqRrirJXDfsmVLbHC/Hj162iSWSEhQJSHJWCJeaLtFMgJpCouHD+ob6rOu4EJAkO60k6B/1IuEBONa2mwnKq+du3ZYux0C55WX9zZ7i1u6l8js2g2R2Wo94rCLQUXEPKE2wm6F7OLY26ySfkDMsHXBeNhKaDp2MmTS5m//jh1FPdTT2rx8LuQMMoQ0B5KJFIqM3ju2r7NBCpFkkfaAMRIaAOK2XxtR13kIVorT4OvTeMdQ/BY53NeglVDnPOqlHhIipnLlnPvGuuE3SWS8UhlNW+BgK/4lc41tjN89leJn4uabb5YXUHn8bpE8/KDBvvgdvCSIpUJwvPfff1+Cww2IPyUv27yQ+WLnxZbLgvrqyScetzmAiEDrDGK77hsyh7UNm3c27TYLhLD8f/auBF6m8v2/c+17i7JzbWm3RkSuqJAtRGlxbe39qaQ9l35tKrST7VJatKKFUq4iIVurIi7ZKkohRHf+z/ed+5z7ztyZubPPmZnn8Rlned/zLs977jnf86wbSdVUml7OxaEAoS+bfWQTveqP/9SZlQBAAhshQMxhsjtBtuuSJUpozzJ48YDnubmbdbsHKfYKAAv6gE0MgAjWElIVqGWgJsIYMW5IcurVq08Sm9quTNk0DEgodhHPIGWB6ghqIhigAGwgyB8IdjFwma5bt74qQxK60gQycB36Kl68mJaCQOoCuxj8AEpM+o+Mlo+QZAlpEZo2ba7XCNdDjQRQBtuYCqQOOvLFUp0B+48/92pJFOyB0N4fpNaiz0MNYmD4C3UagBQyiB+hcWJ+dWjOSKPwHUkZN2z4XqcyQJwf8AXzAs/QV7IRO5bYNcRDsvE7EefD6iVyBcgwxx/QXwN5UWTSF9OWZas2OOlmc7CIx2xI9pOHA3igsIg30XTVkKp4AyCIMVMU4UUB+xEQbBfiQRiDyz4muiCG5wY1yjoCbkhoiISFoFqlSZVU7hhBgKPqGNmyHKMxHUFuICrD7yAZAq/ac0xdkw6JR9GGMpAcHKZ0C4cpAWap0mRbg5c2QA1JZ6pVr6GqVK1GrRJI0vmH0rT6BNmpyxCoAcDA9QAPiINThly2YQQLYIBEivhpojpQLUF6UbxEMVWNVEc1yIbE1a7Lxud4krJAJVS2bBltF1SMroGxL9rCeiMKL6QtNF0tNfIEMegH0hf0UaFiBVLx1NKSH/AERsmQ9ECachIFxoOEC7mywJ9/yKA5j+YGkAJDXriwQyqFfnENCN5bAG8ALMjJBB7R8Oh6hwZAh2mcsKPBOCGZSUaSSL7JuKqRnRNjD/obwp+dRUU/hagq4srQ39OYHbv/cLD4z2pBdpKOA7zGiOPAN07STZImhJcWVFJTp05Vr7/+uupGgd5g6AkPFmQljgcByMBeA4ajsSCoMmB3AkkFUxn6vKlStphqYLgslaQHQIOyaardCcVVaTL23XEwT2056CQjW77K/xbgA3YyAC9Qi7gkJA6SgBzRL/Xy5SpowAJpCF7wAAtlSb3CdiDa24jK8CKHASw8g+AJtGP7Lxr47SZDWKjjABCUs6BduHoDEABAAKFgDGgDYAJ0kIAEDHhhrwIVlMtbqZgep7cZQbUEnpUhCVEJACmaD9RlaAMGxuvWrtFSFMQw0t5QZM+DPmFQXZJACiQpiPoLY+ZvyU4J7vAAOABRmCMADexgcB9AMueSRBXXUiXkyYK0CS7a4FsyUYE0plEyTUvmEmEOsHqJ/ha09xI3H5BEBpVJzJ3tSCuWSai5jhj+MvuSb4u15S+jRJPGBLsaeIHA1RovIZMQ3ZddfM3zsdjHC2zjTxu1d0os+kMfsMkx7XEIp6iTy6Sp+hXS1M+HXYDqpBIO1ZqMfhtULK6qljyq/qXTB4ENtIymaDRzlDI3Q6LAKhuARXgXHSAAhZczVE6HDlEMINrCXqUYqXkAWNgOxOWKXIxi0JA6iEDEHjKG/ovUb1sIEMCdG8APdi9Q60D1AkkHt4t9rDXagOSkQoVKFkCCQS3AEoLagfdQ58EoHAH7vJFOukn8QTA/LbqhSrgOKqIdO3aSBGWXBiUwbK5B0ibMAfOGzQskTHAfh6Tmjz/2uNzKCbwADOF+gzEyABX2YVcDUFWR5lScVGoYI8DfX2Ss/DsBOEixLGmUt4Em2Dn2VkrmD6dIL8nHH3+s1lGEaQBzOCmYhECgUN2effbZqlevXmaR2z6cJGAT2L59e8rYfppbmV0PWL1kei8FDGQglanaZHAWfd3MwBc7bjjx87frUoc+rluzpuuL33xxVOiNxPHKrKwsdRIFe/MkSF88CV/B119/PXmt/KylMzCovPTSS9Vll13mWTUmx3ghIpjaqpUrtEQiJp1SJ/DQgYTBpKoEZE4lT6VFe46SbYxS6WWKqd61SqmGZDvTtVpxlXsoT9UhCY3DUTSIQbtQh+CljjgvABVQv5x51tlq448b1KaNP+lyZN2GjQkkMsgSXZkMYlkiA2kJVEMVSHJTmVRgAA4IPocs4YixcjyBl5OrVtUZr886u7H66af8dkkCDQlH/YYN1RGSjOh26f7gwHoANgBUUAmB/2UILJQseTLZwCAScWGijzkNlirRPEwC4AJwQUJNSL2rkmrplFNO0aCkbNny2qamNElwatdJ13OC91Rxuv8gGYIUCv3/TecghQKvYPwMgHM8gTSAOhgf4/4E8AIY1PFnzAEk+D47Foh9TOAL+dJLLyn8EM7AE8g8+OCDFCV6j+rdu7dfIINo6O+9957u9NFHH1V2SNFSFAcYd5h2MgEDGTTubvg7Xb01JTFfdkUxKlXL+wwbp6eeaAa+5nrNm+fKCWWe87f/zDPP+CuOaRlUFgsWLlDffPM1qS/cpUTRGghUNHXT6+mXudlHZXLYqksxZMpTEJkT6dfyJIopQxIaBMkrRb9T6FeafiScKJIAEJCo8rjjj9MPXRxDmlCLbEwAbCARgvUNpDHwIkKbrVq11lIStgeBezNckAEgcA42KEjGCBUUCTz0Sx/SGrz8a1C7kM4c+6+g3XIUlA8Ao2XLc/UXLLdbr159DRAAohBID3F1MABIULwRpD3nnNNSz4ONsQFiIC0546yzdMwaXAdbILQBIHYmnYetSxqpleAefjJFVIaNDdzAIXmpStIVAB94TaEe+AOpTLNmLbQ3k/a+IlVfExgXk+QJEYOTSRoDfsGxAGQHiQzUgpMnT9bjCeY/2Oe9//77pFp0xcIJ5lpfdTt06KA6d+6sFi9eXKgKPsBA+Eh799133coRHwm0lTz9PMsgwbnooovoOfONHi/q4e/mqquuwq7tqVb1E3mMdXgnKCCDi2D4S1b/S0j9UBuSmWRXPzCjkn2LtWSV0sQxgxN2unPnztXiVM8JNGpkf9071DtIRvgH2XogTUG0CfYkCDB32mmn6xen2R/ASlUCMo0rkjqHAEDbk4qrctA5EcG6pHz+vj4RwH9Q1+DHhBc8vJHw80Yn04vcJIAW/Jig+vGl/sGDGj9vdHIVj3bJCwieQEyQ7Pgj8AweXp4EYARpjzeCNAVgByql7dt/0YbLeZQ+AZ5pAFAw7sV48WUNApCB1AppJJjQ/onkvp2MZDf7GACEBx54IGhWQwKHdCdIWBspgtobEmZIiv2Rr/LVq1cXuhaRtmELCAkM7jXQ1VdfrfPU+evDLmVsJ4P3FUf5DRrIuFRMQweSSHnxa3OXOkkUKF5MdlnhEMeBBwlnt4ZKiUV3ITYXl8vOoq/eXym+yJlnnqnS09MLjeGSSy6xXlh4YQDY1KYXiN0ILzBEgUXQtagRvVRLUD8n0Iux72X9SJ3TUEs5PPuDeqndySVUScIvTY5HYgKhcDgAFRIMlBFHBqotqNrqkkSIA/GF03YiXyv2Mf5XD/ZkiGDuSdtJogc7KpBnOUtroD73fM5BCrqZgjLCwYFp2rRp6o033uBDn9sFCxao1q1b+yyPVYGnnUzIz6bqzQZnEZgbjZwYUDEl4ssvVky3ez8tLxmlRbvwUhIJW3Cr9evvfwR3gZ/ayLH0O321wx16P4mGYSQacaIm8XVfmUBM9RrVyeW6iioPFQi9WD3pXxIK/UOu1nhIVCJjX6HwOICvawTmgxcT7GOgSoPHE9R7hC2jQlVO8i4likpnITaKmFUI94AMx3YIugojWeRf80dYS9jXMeEDBJIYSBqhmvJFAwYMIJuuP3XxlVdeWaQ6p169etrWymxvxYoV6u2331ZTpkzRbbGExayDUAowCu+By1l3AABAAElEQVTTp4968803zSIthenatasCKAmWkA7mggsuCPayiNeHTRXsOUkROxOB8YKWyPCItBeTIy2DdJvtR4wWexnmS6JtYRcD/TTsYgTExHf1YB8BYNGCbDBgS5Ev9Y34oHRsEoqlAiNUBIHzRcilFEwaAl/tyHkXB/CygxoLgBVrwC7gqc4fVi3ZwT4GawGJxZAhQ/wuy/Dhw93KJ0yYoFpQvi5/BPADl3omgAzYvwRDUD9fd911av369foyGPk2a9bMTbqCgnvuuUdLayDNYclL9+7dtQoTHk0miIEn3f333+82DBgAf/rpp/ocxgibGtDpp5+ut/H+j+8VNvgNGci4VEyZYi8T7xUNo398CSWDXUwYLLDdpbClOJG8dYSSkwMAL76hY3LOuahZsaGvHaX6AB6ICg5JSseOHfVUoIYBGGACsLj55pv50Of2xx9/tFRBqNSyZUufdX0VQArDIAZ1nnvuOV9VC53/8ssvtR2Wp2cSDIPhqYkcXkyfffYZ76oxY8aENFargejuaIPfkIEMxmbay7CNhXzVR3fVItU6voI4em+i2sVEihfSjnBAOBAfDrA0BiYKdiMEKITX0KpVq9TLL7+sc7lBZXPjjTdaQ83IyFCBej6aAASZ52uQJ18wtHPnTktyAsN5Blb+2vjqq68oa/pOXQXSwH79+rmBKRTAW3L8+PH6h2NEFv/ggw+wqxo0aGBLEAPQi3sGIBgGv2EBGUx097qpORRfZhB9SFJ8mXnUeGVb6DkxNiHvHMDDo++143QhQAyL6bzXlrPCAeGAcCC6HLCjNAbu9Xipg+DmD6kF7Mvw4gfBfgX2JzCoNQmGtl9T1GZPgkclE9zr33nnHT4stIU7NBwUmOBlBLsWxIYBPfLIIwHlj0Puuccff1xfAxUSxg8CEIKtDaKZ5+bmqmeffVbb05x33nlaAqPDGlC9K664Qte343+4Z1iaFzaQwQQRX4aMf9Nh/PvEpHdhoeiwg9GWHZkf7zEJiIn3Ckj/wgHhAHPAzh5LFSimEaLntm3blhKAUtoQAjYcOwhliFnlTQ08c+ZMhYB0/gheQwhW54ugYua+AJxgT2NKdJBaBe7T3gjGv1BjgdiwGPuIgQTgdc455yjY9CBB7n333aeGDh2qwRn6eOKJJzSoQX3M8dprr8WuLQkf4DCNSEvLC18iwzPcuWZ6FoEZRfmYNJghtCRu2cwcm2xNEJPIQe9swk4ZhnBAOBAmB37Z6ZIwQJJvR4LU5aOPPlLnn3++GyhA8DgAgVgQpDsAVCDYsfxFqSyQH80X6Xxj+YUMZCCBgZQHqiKkJWC11qBBg3TsG8wR4SsQT4YJYMm0m+Hzdtla94zTmR4RiQxPTIOZpoPSCcwMHE6GpE+NGSJqC2ZOnLeeIEaiMsd5QaR74YBwICE4gNhUsBnp1KmTTuyJQb/44otq2LBhqmnTpn7n0KZNG53HyG8loxAqI09q3ry5NiaePn26gnoK6h6omuCxZEp+MKa77rrL7XLkGwOZkiMGMTgPd/FXXnlFNaRYUgx6cB5Jc01bIJyzM0UUyGCi5FqYRYFA1Y5dewcOf2Cqc+T1vUTNFOc7QEBMnBdAuhcOCAe8cuCXnS4bFDvZyMDGhQPKmYNG3Jgnn3xSn4KxLtRNiNVi0rnnnmseahsU5DNi2rJli44Bg2O4Mnfp0oWL9Paxxx6zVEpmAVRBAE5IAskECQqkK0wIkGcSguWtpZhUoMqVvUu8YAMELyYTxKA+UhvA0BlSGdjN2JH4niEX7MhKZDDZfLdsF5ghyYzYzMT3FhAQE1/+S+/CAeFAYnFg4sSJlp2Ir5H/8ssvbsa4XA+5lvwRPKBGjhypqyCtgCeQ8XUtYhCZIAb1YO/iGewO55F2YOXKlWrq1Kk6AzbOearBELTvhRde0B5XbNCMejBcZmNmuGDDPghu4pACweMJAM6ORCGvIk8AM4i2R/ZKY0jN5EAEPuTyEYotBwTExJbf0ptwQDgQHAfYRsZIBBhcAylcGyoiBKrjH0AHCB5HrVq10pF/mT2Q3rRr107Nnz9fwZMJaQuysrIsryx4M0EygwzsiJOD/E5MAEW33nqrqlWrlhUkj8viuTXumchLZMyJsQEwvJkkzozJmejvAzgyz8XFOvr8lh6EA8KB5OAAYsNwDiNzRnjBsycRPI7Y7gRB6pjgVh1tgoQEHkiDBw/W6ibuD2NGJF9z7PB+QkJSGPMyIUu3WQeGzOPGjdPgB3XQLqRFkEzB7oYNixG3BuomO1LEbWQ8JwkwQ3FmcjnODKQEyK7M+i3P+nIcPgeQdoAj9gqICZ+f0oJwQDiQOhyAGzJ+nvTuu+9aNjF48SNRIyQdDGQg1UCagpycHM9LI3r80ksveW0P3kpw0UYgP0hlAGLgpQQgk56ernNALV26VAe+Q/wYRPQdPXq0AnDzJMScQUTfe++9V6uvZs+erVVRaNOOFHUgg0kjzgxF38tNS3POpBdsbbxoJ4pHU8TvB1OVhMYFxEScxdKgcEA4EEEOcECzRP2wXbJkicUNeDAheq4/YomOvzqeZZCewOAWeZZCJTORZc+ePVWVKlV0U1AZBUq47qmnntKu6IFeE816xj1TJyZABpNxRQDObO9wpGXTzdseHk2X92zrkJQGkVlqzgaK1hAjRtyrI8NXaUU4IBwQDvjiwIcffmgVBZIVmtU0uAhxXQIhGN+uXr06kKoB1YG3FX6hkAmIQrk+WtfEDMhgAgWJJtMyETgPNhyiagp/aU1VUr/ubbS0K/xWpYVAOFDlpBMCqSZ1hAPCAS8c4Hw5MPo1vrC91LTfKahvoG5i6tGjB+/63G7bts0qg/omECpTpoz2LgpHIhNIP4HUQVRgO1JMgQwYADBDG7KbGZpjqpogmZG0BuBQ4GRKYXCVqJIC553UFA4IB4QD4XAA9ib79u3TTSCZZOvWrYtsDm7bTDDYDYRge+OZXfvYsWM6RUIoqqpA+kREX8+YOIFcF8s67PFGfW6NOZDhiXqqmuCiPWf+MgVAI0kMmUvet5BiwSuJDXpFleSdT3JWOCAcsDcHIIWBnQwC4yWaRAYePF9++aUO8X/cccfpKLlFcdsEMoFKZLy1idgv3gySvdUN5RzUZJ988kkol8blmrgBGcw2XzqTQV5NmY40Rxa9mOvAdua8c051wBhYqDAHRlDqhznzv9AFEMuKJKswj+SMcEA4IByINgfgwYN4LfgFQghUh8i+TI0aNeLdoLfwRELKhGhJZAKdU9ADj+AFHBWamsyNK5DhObm8mjJJ1eSyncGLGlIHeUkzh5TyVCOJLUwBb2RPOCAcEA7YnQPIls3GsshxxAHsQhk3MlMj/xPAUTQI40sksgWQAcMKbGcys9mziSMCw3YGoCYVyRPAQI0kcXhS8U6QOQsHkpcDLnuH0CUUicCZRx991BrmaaedpsJRLcFGBkbA0TIARtZvb/mmrAnYYIdtZBzKmWs72AVAs2vt9AwCmoOIV0ugP4V3U8tLRimoVVKFYANTvdkQBTAHAoCZkDVYu1Unmi45VdZM5ikcEA4ExwEjzHxwFyZYbQTJgz0N03fffadTBZgRdrks0G20pDHoP5ptBzq/oupt37XHVcXhsIdqyduAoW6i8xRIj+xnHCoTsWdY5QRj4H7d2yadUTAQJgyeObUA+AIA06/7eeLRBWYICQeEA0nFgdbNT9U2f8tXb0iaZ1zfvn11XiIsFALZHT58WJkZsHkBH3/8cbVgwQKFSL2NGzfWp2fMmKHTBxQVYwZJJBGZN1o2MvCUsjuxRAbjtI1qyRfTCgDN0AyHIy+LAQ1ADYxdAWoS2TAYi8FeSJA+MQHAiAcXc0O2wgHhgHAgMTiALNWcqRoqIAAbUxpjzuKbb77R2aXHjh2r7rjjDnXNNdeYxT73d+zYoev7rBBmAbJgA1Qlgq1MXp7KtWfiBD+LULVJZnqaw5HlVI6BXK0GAZrzEkxKA9sXfIWwBxLPBUa8ADCiPmKOyFY4IBxIVg7gQ65Vtzv1R+nK98fZepqIFfP777/rMW7atEnnWvI3YNQdMGCAWrRokVUNnkpQM/3f//2feuONN6zz2IHxL3IaITN1UbRmzRrVvHnzoqqFVY6AfwA0diWYm+Dj3+nMq5twQIaZCkCjVBpJaVQmnWtPP001qp7gJLc4h93UT5C6ALi4tj/ycPUW4AUiVgkI6MYWORAOCAeSnAMMZDDNnWvsawO5f/9+ne0a6QJARQEZxGAZNGiQMuPG1KhRQy1btkzVqVNHtzF+/Hh15513KkhtmGAADEkI8hr5IxPIwHC4V69e/qoHXIYEmHv2uGxP7A5kYEMKIptah+1VS75WIN/LKZvKyY6mANRQ6gMNaiDpYPUTpBswKoNdDSjaAfdYXQRjJG/ABWOA6gjjSFVvLPBASDggHEhtDuDZjGchgnviWRntZ3Oo3H777bcVgxi04cuGZevWrWrkyJE6Y7TZV3p6ukJeJgYxKLvtttt0tuz+/fsrzsH0559/alAyfPhwhQzbvvox227Tpo16+OGHzVMh7wOAMZAJuZEYXIh7JZ+2YpuwQIZnga03UIPzbCQM8dNyyrllqnHYvgb1IA0BmeoctqbncwAnTByIh88xYMGxaefC9bFFf5C4oC+7/rGa45V94YBwQDiQihyAKgggo1KlSvoHkGEmbQS4gHTFpB9//FHBePfll1/WxrpmWUZGhlYjVa5c2Tyt988//3wF6Uq/fv0UUh4wIcs0pDevv/66giu0P4KdDSQpkSDY3iQY5WK8SQFkTMYboAanLWkNxfdJJ5fujPy67QE4GNjwNr8s7A2DJNfXhgCXsBkqDQgHhANJywF82EEiM2f+Ult85METCODAF3Xt2tXNCBZ2LVdffXUhl2XEecnKytKgCF5GvqhatWpq8eLF2nh34sSJVrWvvvpKPf3008o8ZxUaOytXrlT4pRLBTANEwoocbH1zF6VJQB7ARs/IpYrCbloG/afSHM4MMh5Op12T0vMPtEKz6snHq+LFXGF3WEpjSm1YqiPSFpOFsi8cEA4IB/xzoGY1l6SCJd3+a0e/9KyzzvLZCQxsIS0xqXfv3hpwmGACYAcgpH79+mZVn/sAOhMmTNCJGocOHapdq5EmwAyi5+ti5Hk69VSXVsFXnUDPQzoE2xi7E6uW4LGEsSY9kPG2IPngBkXZ+eW8zT8s2FRrOjiHjto/+79htvhaKBiZ7AkHhAPCgcTnAH/8sao+3jOChGTSpEluMVrKly+vGjZsqF2lPV2SIXmZO3euzrnUoEED9eCDDyrYrYRCsJcBkLr33nv1GEqXLu21GYynbt26uuyqq65ScN+OBKH/VatWaW8lz3lGov1ItcEJk5XKy0GbKQlkIsVMaUc4IBwQDggHwuOASwVvL4Pf6667LqhJVa1aVXsyRcJd+fTTT1fvvPOO3/5POeUUtXnzZr91QimETY7diaUxNM4lLJRw6UrsPnIZn3BAOCAcEA4kLQcQvRwEO5lEpUiAmESdeyzH7Wkfg74FyMRyBaQv4YBwQDggHPDJAeNr22cdKUhtDiCYLIjtY7AvQAZc8EPIrIliu+hv/QxVioQDwgHhQEJygO1kEnLwMuiYcoBDnOSnL9J9C5ApagkosyaqWJk2i6ov5cIB4YBwQDgQFAfYTgYvKZHKBMW6lKrM0hia9BJz4gJkTG542WfxlUhkvDBHTgkHhAPCgQhxIBnsZCLECmnGBwfmzHeplSgmXLZZRYCMyQ3ZFw4IB4QDwoG4cIDVSyKRiQv7E6JTT7drHrQAGeaEbIUDwgHhgHAgbhww1UsjRts3gWTcGJTiHT85ea7mANmtzmS3a2aJABnmhM9tWi6K7BJ10ucwpUA4IBwQDiQ4B1i9JFKZBF/IKAyf74k8pyPHs3kBMp4cKXR8LBenxEamEGPkhHBAOCAciCgHWL0kRr8RZWvCN4b3L6uVTG8lnpgAGeaEbIUDwgHhgHAgrhyAeqlfd1d4/0QOjhdXJiZh52zkS0kix3ibngAZb1wxzrEujn3XjSLZFQ4IB4QDwoEIc+D263rqFlmVEOHmpbkE5MCTk+fpUeflpeV4G74AGW9cKXxuK06JeqkwY+SMcEA4IByIJAfE6DeS3Ez8ttjIl2ZCuZWm5nibkQAZb1wpfC4Xp8TgtzBj5IxwQDggHIg0B0QqE2mOJm57HATP6UzL8jULATK+OGOclzQFBjNkVzggHBAORJkDMPpt3bwRRVTfq4wv8ij3Ks3bjQNY+3yzjq2+pDEYswCZQFZO0hQEwiWpIxwQDggHIsYBdsXmL/KINSwNJQwHeO1JGpPpb9DF/RVKmYsDSFNA1tJiIyM3hKpT+2zhgnAgahzYuu3rqLWdaA3373GegrcK3G7xQsOxUOpwIFBpDDgiEpmA7gsJihcQm6SScEA4IByIIAdYKiPqpQgyNUGaClQag+kIkAloUSUoXkBskkrCAeGAcCCCHIAUhm1lJG1BBBlr86aw1vm2MT49lcwpCJAxuVHEvsSSKYJBUiwcEA4IByLMgYljBusWEVdGYstEmLk2bA5rPGf+F3pk/jyVzKELkDG54WM/PyiexJLxwR85LRwQDggHosUBxJW5/boe4sEULQbbrF1WIyKKrz9PJXPYAmRMbvjfz0WxxJLxzyQpFQ4IB4QDkeYAbGVqVjvRMvyNdPvSnj04ALsYzqm0c830rEBHJUAmQE5xLJnlqzcEeIVUEw4IB4QDwoFIcMAllXGlLsAXu0RZjwRX7dfGrVnT9aBIpdQhmNEJkAmQW5w6XP6AAmSYDapt3LhRTZo0SW3dqrWCXke0adMmNXv2bPXll196LY/Uyf/++0/99dffat++v9x++/cfUA749gsJB4QDfjngbvjreuH5vUAKE4oDfYaN4/EGZODLlbEVIGNyw+++ywVbjM38MslWhVOnTlU33HCDGjp0qM9xLVy4UF111VXqueee81knEgWnNKyvdv/6o/rr761uvx82uACU0+mMRDdWG2iudOlSqmLFCiqPAiEJCQeSgQMw/GUVE9tSJMO8Un0OWEtWKTmdeZnB8kOATMAcc7lgB1xdKsadA3PmzNFj6NWrV9zHsnHTZtWieQe1d89et7FUqXKyen3OdFWqVEmSzLgVhXVw5Mhh9cADo9Tcea+oc89toQ4dOhRWe3KxcMAOHICKaeKYIXoosKeQD0s7rEp4Y8AacnZrqJTynWuCalQi+wbILjC3WtPBW8kFuw4Yj1wgQvblAFRFubm5Wm1jByCTlpamDhw4qM45p5Na9Mk7ql69dIt5rVo1V7NmTVK33XYvAZpS1vlwdg4fPkx91NG/N97MVlOmvKSmT3tZbd++Q2EsQsKBROUAnr3wYsLLD/FG3poySgHgCCUmBzg+ELyUdq31nt26qJkJkCmKQ+7luXRYx/2UHNmRA6+//roeFuxPbrnllkJDbNq0qbr//vsLnY/mCaiPjh07pi6+qI96++1Z6qyzz7C6a93mHLU4Z55y0L9IkFM5SbVU2mpq2LCrFX7o+7vvNqhixYpZZbIjHEg0DsCLCR+UUEeMGD1dg5lEm4OMVynYxXDgu2C8lDx5J0DGkyN+jumdmEPvovZz5i8ViYwfPsW7CIDhjTfe0MOAfcg777xTaEgHDhwodC5WJxo3PtMNxKDfv//er7Zs3qocaYWBDOZTu3YtdfzxlawhHjz4j9q48Wef0pW8PKeqV7e2qlipor4G9Zd/sdJnfath2REOJAAHXCqmwfpFCDADG4vbr3N5NSXA8GWIxAFIYsKxizGZKEDG5EYR+5w8MveX36zU8vBi4tgy7NFkRgCGYRoTiz9rVXedw3Hr5qfqYlFVMZfC38KAd8eOHWToWlEtWLBAlShRwmp0xowZ6vnnn1cnnXSSdS5WO//+e1S1bdtK28SYfe778y81YMAwtWbN1wQ0CgOZI4ePqMkvTlR9L+thXfbtN9+rTp16qwoVylnnzJ1//jmkXn11qurStZNa8eVqkkqNUrt3/6ariDTG5JTsJyoHXGBmiOp77TjLxkLATGKsJqRpRvResouZnhvOyAXI+OBe1SaZ6eTUlUHmBOn0QZxB1ejYpVZauW6Twi8QMkEN7y9fbV45zzoA6GFA0697W2vfqiA7RXIA0ov77rtP17vuuutU69at3a554YUX9HG7du3czq9Zs0a1aNFCAeicddZZbmWROujW7SI1ZepTbs3BLXvs2HFq/fpvtcEvjiFNKV++rKpWraquW7JkSXXCice7XVe+fDnVqlUzXRdu3bCJ+eOPfap48WJa6lKqVB6BuZ3qkYcnkEfWNDqfJm7ebhyUg2TgAJ6XE7IGK8Qfgc1MzWqVJUu2zRcWIAbgE+Qy7g3NLsacZuHPP7M0xfarNhmcaQCX9t6mb4INfBHgD8ebpIWvZSkNjgtLbvZoPS/qMMjh63jL/QmwYY7438I25vLLL9dSmC1btqgaNWq4XQCwsnr1avXtt9+qM844Q7td33zzzVadcuXKqWnTpqn+/ftb58ydOrXPNg8D3q9EKp4ePTprkKHy7WAAOpYu/VJ9Q9KVY8f+023ddBN9YV7WU5UtW1ZVr15FnzNtXTw7PEpSnn35QGbH9l1q3Lin1SefLCEgVF5XhSeUSGA8uWbf463bvrbv4Gw8MqiWXEDmRK1iQswZIftxIBogBrNMaSDDUhd62GcSLwoBF2RdBeKPhfqHAQ8WGjRnfkGoZn2C/mM1FcbELohcJluljh49qk477TT1888/q4EDB2rpihlsbv/+/VqlBLCyZ88eLaFA/BgAmW7duql//vlHffrpp5qVd9xxh3rkkUcKgYBQgQwkRZC2mATwUrFieXXmmaepe+69jTyampnFYe0/cP8jpFZbpLZt26ElPWE1JhfHjAMCZEJntQlm8Hxk6XboLcqVkeSACWKo3SW71k7PiFT7KQlktOTF4cxwKsdAk5EACq7okafa4o8A4AZSHGw9gY1IasyVc+0zKIEE4/vvv1cPP/wwuRtvVy+99JKqXLmymj59uhoyZAhJRnqouXPn6ov4GgTFgyQG5S+//LIu69Spk3rttdfUiScW2DmFCmTM0QJcQRXUt29PNXz4dap+g7r5khqzVvj7f/65T9vH/N//3aX+/fcIiXHDb1NaiC4HBMiEx18YkML2As9HATPh8TKSV0cTxGCcKWMjU7XJ0Iy0tLwMepiPxsQJxGBD0pZGCq58dhRFQmXlUls10uMDoMENwaAGf7D8R4uvj1RXPz322GN6TUeOHEkvbScZu76qDh48qJo0aaIByaxZs3S5p32MPkn/wRYFdWrXrq1B0KJFi1SHDh3U119HTtwPL6oKFcqrp59+TPXo2Zm7jsr2+OOPU527dFQzZz5PdkMPUVydbdr9OxqdeZM4+e7HoW15fJWjLfAJwMslUXNqoGdK13xdK+dTmwNs7IvnIkANju34bE+lVYo2iAEvk14iAwDjcORl0VzbY8IgVhnxTe86m1j/e4IaHj3mhnmlolj16quvVkuWLFEbNmzQNiY//PADST36aukM7ERYtbN+/Xp19tkuWxdTIgPJDdOLL76obrrpJg1srrjiCj6twpHIwGupRYsmasKEh1SDhvWsNmO1MzP7NTVy5P2qXLkyEZXOAHicdFJldeut1weUDuHgwUPqmWdeJJD5j9vUEWNn//6DZLtEKt02rVSjRg3IlmkDqcZKqJUr16h1675Rxx1X4ILudnGSHIhEJvyFxLMRaib+yBMwEz5PQ20hFiAGY0taIJMPYLJpjnUwURCiQUL6wsa5rrOJ/z+DGs4cihmlIqBBJF+olLp27WotKiQy8F5CYkhQly5d1AcffGCV+wIyqICEkg0aNLDqYidUIAMJQ6dO7dWM7OjmdHIbrJeD1197h1IXPKJVW16KQzoFLyvX3J4N6PotW7ap7t0uJ9BSEMsHLvIDBvRR990/UkvGvDUEidJFF/ZRR44c8VacFOcEyERuGdlmBi3i2Z/IH66R40rsWooViMGMkk61VABg8jSAYbuXZL6JAcz696ispTC4efAHjEBDcHFLJV1xenq6ws8kGPaef/75FpAZPXq0Wex33xPE+K3spxAgpnv3zur5F57wUys2Rf0vv1SdcMLxZAx9IwGGEloFF37PTvIOqxZwM+iX1UTY/vdfnnrhhSfVhRdl+G3DU4KDypCyQSJUvHhkH2VHjx6jto9RDw5Sazl8giu/A84vxPrjF+kxBtJ3KtfhZz68mfAD8blU5kss5m6CyEi5WPsbd2T/+v31FOWyAhVSnlYhpQKA8WSpN0ADt24AmlSU0IA/y5cvt1IU9OvXj2KvtPJkW1SP8QIrU6ZM1EEMpBs7duxSK1es1oH1fvllB9n61NQv+l6XXqLq109XNWvWIC+sNA0Ypk17mgybb3ELFhgqIwAkzmnZ1O3yZ5+ZQhKtLRZgMQu3bNmq9u37S9u9IKLxG29kq46dzjer6H24lpcg0MP044aN2jMNx+izatWTSVXXVAOzRYuWqF27dnPVsLZHjvyrbr/9JnXKKQ00ANm06WcKojg9ILUZdwyABikTAF5DUiNinkuXrvBrG8TXyjZyHABwQYgMjjODDz1k0E42qXzkOBZ+S0g7UBCxF0kgw48TU9SokgLIVG82OItSf+tP7VQEMJ6L7A3Q4MaC8VsquW7v2rVL9enThzx2/tUGvJMnT/ZkVdSPa9WqqV559cWo9vPUxMnqlVfepIB4f5DdyaF8w1ilVhCoAb3xxlyyLalInlsnqjvvGkGu5hfpiL9PPf2ounNUlgY74QwQRtKVKIqySRjP1q2/EJBJM0/rfXrH6zEC5F14YUYhEDN+/PPq449z1BHy7Cpbrqw6v10bbS8DgAEJDEDCnxQN+efNawksuB5hPXt1Vf37DQ57LhjgAQKFd4wqyM81ZcqsoEAM2qhQsQLN4S1KK3GcTgTatEl7ATFgTBwIxr54JnJIfLxoxaMp8gvhoUqij43YgBjMJKGBTL4UZjF9nGnq172NxFdxsUL/bwIaeDpBvAoDONxw+FJJZmt+2Mtceuml9JW+S38Zv/LKK/QyP87gTvR38dLt3bubSk+vHZXONv70MxnY3qsNYcuUcSWI5Be72SGkMEhZACnNtcOGq6eeelRd1q+n6tmzi3rn7fcods5nWnXC6h7z2kD2yxHYqF2nllUVAOXrr78jt/UTrHPedmBb06CBu9HzG3PeVRMIyJgZutesXq8BCv7OMU+034aSbJpzPUxpHHwRpDdM5hxhXMyE/vCDmsuUDqGvNV+t42pFbtEm4hkNGNCXJEaugIa//vqbOnTokOUxJiqmItkY8Qr4gEOWbCSY5I86PP9E1RQZVr8+b5mWeuW3FtEYMYGMMCGBDALZ0ZdetlIuNVKqqk0CWWDUAaDBHywMnfkPGaJWgJtkFLMiRkxmZiapL/bpr2EkkDzvvNhG+oQUaODAAWoEefJEmvBixgu5c+fLtLSJQUxR/eA6qDtuvfUetWrVGjXu8TFq1ksv6OjC1193uw4SWKJESW07U1RbZjnaBWhjemX2m+Q1VoYPfW4x7suv6O2znAswZvyYADg2kJrpiy9WaUDz04+b1INjH3cbA+oChMCuBoCiSpXKBFSK6VQQsNHB+RdfnGAZDn9J+ajee28hfUXmqbp10+lqFwFs/fb7Xj60+vAWLRltvkB2UNjWq5duXQOpzOjRdxLA+VdHXL7hhtvdMpNbFWUnqhzAcxDPO/6ow4edqJrCZ7mpSnIo58yda2dkht9qcC0kHJBhKQxPE3k2klmywPOMxBZ/yPgqYfSMLxPchMkincGX8F133aXGjx+v2QXbFGS+vvjiiyPBvqDagJHx2WefHhUDT4CYjhf01CDGlFwEOkC8hGfNep1ySp2hrr6mn8rIaKs2/LhCbfxpk/rooxy1cOGnBGr2asnC9u07izR0RTqFOnVqWt1D+gMhiCkJsQppx5SKeNa5rF8vbevzwgszFDKU+5JelCpVklRJgwiI/KslM2jTE1xceFEH9dD/7lXVqrtyVvEYHh/3jPr99z2q/+UFIGrdum91MSQyGRkFoBfA5uuvv9U8wBybN2+iARKAFHjzO4EcSLwA5C64oB1JunpxN9YWqrcryCML9MP3P/rki3WB7ESNA/xRh2jtpqopWZ6BUWOcl4b5PcJFUCXtioE9DPdnbhMKyJi2MJDC4KUsFDwHAPwgauVYC5DObN+1J+HFrFu3btWZrcERxIlBhN5oJYD0x3W8nM8++ww14Mq+/qqFXAZD2o0bN7upX4JtDEBgwoTnKWDeBToGDK5vSMat+N1081DtGo24N198sULddut9GjT56gMvcrysmQ4dOkyGsvULSXYAbiBZ+eGHHzXoQEqIb77+XvOKr8V2xK03UK6rS8nu5y0KTDiepBjuGb7R/lQyVm5AEZFBSPVw802jSErzkz4GALrvvjvUrbfdoI89/4P9C4AME9Zr506XoTD6OrvxGVykvl7/nbbRufveW8lguq4bCAOQ6d9vCAGaHQRk8siOp6F1na+d3Nxfwlo3X+3K+eA44KlqYgk1AA3KhHxzAFIs9ozNrxVzVZLn6Mjszv5UoEpyBbWTmACRWzPTTQ7gMNFVTVOnTtXxX8aOHev2cvXFMdQfMWIE2TQMIFVD0Ua5gcSRge3GrJcmkdqjpa9uQz4PW5BePa/SYMBbI1CnQK2DAHWoiwzYJsgwr9G5pRbPI7B3unnabX/btu3qsr6Zavfu39zO8wGkYMOuHajGjLmLT/ndwquqS5d+GpwAQEDt8vGit9XJJ5/k9bppU1/WYMa0Z0FQvA8+nGO5fGOeTRq3IzuUw1pVdN99I9XNtwyz2oOHFNI1oBx2O1WquPcFnp15RhutEqpVq4aaO+8VqufKNv4tJfQ80w9/YGMEOyXwASknIBkqS5LAhx+93+r/k0WfqfnzF2jp0vvvf6RzelmFHjsSR8aDITE4hGQBz0F4eMJZBEBGctl5ZzykWLCz1ORwbHXmObN2r5ue7b127M7aXiJjqpJSKSZKrG4BfIEkk5h16NChQbEO9YO9pqgOkOspGiAG/UKF8f33G9wkAzweAIPTTz9V235UrnyCOkyB4+CWfM/dD1qGplwXW0hH5r77gU8gk7N4Kbkh30/eUH+al7ntQxLRoL67wa5bBY+DlSvXWt47eOmj7Yz23bUEZnTWnVrtYqqehgy9SjUmCUn37ldYgAyZvc2M4FCvAWghwzi8xK686jLdK/gBANSubVctUYLKqyJ5V2VTUELTXRzXw3UdAAkSmTKlS1mjNkEMbHFOoWjD1Czx31XlpJMr67WACuztt+dr6VCPHl2s67Ezc+arlJH8M30N+jLn51ZRDuLCAZZQs+1MqjhEBMNsTzWStoVZMz0zmDaiWbewb2Q0ewuybRPEQFqw8v1xIvYLkoeBVGcxK7y+8FWCrxPcuELBcwBf5l26dAr+wgCv+GzJMp9ReUuVKqUefuQ+VSe9lipHL2RIH/r06U7gppFXuwzYlHzyyZJCPSNy7oIFn6jMzJvU3r1/+HU9xnwvvLC91QakHt9+84P2WoLnkvmDXQk8eEyXbLzYYRz7DKnLbh1+r/asshrL32lxTlN1ySUXkdTD5WVUtepJBFoqWNU+ICkHDHhBsFOBlAcEwHDjDXfQHP7U0ilXXwfU2LHjdDn/98H7H1vXV6HYNHD5Zvr119/ViOF3q+OPq0vZyTupAVcM04CEy0uXcnmL4dgFUigXSvvWXKy3Bw4c1HY04LeAGDfW2OaAbWdWvPeYjrmF5yDUTS0vGaWfh7YZaIwHgvdA9WZD3DySyG6sbjwMev1N3bYSGRPEiFu1vyWMTJnLon+I9nCCNX+y2M1EhjuBt4Kv/jFj7w78giBrfkMgAd433ggv80qV3HMRQVJwDgGBNWvWezWcLVbM/REAiU/XLv3V5s25XsGPZ7//krFt1WouN2OULf18uRo8+BbLu8ezPl72sM/xJLhwv/HmXPXWW/M0/wYNHuBW5bTTTiX1zEINCBo3OcttLj/95LIXgnTo/PPbuF2H9pCkkwl1AOxM+onc2MFTqJjqerjKd+rYS0uNKlJcGBAA3s8U6A8Zy0E7KQgfJD9Mug3DYwllS5d+qd3GuY5s7csB0yECEho4ROB5iBd6KqmcTJOD/NVaQrdyth3USN7uHvenmLcacThXrengHHatfvPFUSKFieEaQNUEwh8vfiA+pw/kP78cwEs6ENdjv434KWzevLFPkABpCKLfshEsN7NkyRduL34+j5dsOcNNGsarvS+9RktNuI6/LV7aHUgCYhKkLpA6mO7SZjnvg0eIRmx6GsFoGAT38JYUKfiMM0/j6gQ0XLocAJE2rd1tjz788GOaXwkNRHAdEwLysaSGz8HLqR0F2DPpgw8+0p5PAHFtzjvXKvp502YNYjw9pwC6mL4hqZMJZCAFQ+BBJuT6git+oC7yfJ1s48sBqJvwA4BhQMMqJwCaft3bJt17CTn7WL1mcN/WAIbHaTsg4wIxLqNeATG8TLHdst0MUhsAzOAGT1Tjt4ULF6ply5aROmFs1JmIl2zXrhdFtZ/DFO3WfHGaneFFPGrUaG2n0bNXF7WDgMnLL7+hfv55i1nN2keMlNPIpgYE76EBA4bpiLkMKKyKPnYAZDwD2hXPj7Tr4xJ9GnYrXbtcqH79bQ8l8PzITWKCCpjHqae5S01eeul1bSNz7NhRsoOpbjWP0P/wgoJaDa7SWAMmQB8YAqMMhH2oqMyAd1D7fE8u0QBU8H6qXbuGrov/tm/f5aYKcs23riWBwvGePX9Y9bEDl38T6MDryQRrbpXlwPYcYEADT50b7p6kVe8ANPglg2EwJxxmY2djQQjApJEh79Qc45xtd20FZATE2Oc+wVcHgCTADP5of9m5N+Hc3fE1fMUVV9DL+U/VsWNHsl0osOVgTq9cuZLsMn7hw0Lbtm3bkpdLgeqkUAW3Ey4vHLdTET7o2ClDe+vAE8cbwd7k2muHq6uvvl5LGSAh8iUdwYu/OsVY2USu3AAxAAWBghjuu7RhGIsXO+xjkGjRH8EG5867hquTyXvoM5IWPfTQkxS88G9LajF27D1u43j7rfd0XBtIZY6RnUyjUwvcnJGGwZSYQHXFhGjDzzwzTruZV6xYXrtHT6YgeCYQXLPma23bgnPg1alG2yspaKDZHgBWx44Z3LweC9RSJiEVxAknuEeQBrCB5xjGDzAllHgcwPOwVL4dFo3+Lfr1gR0Nno3LCOScl2BSGkialq/eoMdvrgaMePOc8ETKzjXP233fNkBGQIz9bhUGMxw4CttEkswgKN3dd99NUopR6s4771RffvllISY/9thj5G3ydqHzfOLdd9+lUP4udRuf87XFy7BevTq+iiNyHkADL9svv/zKa3sYAzx6TK8erxXpJADAggWL1JQpM60kjr7qejuPFzskP0zoe9euX92MYbnM3B5//PHKSf9A57dvo38AZmVo3EgSyeAB7QEUwesH6ioApdM87Fu2U9oFNqDFdVCjIf0CEwL+de9xseaHp5oJdXbu3KWrwpA4M/MKvkxLhdav+8ZqGwUYT/36Bev7n5bIFET95Tqucbuaatz4TMp1NUO7wz/22FPqfTIsDhYsulqS/+PJAUhkAFyItu5aO70vQoKQeXcG3ZaZO3btbc9SmhpVT3DS/eiwm/oJ4wdwcW1/xDwscoEXR45d7V+sgfrZsQWQERDjZ4XiXIQ/SIAXlsywdX+ch+W1+82bNxdSISHHDWjVqlX0osrU+/zfZZe53HRxfM0111B26ILotI8//riODeJLmsFtmFu8aJuRDUs0CeMZNPhKClS30nrhh9ofXvzffbdBX87gIZi2oDIBWDQJ9iBFEXJPVajgMp7lunB99iRIL5A6YcWKr7R6CGDD0yNsOQE6Hju2AGWtWjWn3E8Fa8ltQ8WG5I1/799mdYU8TgBCAB+mbcuBA/9o1ZJVUe841EUXX2Cdysv7T/3440bt9s0n4cUFFRUTvMdandtCH2IebOvD5bJNDA7Mmb9UD5RulWzs5EsssJ/tBmp2/9Ee5QxsoH7CM7NW9RO1XQ3K8EyNJrG6CEFOvQGX/L6X0Fxydq6ZnhXNscSq7bgDGXgniWFvrJY7tH5YMsM2M2jFjgbAv/76K329z/Q6SYAMz7JTTjnFqnvzzTeTd885+hg2NQ8//DCpCE5QHTp0sOoUtYOXumkfUVT9UMs7d+6o465kZ79SCEiE2mYo19WuXZPyEhVIKABsdpEXT1EEQPH66+9o+5p27QqMa/m6XykmzOjRj5Kn1dc6vgvbuEAC1KTJmVxNbw+SjYtJP/zwE2X3vlwDyjtG3qzXY8WKNTr2zhxKSNm7d3erOlRcP/+cq48BwIYOu9oqK1GimPrrL3f1XcOG9Shv08lWnddfe1ero6wTtLNlyzb1zNMvqnvuvc08rfZSygdE9UWsG6HE4wCACYieI9l6x/jPG6hBMaQ1JMVpD0nO8tUucMOXsX0NjhHHCwTAwwTgA+JzACdMUPOD+BwDFhznS424qrndChCWl5dGkpfEsHsxB1/UvqOoCtEsN12sxbA3mpyOTNtA9wAzIDvmuAJYwcvn888/pxfhaPXaa69RxNiCFw+SSDZr1kwNGjRI52RCNmzY0EC1BFsZBjK9evVSSDwJlRRUTyb5i+wLEPP2Oy+52VmY10ZqHxoXeiipu+8aq415fX3lgx+lyDbjEEk2oM6A5IEJEoiaNauTXcwB+v3tVsZ1itpC8gDDW/bIQZtwhTazUvtqA95DACZwVz/33OZabYS6qyhgXkmyVQEvWdLCbWA+DRvW13UxFcznNzIYhvcTCP3zHLHvyvnk1Cq04sVdLus/bFihjYtRbzOBmObNO1CQvAq6TYAyVvsgPQO8nkxDXRgp1yG7G9jSUPPaIwrAyXOckMpgfk3ITRxSm99+26sBHvrBuPyRRPb1x534lMGeBOEoiKBWSg9mFCytIWFhOi19Rv617YNpI4S6W0nGmEN/DLnJClw8eRI3iYyAGM+lsP8xJDNID+FyzZ6rBwyrfrsQXiiwv/joo4/UunXrVFZWlnr11Vet4U2YMEFnxP7444/VuHHj3IxEudKGDRvUvHnztHHmLbfcwqcD2iJ5IscbCeiCECvhJQ565NEHyNW7rDZmNWOloAzeO40a1VevvjZVTZs6W7377nuUumGLlbcIL/8vli/UcV969LiykOcQ2iiKAA44RxHXDQTEoC7AAAhu2MgbxXQiRST2RVjfTeQSbRIDF4Ac2A7B+Be8wHmAIYAP/OCa/txzj1tlaONdimrM0h60nZtboHJCuQlicAybIriom+QJYlAG9R9+GzcWGAJjTEWBGLNd2bcPB2BbAqJbKlvvBPGfIa2xrnKBGxymZdB/Ks3hzCAInk67JqXnH9TJ3241CnOxT2BFbxmw4FwySlswr6IobkDG4chbjMHhxRhtnWFRTJDywDnAKiUGM1g7Fn8G3kp0a0IaM3v2bC2Rueqqq8jl9hLyeiEX8okT9Qtu0qRJXkEMRvXEE0/oFw7saUybmUBGjJdaMfrFku5/YKQqXaY0qTMm67mZfePFiRxGd98zQv+WLV2h/ve/J3Q4/8cey9JV27ZrrS6iLNEI2ub54jbb8rXPQMJXeSDng2nDV11IX8ZPeEiruiZOeEHt++tv7VLeunUL1aIFxaQ5o5GqWy/dGs6zz0zV3lJmQkpfbVsX0U4gdbh+MHX5GtnajwP+1EqhjNbwCMrOv563oTQn1xAH4gJk8o17dShofjHKaiQOB7Bm0MfiD3zE6Om2c8s+6aSTtDRm5MiR6ttvv9VABhKY/fv3qyFDhqjzzvMuRdq1a5fOmI0v77vuuivoBTmZ8u4gxH2s6Y47btb5gR55ZIIF0KAiQXA62NFkZg7QQzqvbSv14YI3tIcSG8Ci4I5R/6dzMsXCvidavIE65xTK3A1Jz333j/TbzXuUwPGxxyZa0im/laUwpTkAtVI+bTUACJ+TrU04ENvPR5p09aaDsmmjdYRvTRllEzbIMILlAMAMDNZcIbxdaqZg24h0/csvv5xeTuX1D/YtUCk8+OCD+vjJJ5/U3U2bNs2qc/bZZ7sNAXYxMABFzA9khg6GIP2IJxBAtmdIAEwTDKg3Fi74tNA0TBCDwkaUCLFZM3deFLrI5ifgCfUH5YXyjK+DAIKIjwMj3M8pfUL3bleogQNvKmTXYvPpyfDixIFw1EpxGnJKdhtTiQzsYpwqbyA4DeNeocTlANRJ7JYNNVPNapV1SO94zgheSK1atQp4CDVq1KCEhQVeL8iCvWTJEq2S6ty5s1q+fHnA6iVIBHr1uiTgvqNR8aqr+qtZs151C4AHqQwSH1ah4HMmbSNDVkTWRR4mqFfakYrJm+GqeY2d9//8c5/2VkKqAmT+hpoPwO5vUjH9S2uD5JcwbIZdj6lOsvOcZGzx50Ck1Urxn1FyjiCmQIbtYuDxInYxiX9DeRr/xtteJpQ0BH369LEWAiqll19+WatnsAWYWb9+fZG2I5DGIONyjRrVrLbisfPZZ8sKjRUB6t56c5668aYhbkNq06azzjp96aXdKMhbOoXmr6U9d7wZr7pdaNMDjJvTBeze/avXUXoLiOe1opwUDhAHDLXSElEr2fuWiBmQMe1i7OTpYu/lsf/o7GYvA1VCTk5OkYxr3LixqlatMPCAwWt2drb65JNPKFjcd9otu3Xr1n7bQ76eufNmq6ZN46uegUTF02sK4OzDDxdZQAbeTLeOuEeDNdT9+OPF5OVFcXadLq8cvxOVQuFACnEACRRB9LeRrXfkP9tyICZApmqTwZnEAbGLse1tEN7AAGYggoW9DL5i4glUt23bRtFfC8Lm+5oZbGUGDx7stRhg5sorr9QeTAA0RQGZNm1aqtM9Qud7bTiKJ2+68Q6vKhMY/cIjaSnZh8BD6aefNmkDYEiQQIkqgYkiK6Vp4YB2ZsDzDJTIoftTZSljYuzrSHNkgaFQKQklHwdgL8NriyyqdqAzzjhDPf/884V+geZNateunZ7GV195z2lkzhHxQmbNfN08FZN9JHvctXO3ate2q5a6+AIliGFyFwXPm/LiLG3syiAmJoOUToQDCcgBfo6RmdWYBBx+yg056hIZeCmRDUGd1s0bxfVLPeVWNsYThhQGolh8xdghuWT9+vXVDTfcUIgLBw4c0FF7CxV4nNi4caM+U6dOHY+SwofICfTAAw+rkSPvL1wYxTNQG8E+ByoibH0RjF63bduuxwiPLCHhgHDAPwcQxRyEyLh6R/6zNQeiCmQQwZAiFg4EB6B+EEpuDkwcM1i16nanTlSGB0EiGXQvXLhQIccS7GaQfBJRgEFFqZV4RQEQ4gUS/IEYHh/ATLzGx2OQrXAgETgA9Thnuk7VSLmJsE7mGKMKZByOtGx01q97m4R6qZkMkv3AOQAVk5nCoE2LxHGx/+KLL0g986HbZJs3b64uvPBCt3NyIBwQDiQ3Bwwj36zknmnyzC5qQMY08EW8EaHU4EC/7udpg1+omOIplVmzZo1CXBhPQg4mb9SxY0dVunRpnYsJgeTatGmj7rnnHreYLN6uk3PCAeFA8nAAEcvFyDfx1jNqQIYk2ZlgBxuBJh5rZMShcMAllemps8XCVmbl+65s2aG0Fc4127dvV/BMCpTOP/98dfvttwdaXeoJB4QDScgBy8hXOWcm4fSSdkpR8VoypTHxdMVN2lWz+cRgG4P0BdAzs9FcrId8wQUXUFj6LYV+SF0gJBwQDggHvHHAiuTrLJbtrVzO2ZMDUQEyIo2x52LHalQslUF//IUTq76Rawkgpm3btio9Pb3QDykMELG3du3aeki1atWiXEONVNmyZWM1ROlHOCAcsCEHjGcVRfKdmmPDIcqQfHDA4eN8yKeRT4lTEexcE7hoP+QO5UJbcgC65j7DxmmpDPJqJZIHkz+G1qkd3+i9/sYmZYnPga3bvk78SSToDFpeMko/r5zOtA4CZBJrESNuI0MgJgssgPeKUOpygKUyt2ZN11KZRPJgSt1Vk5kLB8LnAD5ioFLevmuPbgzHv+zca+1jJ9+9WZ+DGpoJzw1Qrequczhu3fxUfS6aH0Picq1ZnLD/RRTIIG4McUKnIpC4MQl7T0Rs4PzgibcHU8QmJA0JB4QDFgdMwALggmMToFgVi9gxr+H95avNi+ZZBwA9/Fzp172ttW9VCHFHXK5DZJxNLosokElzOLIQX1SkMTZZ3TgPA19T8FqDVGbO/KURe+jEeVrSvXAgZTngkly4JC7spuzJDBNs4BlQs1plkrAUlrTwdQBATIUlN66+GCQB6LBBLm+5v1CBDUAYz0XyKvFKJNY2okCGo/giloiQcAAc4K+neHkvySoIB4QDoXOApS6cfsSzJaSewd94OOofBjlou2C/kdXV7de5dhnw8LOEx8TgBsCG1VQYU6Dxy9jIl5xUxlidyk5CcSBixr5wuaYbYQZupHjFDkkozqfQYGH0iy+eZDL6TaHlk6mmIAcgeVm+eoMl/WAW4PmOkBoALvyRwmXx2ALcQIqDLQMbHkcgkhpch7QqIKczr+7uddm5+kD+SygOREwik+ZwZpBERnIqJdTyx2awkNAByIh6KTb8ll6EA6FwwKVi2UDG+QU2KWgHUhf8DdsxJhgkOC4pjispMYAJ5sGgBlIaltQAeHmqn0xpzK61AmJCuW/scE3EJDLVmg7W6XdXvPeYIR60wxRlDPHmAH/1iLQu3ish/QsHCnMAL3680NlOBDVYZZTIThueoIZnjrlhXvCMEmkMcyWxtxEBMtWbDc5yOtVoJIcMVC+Z2GyT0QfLAVYvyT0SLOekvnAgOhwAgEEaEfYUQi9w1ID0pcBWJTp9x7pVBjVwPGA66cSK6ve9f5MewTlz59oZmXxetonHgYiolgjEZGDqbPCVeGyQEUebA6xewsNTSDggHIgfBzwBDNu9JLL0pShuApj171FZ2/WwBIoBHJlEdEIgVwmCVxQX7VseEYkMq5Ukkq99FzreIxP1UrxXQPpPdQ7wC5xVSKkAYHytOUtooFJjQEN1l1BU3ywBNL64Zt/zxcIdmislgTMTekc7GoOFOz+5PjIcqFShrDbC+/6nX7TkLtlE15HhkrQiHIgOB/DChloFL20AmGFXXqhmjL+FJBSuqLnR6dW+reJ5dGaj2qpzh6bqjFNqq+9+3Kb+PnAovXhxR6fyVRo33r973bv2Hb2MzJMDYQOZitWbZFKjGQAxqfpH4clUOfbNgYU5a6nQSQ+QZr4rSYlwQDgQEQ5ACgODVpbCwEbtrSl3yrM6n7smoMH+slUbKirlaFKherNB5as03Xdg99p1EVkIaSSqHAg7+zXZx2RihGIfE9o6Pf/882rZsmUhXfzPP/+oZ599Vu3fvz+k62N9EUth8HAVEg4IB6LHAahOYGDf99pxuhNIzBHHSZwxvPMczybYCMHrFryioDJ1EBeNzCZyqrpS73i/UM7aggNhAxmaRR3MxA7BkWzB0QAHceTIEXXNNdeom266SXXu3Fl98cUXAV5ZUO32229Xt9xyi6pfv756+umn1b///ltQaMM9TgRn6KRtOEoZknAgsTngKYVBmpC3piRPBvporg4ADXgFnuVT+7S0YksQ8JVPyNZ+HAgLyMA+BlPSCNZ+c7P1iNatW6dmz56tx3jgwAENZpYvXx7wmN977z01adIkXf/3339Xt912m1q/fn3A18ejIh4SfK+IVCYeKyB9JjsHYAtjSmHggCG2i8GvOngG6QxUcU6nszakMwgzEnxLckUsOBCW+3VaWl4GqZZsJ405evSo+uqrr2LBv0J9tGjRQpUoUaLQec8TrVq1Us8995y64YYbdBHUQ5DMLFy4csY1qAAAQABJREFUUJ177rme1d2OAVyGDh3qdu6pp55S55xzjts5Ox6wG7ZE+bXj6siYEpUDUCWNGD3dsoVBPJhkdqeOxTrhwwuqOGwR7Rix0kjVRO+8vExJZRCLFQi8j7CADK1sOhlG6eymgXcZ/Zrff/+9atOmTfQ78tIDJC2NGzf2UlL41PXXX6927dqlxo4dqwv//vtvdfHFF6uPP/5YtWzZsvAF+WcAYn799VerfPjw4VpFZZ2QHeGAcCBlOADpJkth4JGEl6+o+iO3/ACEsAHNDx7IqqbRkik7cjwOt6WwVEsUSCgDA5A/mtCXYcyYMW7SFYCZJUuW+GxwypQpat68glwoPXr0UOPHj/dZ324FfK+IasluKyPjSUQOmCAGalsk7OW/sUScj13HDJ7CdoZVTcWLpz0odjP2Wa3wJDL5hr4QvdmJAlHtRGu8/vquW7euOnz4cKGu//vvP7dzACa+wMnevXvd6i5evFjVqFHD7RwOihcvrrZs2aK3hQptcEIMfm2wCDKEhOaACWIk9Uf0l9JD1VQz324mfeea6VnR71168MeBkIGMy9A3TwdX8tdBPMpOP/10lZeXF3TXUOewbc1FF12kFixYEHQbDrq7fdG2bdsCGtfu3bt9NVHoPGxrfLlfh8KDQh1E+AQeBhB/A8jgQSxfjxFmsDSXEhzg3GWYLNyq5e8odsvOtkdsN0NGwErATOz4762nsFRLaNBu0hieJABFKL9IXc/t+NpibCVLlvT787y2qPrFioUd39Czy6gc2/WeicpkpVHhQIQ5ICAmwgwNoTmAGQBIEIyAqzcdlK0P5L+4cCBkIAOPJYxYvgRCW7cdO3YoxJLx90OMGSbs+6uLsj179nB1W2/5nlm+eoOtxymDEw7YjQMCYuyzIniOWWBGOQYieJ59RpdaIwkZyLg8lpTtPJZSa/kSc7Y1q7lsquAyKiQcEA4ExgEBMYHxKZa1GMzUIHU5UXuRzMSS+wV9hQ5kCtqQPeGAcEA4IByIIgcExESRuWE2DTDzFLm8g8iTd6AEzguToSFcHrKxLy1YOvoTewdwIXhCVN4TTjjB74VseIxK2EfQO3+ECMGJQHzP/LLT3QMrEcYuYxQOxJoDMIrnpI9i2Btr7gfWH0tmEM9H28yIAXBgjItQrZCBTIT6T9lmOAheoAxYsWKFwk9IOCAcSB0OmC7WAmLsve6eYIbizORK0LzYrFk4qqV0DJETAcZmuNJLMnCA7xmxkUmG1ZQ5RIsDAmKixdnotQswg/QQIAmaFz0+e7YsEhlPjsTo+IknnlCVK/sPJDht2jT1+eef6xG1a9dODRni0sP6GiLiySAbtpBwQDiQ+BzgtAN4MeIFKZQYHDDizNRMS3OMqdokM0dyM0V37QTIRJe/PlsfMGCAqlatms9yFKxatcoCMmeffbYaOHCg3/r79u0TIOOXQ1IoHEgMDsC4F4S0A/xiTIyRyyjBAawZJM5z5n9BmbPTsulUBv2EosSBcFRLdTAmNtyM0vik2STkAN8zkqYgCRdXphQ2B5CckI17kd9HKDE5ADCDKOZE7cWTKbprGA6Qie7IpHXhgHBAOJBiHIBdDH3F61lzsLUUY0HSTBcfbMhEDoInkySZjN7ShgNktmJYYrAZ2uLUqlVLlSlTxu/vueeesxrHflH1Tz75ZKu+7AgHhAOJxwG2i5mQNVjsYhJv+QqN2DT+zbeXSS9USU6EzQGxkQmbhaE1gIzXnlmvi2rJW+bsoq6xYzmD33yxqx2HKGMSDsScA6ZdTP8e58Ws/2+//VZ98MEHqlWrVqpFixaqXLlyMevbX0f/+9//1NatW9XVV1+t4OzgLyEvt7Ny5Up16NAhfXjmmWeqE0/Uqh0ujstW7GWiz/ZwgEwuDa8OgpqxzUP0h5s8PRx33HE6YaS/Ge3du9cCO0gIWdQf5bFjx9Qff/zhr0kpEw4IB2zIgdfnLYubXcyoUaPUhx9+qLnSuXNnaz+ebFq2bJkaPXq0ysvLU1OnTlXdunVT8+fPL3JIV111ldq4caOuN3fuXNWjh8sVusgLo1wBYCZfZdgeKiaJLxNZhoejWorsSFKste+//179+uuvfn/XX3+9xRXsF1X/559/turbeYcj+goAtvMqydhiyYEnJ8/V3UGlFEtCkE0GMejXfObEchxmX//884/KzMzUIAbnS5UqpUGNWSfcfXz0vfTSS6pNmzZqw4boJ6/Fs47X1pHmyAp3/HK9OwfCkci4tyRHRXJg5MiROoN1WlqaqlSpUpH1g61QtmxZddttt2kpTvHixSkgkyxvsDyU+sKBWHMAXkrw4IOrdSxVSphnVlaWNd169eqprl27WlJgq8DLDiTE27dv1yopL8V+T0HlAwDhi+655x61adMmq3jixIla5cUnIHGpUaOGwvMuWDpy5IjKzs5Wjz32mNqyZYu+HPG5EK8Lz+VoEtZ2znwteauD5JI7187IjGZ/qdR22G86l72DBGsK5KbBH080qWTJkurJJ5+MZhcRaZttZDjCb0QalUaEAwnIAfwtsJcS1A+xpPfee08tWLDA6nLz5s1FqrtRGU4HkJpAqnzddddZ1we6g6CdvoDMZ599pp5++mmrKaiKWEqEPgG8JkyYoO1mpk+fbtUragfXvvjiiwqBSHfs2OFW/YsvvlCzZs3SUiC3gigcTBwzWLXqdqdKK1asY9UmQzN2r5uaE4VuUq7JkIGMQzlzKXFk+5TjWBATXrJkiZvYNohLdVVcz4T9u+66iw+D3nbp0kW1b2+P5dq+a48ev6iWgl5GuSDJODBitOtl3K97m5h6KS1dulT169fPVtw8ePCgGjx4MLkqO/W4ILmZPHmyNcYXXnhBPf744/p4xowZqlOnTgqBRf3R33//reDxCfDz+++/F6oK79Hhw4er3r17FyqLxgk88xCp+cnJ82o6HCqL+siIRj+p1mbIQCbP6cihhRi4fPWGmItDE2WRPv30Uy3CjMR44VmAX6gEPbNdgAxLZEKdi1wnHEgGDpgGvhxvJBbzWrt2rTaeZe+e8uXL62Pu+7XXXuNdbSzrqcKpWbOmVc47OAdw4YvefPNNN1DiWQ82KwBWbOdXoUIF9dZbb7mpj2666SYFKQwkQSBIauBpVb9+fc/m9PH48eN1NHREPPekJk2aKKj6+/fvH3MVfL/u5ymsPakTyfBXpDKeaxPKcchAJpTO5BrhgMmBmtX855oy68q+cCDZOAB7CRAbgcZiftu2bVPwTPrrr790dyVKlNCA4aKLLtLHBw4cUCaQgUFsxYoVixxaw4YNtYTEV8Wvv/7aV5E26h00aJCbvQ1A0SmnnOJ2TenSpdXLL7+swcvRo0cVcstdfvnlCqohzMOTTIk2l1188cUawECaAwI/ateuzcUx2bqkMj3VrVnTyaU8L5s6TY9Jx0ncSRhAJi9HqTSFSJRC3jlw6aWXqipVqngvDOAs/miXL1+ua7Zu3VpBXxwq+dJJh9peONfxPSOJ8MLholybyBwwpTGxNPCFAwCrbhCXBYlpGcSAn7t377bYCiluICDGuiCEHfQH9dDixYutq2+99VbVp08fPU6ohhBSAqEo9uzZo7cNGjRQP/zwg67/1VdfqYceekjbzlgNeOwA5FxxxRUawJx11llupYibg0CiyGM3bNgwhbAYsSA8+xBHi6QydUQqEz7HwwAyrs4lX47vRYD4Er9QCSJUBjLNmjVTN954Y6hN2eo6vmfERsZWyyKDiSEH4iGNwfSqV6+u1TPdu3dX999/v+rbt68VQA7lCEDHhJc6q5/4XKS3zzzzjBuIQftvv/22mjlzppYaBRI09OGHH9Y2LkisaxI8Q6+99lptAwMvJ08CoANIgu0MYungGduxY0fPalE59pDKZFEnGVHpKEUaDdnfLD8tubZG5S/sePMMKB363FB/yDbNtHDhwpDbQf+5ubnclGwNDvC9IlF9DabIbkpxAH8DnBQyltIYMBkvbYAY0NixYws941jlgnLErfL3LIVdS7gEGxVPApgCwAgExOBaqJlgJOxZH27W48aN067ann3g2Aw4imNvtj84Hy1iqQy1r21lotVPKrQbtkTGTkxCjIBIfkGE0xbGIuSbAyKN8c0bKUluDnDwO3ivpDpBigJJyJo1a9xYAbUXIpmfdNJJqnLlytYW+ziP7UcffaRmz56tr1u9erWb2zZOsgrNrWHjwJQ+4TQ8mGJJIpWJHLfDAjJ0r+WQdK79nPlLY+o6GLnpS0ux5gC83EBiHxNrzkt/duAAPPZYGhPruDGYPwxmr7nmGq+s2LVrl/r444+tMng51qlTxzo2dwAkEBQvEvTss8/qtAJVq1ZV+MFmBQCmqPZ79eqlFi1apCVHjRo1Uuedd56bZxTsZ2Cn6IvgVcpUrVo1LX3i41htjeegeDCFwfSwgAylwcglMEMZsPeGMYTIXYq4A0DmdiBY8QsV5kCBakk8lgpzR84kOwfiLY2BWzPsT7wRDF5N+umnn7TKBkkbvSVshESECSDIn/s1kjn6Ijgy4BcswRD5qaee0tKcMWPGaJAG9dCPP7ocUF5//XXtoYWEkybB2wkeTY888oh1+tRTT7X2Y7kDqQy81uDBlOb4L5P6zoll/8nSV1hARimX55Jd4oLAIh9iSiH7coC/Ro0vEfsOVkYmHIgwBziKL2KJ2IkAbuBqbRLACcANUgQgEJ0/Q1jkK4KdSqgEY9tXX301pMvXrVunQQwuhhfSJ598ottBTJrzzz9fRyI2gRjU/p72NEhKGS+ynoWOtA7xGkOi9xuysS8mzga/8ELhL+1EZ4idxo/4Bqeffrr+xTrWQTT4wPcIcsqIjUw0OCxt2pkDcLkGwdDdTvc/JClmRF14KzVt2tRiJQLowQj4kksuUd999511PpI7f/75p87dhPxNwf6QIZsJgAjqKZNg64gUBfzzBDHNmzdXyLcUL8K9gGci2fTUhit2vMaRyP2GKZGBQZXKJvWS2MlE4S7AHyV+yUJiH5MsKynzCIUDfP/HwzbG23jhGTRixAg3SQyk2nPnzlVt27bVuYmQwBEgA/TBBx8oeHMC9MDjySS4dU+dOtU85bYPl2p/5WZlJG9s2bKlecptH95SsH/xRieccIKOgA6XbHihIuCdCXT4Gqil4JIND67MzEyF6MbxJEjoIK0W9VJoqxA2kOFu+Wubj2UrHPDkQMEXqdjHePJGjpOfA6xWslQJcZoybEQQ6h82InCxZoIhMKQzUMeAkAIAgenwMQXVE7yAIM2YMmWKBjcIIMcEY1vkc/NFHMDOV7l5HuDKX/JbuE3D2Ngbwb0cwAVjBqjxFvHX23XxPsf3hCMt7YJ4jyUR+48AkHHZydBN7iQGkOmvkHDAOwc4EF6sY2d4H42cFQ7EjgNs5IvkkPFUK8EoFgkUOUUBcwCq63feeaeQjSG8hwBuoHpBQM5vvvlGq26QoRqgBhmlQUUF/rzwwgutuhdcEL139Wmnnabjw2BMn3/+uZYsYd8fQZUV6xgynuNh9RJJZWpVbzooe+faGZmedeTYNwfCBjKwk6nWdPCSHbv/aA+pDCNL311KSSpygKUx0AULCQdSjQMssW7dPD7eMcxv2IuYIAZGsJC6wP0YUhr8fBHSnADIoC7SApi0fv16n95QqAdVlCnBMa/13Ic6iA12PctwjLQFkSB4XSG6MfJAYfyeuZ0i0UcwbbB6yakcGcFcJ3WVChvIgIliJyO3UlEc4JDsdvPWKGrcdimHZyBehtt37dFDwjGHPWCvQZZ4oYIZOZklALWqn6ivdX39uV6o8uGhWRL1/9hbL97SSAAK2LoAkMB4F8fw9IT7MbstF8UMGP/iFwwh0zRUPYEQMmXjFy3KycnRAGbp0qVWF5A4ffbZZ17dzK1KUd7hv0VSL4lmI0heRwTIsBv2MkkgGST7U6c6P8j5jzV1Zh7cTE3AAuCCYxOgBNqaeQ3vL3cLsTTPagqgh9elX/e21r5VQXbC4kCBNCb+0siSJUvqXEYw9PVnUBvWhG16MaQ8MAI2A+HxUCGRgR0PvETjRYZ6SXsv7V43NSdeY0m0fiMCZCz10q697UeMnqYmjomfK1uiLUAqjNcu9gF25TXUbpC04IXHgM9zrCbYwAOvZrXKlq2FKWnh61hKg+PCkhtXXwySAHTYEJW33J8AG+Zo6Fv2VmKwGHpLkbkS2aP9EV74CC4aLsFuBrFogiUYDd9+++0+L4NqqXfv3j7LzQIYNs+aNUs999xzVsZssxy2Qf/3f/+n1V7RzvRt9utrn9VL4r3ki0Pez0cEyKBpVi/x14f37uRsKnKA74l42wfYhfcsdYG6zRtwgR0RXnrMr1BegKxOwpwL9gskArdf5+IGAx5eIx4TgxsAG1ZTYRzykRL8XVRgHxZf+5hAR44UAfiFS3CjDoVgsOsv+B68lgKhBx54QLtpA8x4EqRRt912m7YPgsu5XYj/VsVOJrgVieAKuryX8ADEQzGUh29wQ5faicABvCj5ZR1v+4B48wsvNHyds9SDxwOgAN4AuMT674YfnP17uNxZMQ6sGaQ42DKwwVgxbv7bFkkNr17RW1btxXptix5ZctdYvHix2wQBrHr27KmlPcjLZEdi6SqNzXuSKzsO2gZjihiQgXqJ3MZmEpIcKEkkbbCyNhkCG/mmaqZfvPgBXp6cXGCTgqWB1AViZDuCO4AbF8BppMcHQIN5MKgBoGFJDV7OAmp8/7GBb7zevmvZqwSeS57RcUMZoTdJSCDtZGdn+zUmPnr0aCDNWHUQ7G7QoEE6+F+9evWs89hBWgRE9o23xxIPCn93eDbg4w9RfsVOhjnjfxsxIINu8pzOLHLnG8h/vP67ltJU4AC/wFlNkgpzxhzxNwDbIJZG4RyrjOwS2RVjCoTwcIXEhqU13kAN5oZ5idTBnaN2s49xH533I8SZiSfBENlTmhLKeBAb5pZbblHXXnutQtoFb3TfffepzZs3a8PnF154oVAcHW/XRPuc2MkEz+GIAhk2+iVRqhj9Br8WSXcFG/nyCzzpJuhlQnjJw+Cd1QmoAmkUHk4uKYeXixLolDdQg8y9AGx9rx2nwZoAmoIFhTQLBONsocA4gAzd/ryHkKJg9Wo3FzyvDUPaglQL/gigCYTs3AiMJ0mH/XHLvmURBTKYptOZRlKZvMUilbHvosdqZGzkmGgSiFD44wlg2O4lmefOoAZSGMyfJVAANJg/DINTXULDz8FE4gNyLUXCawkB9MwUCIH+XSFwXqgpCgLtA/WQBdsMDhjv6L48dr5XxOCXOVL0NuJABjo9RPqFVAYPtmR+kBfN3tStgbWHVAIvNP7DTEZumC9wzC8VAIznOnoDNFh7kdAoSzKXSNI42JF42pJ4rnkgx/H2BoLkxh9BAuPKrOOqZRcgY4xZDH4NZvjbDc0/zl+LVAZXbFThL3LsC6UWB3jtk9ldF2ANL2uoVQBgoEJa+f64lAXvLkBznnpryig1IWuw5gl4A1UbfqlGLI3BvSEUOQ4gMaQvKlasmFXkK0M2V1i0aBHvqkqVKkXE5dxqMIwd/B3xPQOD3zCaSplLIy6RAed2r5ueTVKZTEhl8EKzo2dGyqxwHCaa7NIYvKAAYJiQCDCZARvPM9CtKaGBpxMMvtl1GxLaVHseJJI0BmuMTNeR8Fo6cOBAoLeM33p//vmnBhpwn0YwvGeeecatfrly5azjWrVqqd9++00fT5o0SaWnpxeye0Gyy2XLlun0DHzhGWecwbu22OKegVRTKDAORAXIoGsOkIeXWqo9uAJjffLWSlZpDAw3R4x2GbZi9cRTx/89jIcxgAsMnZlvMAwGuJk4ZnBSGD/740AieixhPk888YS/acW0DHmROnTooHMglS1bVtu1mCojJLDEeabWrVtbhsA///yzuuyyy7jI77Zbt25+y2NdCHU8pJlpaXkZ1HdOrPtPtP6ioloCEyCVoQ1sZVJSrAwepCKxx06yeSpBCtOq252WOzVUJ1ChJLP9T6TuXwAaVjehTTyg+wwbl/SqZ/FYCv8Oql+/vm4EtiwHDx5UJohBwY033ujWCbJZB2vrgii/cNO2E1lebk5nup3GZdexRE0igwk7nXmZDkfalmWrNjjpReCQh75db4PIjAsve6gQQMlk5A2pYkE8nEb6pRwZjqVWK5DM4hkAfuI+gXQGOaaS6V5JhhWdPXu2YgARznzg+uwJPHy1Z9q2mHWgKqpSpYras2ePlsqgXqlSpbQx8oABA3SaAbM+Uisg+ePkyZPVt99+a6mZzDrYR/LM6tWrq3bt2qm+ffuqeBsme45PjoPjQFSBjI7222zwmB27/xiNh1ebFqOCG53UTigOYI1BMHpNBtDqqUrCvOSlG94tCekM7ImwBTjEDwA4GVVNnKwTc7U7tWrVSiECLgj7kQAyV155pQYTaBPgwx+NHTtW5z1CnTp13J11du/e7e/SQmWYh7+kk4UusOEJvmfIBTvdhsOz3ZCiCmQw27y8vGxHWrFMEifXEcNf261/xAaEtYXKAJQML3u8XNmgFx4EEhMlYreKdY8g2jNUkaxqwn0j9nSR5XOgrcHAN9KEVAOBEiQpF154YaDVpZ5wwI0DUbOR4V4glXHmObNwjC921htzuWyTgwNQE4DefDHxpW4miIGtD1yqk0HCZLc7DTyF7Qy8vmBLh+cDG4rbbayhjIefdUYiwFCakWtSkAPGPZOegtMPespRBzIYkbvhr+uFF/RI5QLbcgCGm6BkMPA1QQxesHjRCkWPA6xqgtoOYAaAmFWU0etVWhYOCAeSiQMxATJgmMvw17ENYmR5UCXPLYS1ZJUS7BwSmQDIWJ0EyZLEhondakKtBDADctnOuOytYjcC6Uk4IBxIVA7EDMhAxZSX5xgIRr02dym8mBKVZzLufA5gDdmbB9ILNlBLRAYBxDAgA4gRVVLsVxFghlWTuK8SPRowBzRL5L+L2N8F0iM4YNwz7pbPwh6vHIgZkEHvyMPkcCh4MTnwkGIdsteRyUnbc8B80cCdFmAgEddUQIx9bjUASAYzfE/ZZ3QyEuGAcMCOHIgpkAED4MVEm/xAeWIvA54kIuHln//FuYQynndwOFxqQ5xPJINNATH2u/sYzMBbDFIyEzDbb7S+R8T5chIR3PuelZQIB+zHgZgDGe3FpAPlib2M/W6HwEaEFwurYWD7BElbXt5/7R3KORPg5olJ7zoTwQ5KQExg6x2PWgAzbKMEyUwi3E/x4JP0mZwcMMDv1uScYWRnFXMgg+Gb9jJi2BfZBY12a7CLwYsFBEkM1hL7ek2dzixWHWJdARSMP0hUsw1hHgzGxCbGNsviNhCWzOBkIj4n2M6BA+O5TS5JDhC5d86cOeqTTz5JkhnJNBKRA3EBMmAUvuIpfcYg7OMhlUjqCIw5FQkvf/bqcYGYqTkmHwBmdq6ZnoUyylT7C4CCHVVN5jwExJgraL99TzAjz4nYrdG///6rM0cPHjxY7dixo1DHH3zwgc4u3b9/fzVs2DB19OjRQnVCOZGbm6vTEZC6WjVs2DCUJhL+GgP85ib8ZGIwgbgBGcwN8WXwBY99qCPkIQVO2JPMl783EGOOGiD1v/+OnU9gZhZUTVAL2EU1YM5DQIy5avbdB5gpcM1OrqB59uW6Uo8++qhau3atmjFjhgYUn3/+udtwDx06ZAGcLVu2qKlTp7qV2+XgyJEjatOmTWrRokVq2rRp6oEHHlDXXHONat++vapbt65666237DJUGUeIHIh6ioKixoUv+OrNCPFTPiaAGRLHSnLJopgW43Lz5U9dLwFQKWoIkM5UbZI5msDMFgIzlGvLHjl1WKKEFyNekEKJwQFOe8EqJqwdq27sPgOXejWx7rXvv/9ePfTQQxZrK1eurJo2bWodY6d3796qcePGav369fr8//73P5WZmanKlCnjVi9aB0uWLFGrVq1Sf//9t9q/f7/bj8/9/vvvCrmakD3bFwHc9OnTx1dxXM6zSp7sDnPjMgDpNDQOVG86KLta08HOFl3vcCJbtpA9OIC1wLrk/3JCWd2qTYZm1Gg+ZBvaOIfWF3GE4kG9hz6m54GtUGJyYPgDUxNmDXms8brfQ13h//77z9mmTRu8+a3fvHnzvDb37rvvWnVQ//HHH/daL5iTJN2x2mzQoIHPS6+99lqrnjnWYPcpo7aTsmv77CceBfiox/OSPvKzaD5CRXAgrqolc2x5MBQlr5cdpIrAA0DUTCZ34rPvKYnZtXZ6Rigjcama/js/nl5NpqeVpB0IZRXtcQ0kM+yWbRd1pS/OICkmaPnqDb6q2PL8uHHj1BdfuAz6McC+ffuq7t27ex1rz549VfPmza2y0aNHq6+//to6tsvOCSecoJo0aaJ69Oihbr75ZoU5vvrqq2rZsmUKNjkotxOxRMZOY7LzWOKuWmLm5KsistIcCmqmgUCkVOaQbLjModhuIwVieNTW+qY5cqFGjKWqCXNhTysOtsbjkm1icQDqJLhlQ0WIe6hmtcqSMTuCS/jxxx+r++67z2qxUqVK6umnn7aOve08+OCDqmvXrrron3/+UZdeeqn66quv1PHHH++telTOdejQQQMu9Hncccfpvs1tqVKlotJvtBvNy1O50e4jGdq3jUQGzNReL2tnZLILrySQi88tFmkQw7PQ65vv1RTLAHpsFzMha7DYxfBiJPDW0/jXrl+vbIOFv6dEIEgmrrjiCkWqJWu4ADHVqlWzjr3tdOnSRQ0ZMsQq2rx5sxowYACCn1rn/O2Q6kbbsJhbs755nvfNcuyfe+656sYbb9Tjx3hwfOqpp6oqVaqoRAQxBfdMXo7nXOW4MAdsBWR4eDAAZm8mNu7jMtlGlwMQ1/OLH95JoaqT/I0SqiYzgB4AK1Q/0Xghwf0bhMzcIt3ztyqJVQYVE/J7wStuxGh7RwjHGO1O8ECCJGXv3oKxwqUa3j2BEADP6aefblVdsGCBuvvuu61jXzvLly9X5BDg9qtXr55VHd5GnuXdunWzypN1h+8ZfPwl6xwjOS9bAhlM0BWPpCDOjJ2Dq0VyQeLZFngM4AgqysU63HGy9I1jCUH1AyPcSNpGoS0Oeid2MeGumP2uZ08mrHEk75tIzRRqMABoUMEXdqRaj1w7cE+GB9K6deusRps1a6aeeeYZ67ionbJly+rAeKbHEuxQbrjhBjcJT1HtSLnbvSJRfQO8IWwLZDB+xJnBC9VUQ9j5gRAgz21XDTyt3myI9dKPNogxGeBa47y62tCbkolCOhMp0MrGoFApCSUfBwAUeG15rZNvltGdEYLewfUYEhQm2Jm8+eabQatkzjjjjEL2NJMmTVKQoMA92hsB+Jx22mluP0/DW8/yFi1aeGsqGc/lJuOkojEnWwMZTJjVELSrE03Co0keWpG7FfAly6ok8JhUSY5A4sREbgQFtlH50pmt+MKGdCacdYaqCuJZUSlFcqXs1xbUhVhjl4ppmu0GyHYyc+Yvtd3YAGLgkfT+++9bY4M9CVIOIFBcKDR06FCFeDImASS1bdtW/fLLL+ZpvQ9PIsSsMX+wr2Ei92u3MtQbM0bHUOUqSbdlLzcyr8hJuslFaUK2BzKYN9QQSE7IRsBQf0Tqqz1KfE2IZsFDSEBAkIhEwx4mGEbkS2cyWDqDdW55yaigxfKwtWEvJVY/BDMOqZtYHJg4xiVxg2TRbhJbeFWBjJDztmDuvn37tCvy/PnzrfEUL15cvfbaa6pTp07WuVB27r33XjV+/Hi3S+GSfeaZZ6oJEyYo5GfyRTA0BpBKZeJ7WDyWAr8LigVeNb41D+xet2//rrU55as2X0K2YRfQy6rSgsVrVcUKZdWZjWrHd3AJ1jukMBddMUZ/xWLo2qh33fSJdpiGXufd697FOjsczg5/Hzh03Jz5y7Qh8Bm0zpVovYuiwbc9q+cGY9BhV15YVHUpT3AO8D2xMGedvk/sZNSNsU19ZZHmsF3uxe+++0517NhRR8XlpYdB7cyZM1W/fv34VFjb1q1bq+rVqyvkY4KnEQi2OAsXLtRqq1NOOUXVr1+/UB9w/548ebJ1HmqmihUrqgMHDqjatd2f8++9955avXq1rouow5DuoF6oPwAs08bHGkSMd/jjUqm8W/E8jHH30l2sOECh79Mp6mFOfrRZJ9QQEg2YHhdFEHgEXjHfwMNYrVko/WCdEdmSx9uiy8g8xBfyR4iiyvX91ZOy5OLAth2/66jRWHu7PQv4b84O46K8Qs7y5cu7RcQlG0QngYeo3BCzZ892kiGwW3/0LNDHl19+eaE+yUvKa11KkeBExF+TIhXZl8dDXltm83HZxz2S//zKCeWZmarXJIRqyXNxoGqCGkTbVDgc2qYCtjOwixDyzgHwBrYw2ouHeAbexVuV5H2kBWe1Z5OOO1NgDMzqJl9eKpDegNgItKA12UtmDsDwl9WIdnsO9Ot+nma9Hexk4CYNiQUTvI1g2EuggE9FdAt7F3hDIa6LJ8EzyqTDhw+rd955xzxl7VMKAYUowgcPHrTOJeOO2MeEtqrFQ7vMHlfBpoK+2nNILJqJaLGwi4B+EQ80O4mX48ktvPALRJUuWxhybc+M55iC7RuAhq7JpJxN2Q5HXhYZdrbHnABasNZsUIm5sru1rH+wXE78+rgPkL4Ahr94DvB9YZeZse1DPMcza9Ys1apVK51IEYHunn32WTV27Fj9i8a4kERyxIgRaunSpTotQFZWloKR8fDhw9Udd9zh1iVURd68m6D2QnA92NkMHDhQAy+3C/MPatWq5e20vnbHjh1WGRJgelMhmXFwrMox3uEPNLGPiTHj7dKdp7oJyQmLUkPERXYYo05NFQuLKsEju6xXqOPAHKo2GZxJc8rFvJp3vv0YpHGm2izRkvTF6JZIiW74voc6xy4EtRfuVTyT7EArVqxwkkGvk7yInD/99JNXVQ79fUbkPHkxuU2ZpDNOAjbOo0ePup0noOIkgFWoTySNHDlypNt5im+jr6WAfdZ5Cr7n1p55QJmwrXqYFwX9M4tttZ//rMZ4hYLgQEKqlrzNz03dlO+qzWoIu4mavY0/UufgsoyYMIYUZgmrkfIlG5HqKi7tYA6Wd5NDjdn565/FIIm7/q4XnCKNicuS2KpTlsrgXrCDBATM4cB4LCmKN8NatmypYFRbs2bNqA+lXLlybn00btxYey7BQ8okeCoRwDJPWftw5z7rrLOsY0hyvv32Wzc1U4kSJazyRN1haQyNf0miziFe43a/m+I1igj2i5ccNUcqp8Fw186EGoJVTnjI9eve1nYi53Cn73I3XmZF5c1vDwAmO58f4XZhu+vzQVkWSWiy0xyOrD1/7B+IQd5+XQ/bjVUGFDsOsK0MgDxAfZsWo2LXuZ+eYCcDcPX/7V0LkBxVuT49QYUkm4gJsnlvxDLKRdi8LpKkzATLy/VeEQqiEbVgSQKUj5gABaiFZNfyAQFLqsSCG8hmqYAEBCuGtyLMRpJISNhgLpcELdjNa8PDCJgCq5Tpe74zczrdvT07Mzs9Pd19vlM1292nT58+/3d6Z77+///8P/xk4mTywkqgZ599NnDkt956q+jsLIRnAOkp5b/iv3jZsmXij3/8o6qWjsX+0wOOsZrpO9/5jlOP1Ai33367c4zYNuvWrRMgYDBLwZcGZEY6KTttokxQ6dw05B3t34fv7ZC7Tn13qSMyesaOEpqlWe1XAUKDD+zo+DJBFt2kFpAXvHHiyxpveq4iCUymPeqgdq77R7oLQiPJTLv8UisSmXMivT9vFj8ENFHQWhl93MiR6jHERUuksQBJKBUpF6RBF0TtLdVOt9Fb9KmLXyOj691bOCD39vaqqve///0qAaWbyOAENDnIsn3NNdcoHx9EDJarntQ1+JMGIqM1ynLZdc4RjDsVIZBaIqOlL/6gZ+FbgTd3W1gX4YcfhGazJAJzE6alKTi07lbj1zJiiyByeduWBEY5xrpPpX6/MK/UxqR+oisUUKcuKDiEx0MDos1L+LGCqTsJL1HSf8ZBHJmkKy1IQKlLOY0MklT++Mc/1s1VzidkrA4q0ldGZbPGSiiYkhDUTxd/WgNdn5StjmKuApMa+B1e6zylnshogIo/8G14exciI7U0ou1A0ewEUjOh+UO2fKu38OYUJ/MT3uCwJK+w3aPFUdsCebFyaTUfeYQd5ADkFKf1MtdBmvKUIQjEUQOizUtx08qUeiTcRGbatGmlmg2of+edd5y6chqZm266ySEkMBVdccUVzrX+HaxewqolXV577TW9m3iNjH4m8raVc4TiTsUIGENkNCJFQtMlj7ugpXFIzaHD89HGbX7CW9Sk8WMUscE5/eWI/XoUbS7a318wGx1VNXru1i3/33PIDu6pNfQAvlAQHeZCzBcLEQACbg0IfiTq/b9bCep6DNrpVx9Xcm3UbXbv3u0QDNy7Go2Mm8iU08i421588cVi9uzZjplpMJlffvllcfjwYacJllQnteB7X3/Xm/5SOtQ5NI7IuIEKIjU4D20NnITxhbNVRsAGudFF+9fg+IyZBXWr+wcUxAdF1+Eh1UXnW9F1mrDgGPcqUfrkeLry+YzUvNyRK9HG2OqMZWelRsYJhmYsEBR8AAJaAxIXB1t8JyBtRuFlKR4mrwGgFStWr17tnIImBHmSKi1vvfWW07ScRgYaFvjIwMfl+uuvd64rt7Nly9Hv5KamJoGUB0kt2slXfs93JFWGRo/baCLjBt9FalDtaGvk/3CL9CLPFtsqcqOJjd4Wz4Wx6ZPmopxkUr0kLpXBqc1KcX67rUwStgobAf1MaLV92P1X0x9eVjCOTc+8qC6Lw5hKjR+rgpB3SZezzjpLnHDCCfqw7NZNZMppZBDdF58lS5ZUdY+tW7c640BeJ5CtpBaECUHBd77a4Z+qESCRKQGZj9ioVgVTFHYzWflHFLUBLdh3lZbi/pTits91rhf7kqyorSYsqKO2BShUV5CHSZJM9ZarNWDV9cDWaUYAz8QZM6cptX2jHGxBWKAR8rz0WOIfUgN7bKPGVG7O7733Xo/ZRga1K3eJcx4pBNzZrcsRGVx41113iWp8cHDNH/7wB2xUmTu3kAJCHydpq5185Zi7+Rsw9JkjkakCuyK5wRVdxcv0tnjITZQIaE2ZNvFFeW/eKxkIaPNSlBoQaF9gLsAKQ5/JWMV2EnamV4aEeCrKMVU6W/39/WqJs27/4Q9/WJx99tn6sOwWq5DcpZxpCW0/8YlPuC8pu48YNbt27XLazZkzx9lP2o4OgoeQGUkbe5zGSyITp9ngWKpFQDloM69StbCZ016bl6KQOFD7IoTycfM758tQ9N2S5MzHG7lOdhnFGAe7B+LGIDbLq6++6jSDNqaaqLnPP/+8cy12qjFJeS4c5ODmm292zo4aNUrAtJTE4ooB1kdtTG0zSCJTG368ukEIyASSWWlVVqaDBg2Bt00AAm7zEohG2MQGfSI8gvZz0JCUC42A6K3SuXM+3sjjQGSQrPG8884TmzZt0iIIBMG79tprneNKdh599FGnGaIBjxlTWPzgVNa4s3//fvHAAw84vYBoVaL1cS6I0Y5LG9MWo2ElcigkMomcNg46k8ln4R8T9g8TkU0fAtq8FNbqpVLkRSIXqH0JQhTLbKVWRq2OxA9aI7WKiBcDTUxPT48z1GOPPVasX78+MEu008i3Awdcd0Te1tZWX4vaD5HKQPvgDBs2THz729+uvdMG9EBtTLigk8iEiyd7iwgBSWLacCv6x0QEeIJvox3BQUCGWgbxe1ErDYcSVVtrZfCj1ggiA1PSqlWrBJIyIt+RLscdd5y4++67Byy5XrhwoSIRWCqNSLr6I9NHKxLU1dXlkAz0tWjRIt1lKFv0j3Hpcv7554spU/SaCl2bjC21MeHOE4lMuHiyt+gQUN9g1MhEB3hS76RjO/kcb8uKgx8bxHoqbD1OrEXyMqyrFt8Gt1YmyhVMCO2PODE///nPBUw17tLc3Cw2btyoAtO567GP5JJ79+71VwcewwH3q1/9auC5oVTu2bNHfOtb33IuRU6m733ve85xknYw18VnkSuVQpo4EpmQgGQ30SFA/5josE7DnSr1k9GxXrDiSEdadckfCnlx9ad2bTvfZlmZVzY/u9uWGiOVIsXfJuzjz3zmM+K5554b0C1MQSAxkyZNGnAOFSeffHJFRCabzQpoTyzpBBRWefLJJwWWdusCTRISSSatQCuol+JzpVJ4s0ciEx6W7CkiBOgfExHQKbpNkJ+MJi4ltC6Qvu5RtRHSQcZD6jhw6PBKmJjmzLq67qivXbtWzJs3T8DBFwXmmZUrV4oLL7xQwO+kVIGpCI61SAqpPwiel8/nVTJHLKPGCiK0C5PEYDyXXXaZeOihh8QjjzwizjnnHLF8+fJSw4x1PeYYRXK8jv4eRmoPa7JIZMJCkv1Eh4BttyCs4MRxyc2vEh1YvJMbgVf2vS5XGP0mMAmrbFfUukSbiFUSgS4rM6xNaoGmROH4e+qppypH3m9+85viyiuvFJdeeqmAqaZcaWtrE/jUu4wbN04g0zU0MIhjg4LIvfCPwf1BxKopIF8wQ/3tb39Tl8GRuREFc6s1ff7l+I0YT5ruGZ7uL02oUJZYIyBXe/TKAU555qEbnJxWjR7w66+/Lg4ePOgMA2+nlfw46AuQyRfByNzlxBNPFPBZKFfgbLlz507x9NNPqz50VuDJkyeLqVOnio9+9KPi9NNPryqMe63ylBtz1OehfTn989cE3bbuWpegm/rrkPxUvqWvRS63B26/OjbPtX+cPB46AuNnLFEXS5PSglp8q4Y+Al5JBIhAbBCQRMbGJ05l2bJlcjG4cD7Spl/x8GSmYVu+hTrXoh+pmrfXrVs3aB9vv/22fd111w241j0Ovf+Rj3zEvvHGG20ZeXXQPvXJWuTRfcRpu/fA6+qZwXOD1BYFPyuJToyKHFsO4ztv6Q1xgo5jCQEBzCnmFnMco0cuNUPJpEYSCmIEAvoHCG+uaShYjbFgwQKPNgZ+ClCff+1rXyspIoKCnXTSSeIHP/iB59pSF7z88sviqquuEi0tLWLDhg2lmqW2Hg6/+pmJa0LWguOvtRfmB+1LkdoJMUgwzKU2KWGODRI9MlFJZCKDmjcKEwEdGyTMPqPuK4jEHHPMMcoX4KKLLio5HKzY+OIXvyhg/vEXOFnClDRz5szAqKo6gmt7e7uQL5r+y1N9HPdnBo6/+bylJn79b57GKqZUz4cJwmEOddTngkmpq9cEuaOWkUQmasR5v5oQwIoldJD0+DHSnDRAEwOfml/96leDBhK79dZbVVI/PwlZvHix2Lx5s5DmJvHnP/9ZbN++XbzxxhsCmpgVK1aIpqYmB3dc29HRIaRZyqkzYUc/M/oZiqPM8J2QXBSrmCzEG4FvD0tyEcAcomBO6RdTv3kkkakftuy5HgioFUsi0SuWgkgMVlLA5HPuueeWRG3Hjh3i8ssv95yHqei3v/2tWLNmjUAQspEjR3rOw9n3Zz/7mXjhhRfEJz/5Sc+5n/zkJ2Lbtm2eujQfOKvcis9QXGXFKiY5NiSVFCtWdsZ1mBxXGQTOv2SVE/iOq5TKgFXjaRKZGgHk5USgGgQ0iTl06JBz2fDhw1WMjM997nNOXdAO8sq4Q8nPmDFD7Nq1S3z2s58Nau6pQ5AzrGpyZwp+7733BExY7j49F/GgIQjAxER/mYZAH9pNoYmhX0xocJbtiESmLERsECcEbGG1YDxx93fAGP0liMTA5PP4448LRFsdrMBstGXLFqcJrvv1r389QAPjNAjYGTVqlIq4+oEPfMA5izEh0JgJRT8z+hmKs8xufxn4WND5N86z5R2bL3qvXGpNvxgvQuEfkciEjyl7JAIDEAgiMR/84AfF7373OxVldcAFvgr4xrjLkiVLhpQw72Mf+5haveTu65577nEfcj8mCMCnQrozXYzhgMwgoBpLvBEAiVl46So1SMaLiW6uSGSiw5p3CgeBFnSjEwGG02V9ewkiMWPHjhXIH4NAdZWUXC7nafb1r3/dc1zNwcUXq99G55KHH37YCVfvVKZwx/XMtCRFPCSWhKMoxnvTbRtskpn4zhxJTOPmhkSmcdjzzgYg8OKLL6rVSW6fGETsfeqpp8T06dMrQgArjw4cOOC0RbRfaFaGWmRwPI/jL/LlILMxSzwRgKOoXskEMoMfTJZ4IeAmMXJkzGod8fSQyEQMOG9nDgIgMWeeeaZwkxhIf9ddd4lTTjmlYiCg0XGX2bNnuw+HtP/pT3/ac52bKHlO8CAWCCgyI+w7sSx7uXQkJZmJxbSoQfhJTH9PZzY+ozNjJCQyZsxzmqScAmG042ZcBQvSxOixIhgdVgxVWg4fPuxpihVItRZ/Did3nqha+47r9a5nRj1DcR1nqXHlbbvdApmRy7KXX3cHzUylgIqwniQmQrAHuRWJzCDg8BQRGCoCyCz86quvBl6OFUgrV64MPBdU6Scyo0ePDmpWVd0JJ5zgae9PWOk5yYNYIKBWMmkyIzUz9Jlp7LSQxDQWf/fdSWTcaHA/CQj0YZBJingKM9IFF1zgwRbB6H7/+9976kod+LNoI3pvreXIkSOeLjIZfhV4AInpAcjMwZ61bdpn5vL2Ti7NbsBckcQ0APRBbslvr0HA4SkiUCsCra2tyrG3s7PT4xcjo7eqpJCvvfZa2Vv4NTBhaE/+8pe/eO47YcIEz3EaD1zkV5HhJMuoHYAhA+PMRDuTiOnjXmJNn5ho8Q+6G4lMECqsizMCvRjcvoN/jfMY1dhmzZqlllhjqTVSENx9993CHYwOTsAXXnhh2eSNEydO9Mj60ksveY6HcuAnMv57DKVPXhMtAiAz7jgzCInvImvRDsaQuwFjbxLIO3KGiB5rMUlkYj09HFxSEfjUpz4lnnjiCXH88cc7Ipx66qniRz/6kXOMHUT1vfHGGz11/oMpU7y+qUgKCY1OLcVPZMzQyDjkt7cW7OJ0LeLMIPCazHq+FyHx8UMLswdLuAgA0/EzlrjSDmRkxF6SmHBRHnpvJDJDx45XEoGSCICw+E1CaHzFFVeoJdnuC6+99lrxzDPPuKs8+5MnTxYnn3yyU4fcSJs2bXKOq915/vnnRV/fUesKxhnGku5qx8H24SCAH9R8/r35sjeVaBIrmpjSIBxs0QuCEGpTEjCWpiSLJCY8fMPoiUQmDBTZR+QIxF2FLt+QAzFB/Z133unR1Pzzn/8UX/7yl8Wbb74ZeA0qv/KVr3jOLV++vKol3O6LkUHbljYJXRYuXOgxeen6tG31MyOXMPemTTY4ARcSTYoOxJqB+YOmptpnGRjCoRoFS9/pD1M7pvXogUSmHqiyz7ohkIYfIfij+HMn9fb2iksuuaQkbiAybnL0pz/9aUAfJS92ndiwYYNyPnZVKadj93Fa9/f3v1EQzbJ60yijWtGk/Ga8piamNah+toGZ35SE1WLV98QrokCARCYKlHmP0BDI21YOnW3d4Y12G9oNIupo0aJFAwjE/fffL2677bbAEUydOlV84xvf8Jz7/ve/P6hJytNYHiBC8IoVKzzV8+bNE/PnwyqR/qI1MmmX1G9qgkaBvjOVzTp8YdxaGHkVTUmVQdfQViQyDYWfNzcZgV/84hcDMljD7LNr165AWG644QaBPEm6wBQFIvLDH/6wrJlp9erVYubMmR7fmFGjRol169Z5ND267zRvpZ90b5rlg2zQzsAMolY1WVYfHIHhO7NCpjdgCUYA2MAXBljJf4o+YEdTUjBWcas9Jm4D4niIwOAI5HNCZFKxMkMTiWw266xCQgJHaGu2b98uhg8f7oFixIgRyr/mrLPOEu+88446969//UtAM/PII4+ooHtIRInYNcOGDRMwP/X09IiNGzeKRx991NMXDm655RbR0tIyoD6oAoQHY6q0jBw5UtSSobvS+1TT7uhqHjxDZhSsampubcvJgIdt0ndm5X0PblH/O1dedo5Y9IW5ZoBQRkqYkbQfDJrCF0YubW8rcxlPEwEiQASGhoD8Um4ZN32xjU+cyrJly+A963yefPLJiof33e9+17lO97F4cWn5duzYYct8SwOu0ddKXxobH33s30qSYa9fv37Q8fnl8fdR7ripqWnQ/htxUj83cuxGluL/Tk7jMPu/rrKR5sDUsv43T6vvEY2H3OaAkZEPR8KFpmkp4RNo2vChMpcyd0Puo2/YOEpu6ejoEDNmzPAIgEjAv/zlLz11+gBtt23bJqCZCSryh8mzKsnd5rTTTlOaFWh9TCquZ6XPJLndsnrMTcWl2ljd9O//fbUwyeSEpelw5HVpYbq1Gan4/eKGjfsJQIBEJgGTxCHGHwF/PiT/8WASvO9971NRf4877jhPM5hm3n33XU+dPkD26scee0yZj5YuXSr81+p22CKaMHI9SS2RMjVNmzbNfTpwv5rxB3VQ6/VBfYZU1xtSP4ntBuYmx3+mSGhgctKExkX6Eiujf+Bw9NYERkfmlW1cBKazy38Nj5ODgJWcoXKkRKCAwPgZi9vlG9TKL509R9zcsYSwSAQQi2bv3r3ilVdeEVjKDd8ZRATGB34wfn8b00DDjxh+wCxLdCC0v2nyDyZvc+vSrGXlgcl83W7iuDFizqxpif7/AnkBKcPc7+93ojpDRElgMu0MaqdnO/lbOvsmfw6NkwCrTuQPUiLyLUU1OdDqnHTSSeoT1T2TdB+tZTBhxVK181L8Qc/CPyRjWe22sC7CDz+0NJslEZgrCc2Xzp6niE21fTeiPZx3EZ4B43cXOPHmbVsSGGWedp/ifsIRoEYm4RNo4vDxhWtZmVfw1rjt4VUmQkCZq0QAPhEoMvrtVP6QDQ4e/r/kykCppRFtsqWjpZnQ/CE4kVvQ1MSJ2ICkgrgUtt48UwXyYuVgTpOysKQUARKZlE5s2sXCCgMp4/z7V1+dmDfFtM9JXOXDD1wxVw6Cm2XjOs44jqsUqcFY8SIxafxY+RmjiA3qQHLqWbS5CFGag4hL8d7dkoTlaEKs50zEq2+aluI1HxxNhQhIH5ku+WU1/74Hn677l2eFQ2KzmCKgo0Djxy2mQ4ztsIraqy45QMSjaYGmRsgCbY00P82HCWrrDuEx42j/GrQ7Y+bHsVGER+2o/TFqFyQIxR1xed/Bgi+LrtOEBcc+Pxd1bfFPnxxPVz6fkZoXZqR2A2PKPomMKTOdUjnxVsZCBAZDQOcaon/MYCiVP+ciNWjsEJtMRrTIF4tssQdFbrR/it4Wz4Wx6ZPmopxkUr0kLmHAmY4+SGTSMY8GSlGI8ItgXlJ4mkgNfAIqFVm/ydNPolLEKmvnIzbqooLWBruZrPwjMpadlc7DLXLXXVqKB1OK2z7XyV7sS7KitpqwoI7aFqDAEoQAiUwQKqyLPQL4EpV+Mt0y7Pp8aGXqbZuPPSAcYCACWhsjT3YHNmBlqAgUyQ367Cp2rLfFQ26IQPgIMCBe+Jiyx4gQgJ8MbgU/GRYiEITAfQ9uVtX6WQlqwzoiQASSjQCJTLLnz/DRF5L/IdYFCxEIQkBlMlYnzEkUGYQD64hAmhEgkUnz7KZctqIau/uAXDlhUq6YlE9raOIhoisKYom4TB6h9c+OiAARiAcCJDLxmAeOYogIaJMBVy8NEcAUX6afibxt5VIsJkUjAsYjQCJj/COQdAAKJgOsTNE/XEmXiOOvHQHEHdFmJa5Wqh1P9kAE4owAiUycZ4djK4sATAYwHaAhnX7LwmVMA+3kKwOldRgjNAUlAoYiQCJj6MSnSWwkgoM81MikaVZrkwWZrlEQNE3t8A8RIAKpRYBEJrVTa45g2ukX5iU6/Zoz76Uk1U6+8nw3g6iVQon1RCA9CJDIpGcujZbEtjPtAIBaGaMfAyW8DoKnnwkiQgSIQLoRGJZu8SidKQgcOfRcb9O46QvePvJuC2SeM6uQrM4U+SlnAQFoYx7P7SImCLoAAAe+SURBVMRB36Gda1YQFyJABNKPADUy6Z9jYyTUS7H1G7kxglNQBwE991Ib0+ZUcocIEIFUI0Aik+rpNUu44jLbbvjK6B80sxAwW1poY4oJIqU25o6c2WhQeiJgDgIkMubMtRGSaq2My+HTCLkppHDIK7UxfBqIgFkIkMiYNd+pl9atleEKptRPtyMg5rqojeFKJQcV7hABMxAgkTFjno2S0rbzbRB487O7ba5iSv/UY47ve3CLEpQrldI/35SQCPgRIJHxI8LjxCOgov3KiK4HDh22aGJK/HSWFUDPMaL40jemLFxsQARShwCJTOqmlAIBgXw+3yUsqw/5duj4m95nAnOrcyodfK6zPb2SUjIiQARKIcA4MqWQYX2iEThyaOebI0+c/qZ8Sz/3hT17xX8umC5GNw1PtEwc/EAE/uOCQiolaVJagFhCA1uwhggQgbQjQI1M2mfYYPm8jr+dBiORTtHPv2SVFowOvhoJbomAgQiQyBg46SaJDMdfy7L2wvygfSlMkj+tsmIutUlJO3enVVbKRQSIwOAI0LQ0OD48m3AEYGIaceLMnZZlt+098Lp9yrQp1qTxYxMuldnDxyqly9sLGjaYlKTmTeUkMBsVSk8EzEWARMbcuTdGcvhOjBo/3ZJ5mLJbtu+mv0zCZx4mJTmX0pdbdPT3rOlKuDgcPhEgAjUiQCJTI4C8PBkIjDjxtF5pYpqOpJIv7NknFn1hbjIGzlF6EACJ+b+X9qGuu7+ns81zkgdEgAgYiQCJjJHTbp7QahVT82m5TCZz3r6Db4wGAsyQnaznANF7i5mthfSLkauUdr6ZLAk4WiJABOqBAIlMPVBln7FEwO0vox1FSWZiOVUDBgW/mJU/Xa/q6RczAB5WEAGjESCRMXr6zRMe/jIjm6f3Ib4MyMzEcWPFKdMmmwdEgiQGiVl4aWGpdYHEMLN1gqaPQyUCdUeARKbuEPMGcUPgyKGenXD+lePK/u/uPnt00wiLZCZus1QYD0lMPOeFoyICcUKARCZOs8GxRIbA3/t7cnolE8gMl2VHBn3FN3KTGHmRDHq3pr3ii9mQCBABYxAgkTFmqimoHwFFZsa1Tn37yD9aN8tl2dDKMMaMH6XGHPtJjFyhlG3MSHhXIkAE4o4AiUzcZ4jjqysCI5pbd2Yscbxclt26+dkXaWaqK9qVdU4SUxlObEUEiEABARIZPglGI6BWMjlk5h+t9Jlp7ONAEtNY/Hl3IpBEBEhkkjhrHHOoCIDM/P3Qzg3aZ+bxXI/qn0uzQ4W5bGckMWUhYgMiQAQCECCRCQCFVWYioB2ApfRZxpmJ9hlAEkhv/iQ69kY7A7wbEUguAiQyyZ07jrwOCIDMuOPMQEswZ9Y0MbppeB3uxi6BANIO3PfgFgUG48TwmSACRKBaBEhkqkWM7VOPAOLMjGye2Z3JiDORzuCxp3rEv3FFU+jzDpJ4+uevEfv7/6r6JokJHWJ2SASMQIBExohpppDVIoAIwDLR5AadaBIrmv5+5F2LfjPVIhnc/t6Nm8WSK2/RJ5EAciow1xXcEgEiQAQqRYBEplKk2M44BOAEPFIlmrTeksuzld8MTU21PwYwJd1xzxOqI0vYd/b3rD239l7ZAxEgAqYigDDtLESACJRBoLl1aTaTse+0bXvyxHFjxJWXnSMWfWFumat42o0AtDDaoRf1NCW50eE+ESACQ0WARGaoyPE64xBobm1rsaxMlxR8PoQ/Y+Y0RWjgDMxSGgFosbAqSa8Eky1hSsqWvoJniAARIAKVI0AiUzlWbEkEFALNrYvbrIzVLlUKUyY0f8ieO/vj1s0dS4hOAAIrVq5xViQJy+qz83b7oZ2dXQFNWUUEiAARGBICJDJDgo0XmY4AtDOZTKbNtsVKYEFzk/eJ8JuR4AtzsGdtm7cVj4gAESACtSNAIlM7huzBYAT85iYQGvjOwIfGxOInMBKDbtvOtx3a2dVrIh6UmQgQgfojQCJTf4x5BwMQUOYmS7RJUZX/DAgNfGdMMTnBB+an/7PRPdOSwIgumpHckHCfCBCBeiBAIlMPVNmnsQiUIjRfOnueIjZpAkYGC5T+L5tJYNI0qZSFCCQQARKZBE4ahxx/BLBc27Ly7XKkSkODEadBSwPyolch6Yi8kE0WqYHJSEfeO3LqiH+IABEgAhEhQCITEdC8jZkIKKdgy2q3hXWRRmCCNDvNlWanJGlp4PuydcfuoyuQisLAiTdvYyUSfWD0/HJLBIhAtAiQyESLN+9mKAIgNEJkpJbmqB8NoMDybZkGQaY+iBexgdYFxKWw3YOhOqVAXqwc/V8cSLhDBIhAAxEgkWkg+Ly1mQiUIjVAA+anSePHys8YpbFBXb0D7mlz0f7+gtnIFbgOt9elW5Kw3MHnOtt1BbdEgAgQgTggQCITh1ngGIxFQJMaAODX1rhB0f41qDtj5sfVKRAeXUB8UHQdyIku+w4WskvrOk1YcOzzc9GXYNsnx9OVz2ek5oV+L25guE8EiEC8ECCRidd8cDSGI6CJTSYjWuTy5WwRDsdhuE7w9ElzUU4yqV4SlzohzG6JABGoGwIkMnWDlh0TgXAQKJAb9JXJyj8iY9lZ6TzcInfdpaV4MKW47XOd7MW+JCtqqwkL6qhtAQosRIAIJBmB/wcAjK2zT0tZMQAAAABJRU5ErkJggg==;" vertex="1" parent="1">
          <mxGeometry x="915" y="200" width="258.87" height="251.5" as="geometry" />
        </mxCell>
        <mxCell id="BIOtD-0W4ChOzR4a4uk3-86" value="" style="shape=image;verticalLabelPosition=bottom;labelBackgroundColor=default;verticalAlign=top;aspect=fixed;imageAspect=0;image=data:image/png,iVBORw0KGgoAAAANSUhEUgAAAMAAAABMCAYAAAA7rrikAAAAAXNSR0IArs4c6QAAAIRlWElmTU0AKgAAAAgABQESAAMAAAABAAEAAAEaAAUAAAABAAAASgEbAAUAAAABAAAAUgEoAAMAAAABAAIAAIdpAAQAAAABAAAAWgAAAAAAAACQAAAAAQAAAJAAAAABAAOgAQADAAAAAQABAACgAgAEAAAAAQAAAMCgAwAEAAAAAQAAAEwAAAAAKxWFzAAAAAlwSFlzAAAWJQAAFiUBSVIk8AAAGg5JREFUeAHtXQm8TdX3X+Z5TCTznCIk4f3Iy0yZKmM0KJVePmZ+xqJfSL/yk+SfoaQiRJSMUSQ8oszzPCXzzDP9v9997z533/vuxD3vPXSWz3pnn3322Xufdddae6211zlEHHAo4FDAoYBDAYcCDgUcCjgUcCjgUOCfRIFkt/vD5s9X+sbtPkdnfncuBZLfuVN3Zu5QIHIKOAIQOQ2dHu5gCjgCcAf/eM7UI6eAIwCR09Dp4Q6mgCMAd/CP50w9cgo4AhA5DZ0e7mAKpLR57sXQXw3gHODeAH0XRX1F4E7gigBtIq6+du2anDt3Xm7c8I6ipkiRQjJnzhSvPuIBnQ7uSArYvQK8AiqMAo4NQo06uPYVMCZIm4gvFS9WRP46slVOn9nrhZu3uGTOVzAiHZByljZtGiVc169fj7Q75/5EooDdAtDMPe8ZiTT/gMNs37FLHi3/hBw/dtyrTa5cOWXylM8kTZrUkszGbcDLly9J//49ZOb3E6VSpUfl4sWLXuM6J7cnBew0gSrhEQsCaXMkuQAkT55cmUAVKtSUnxZ+J4ULc2ouqFixvEyY8H/SpUsfCEIaXR3R8dKlSxijgMKp346XMWO+lM/GfSUHDhwUzsWB25MCNupAGYZH7ATk+j/Tz+P+gbp3gDR9PgbSDGoDDAqRpkLQ1KG2nz59gpR++CGvsci0yfDPDrgBuU+bNm28rurUfkY2btwi9D0cuP0oYNcKQC5q6n48qrsmfh41o5+6RKkqU6ZUPOY/c+as7N61V5Iljy8AFJr8+fNJtmxZrPmdP39Btm/fGVCbX79+QwoXyi+Zs2RW97D98mUrA7a3OnYKSUoBuwSAjm0e4BlgXeAVoIaXUHgDeFRXJNYxLu6KVKlSUdn85pinTp6WVq3ayZo168Cg8QXg8qXL8uno/8mzTRtat21Yv0lq1nxaMmXKYNWZhQsXLsqkSWOlXv2aErtitXTo0EP++utv1cTR/ialbq+yHQJADvqP+7E+xXG5zyO2d5//6lP/CM5/B1JA1vtcs+X0qadqy5ixw736Ynh04MChsnbtBmUa8ZzaO2PG9JI7932qberUqSX7Pdm87suYMYNUrPiIanv69Bmh+XTixClJmTKF0vJp0lyXgwcPyeBBw2TkyHEweZLDyY4vXF6dOidJTgE7fqHmeIpvgNT6hYAHgSaQycsDSwE3ArUPgKKC8/j7MnCy69T77636AFlgijRsWNdtgrgek8y6dOkKWQ9tfvXqNTVQTMzL0PSNJH369HL//blUnT9bXs/qClaVU24BOHjgsAwd+pEsXLgYAuSy8MjzjsbX1Lr9j5EKQCo84mZgEeAXwJeA5s5TJpzT9CGT53Bf0wIwC+fpgdWBhPeBvYAuzmQN4FYFgHY8tbsJZPrMmTNKqVIlpXefLlKhAhche6B/v8Eyd+5Psm/fQbWy2NOr00tCUyDS+NyrmCCZ/xJwAHA0cA6QzE6gY8w441KgKRg4lVPAesCveALoDpwLvIcnkQLNj5QpUypMlSqVEoam0PSzZ0+RaYgI2cn8nOvAd3rJvPnTZPz4kbaFViOlgXN/aApEKgA93UP8F0euJi2BdIL/BFYBPg8k+Nr/rlqROBTYZpC7oiaOP7vLthy4K5s+fToZPXq4fDxyqBQrXsRtFtnSvVcn2bJllbr1asgXX3wiRYsWVsLn1cDGE65wV69eDRO9V0LfaejVkv1du3ZdKQvW/RMgZYQPuRj3VwMOBl4AVgB+C3wQ+AswBZAw33Xw+5eU7gPcCxwJZF+2AKNAjz5aVoYNe1eKFitsS5/hdFI5qoIsXDRDvhj/jXTr1k8yZEiH3KNw7gyvDZnz3ntzSOfOr8MpD512cf78RRkxYrQwNGsCGf7s2fPy0EMlJCqqopQoUVQ2bNiCFSyVrFy5Rv78c71kzeoJBZv33i3lSAWgHwhBZteUpT/wGJDRoOeABJpE61Qp+B+aT4uAO4I3C+8qGaNu3eryOUySpIIXXmyh8oP69x+sokZ2zYPC9DA29Vq3aR5Wl7t370Nkyjs9i2bhCy+0kL79ugmjXv5gz559UrvWM3L58mV/l++KukgFYA+oQDThPE6WALUA0DcIF2xj/gYN6sono2iZJS00b9FEsmfPBmZ7A4yWyqYs1BuSJ0/usB+M4+qQLI8MDowa9YHUqh0dtA/fFYONeS9XIPpXdsKVKzS/rqLLZDBRkwUUynDGpPIjhjNHe5/CNbvKOIxwT3QKjrHucqIc+ODp0qVLcOY/e/Yc4v6HZWXsarWhtn//Qewe51UM0rjJk1KkSEHJmzeP2g8go40b95G8/HIHoeaNFMiAFR4r59XNxyPGyI4duy1GNy/u3r1XTp06rXwf7oBPnTpeatR83GyiyjQZKSwatm7ZLleuMLqNCAbGvO++nDApyymB/umnxXL48F+6aUTHy5fjpGvXGClevKhi3O07dsqoTz4Ly7zTA1OwSVsqhmIwd/mcS5fGQgi0Fa5beh/tFgCqpWlArqn7gK8BExXy5csrEyfRmko4GP6/T2XixG+xEXYCdvVFxViM/8dCGAhTp86E7ZxZcuS4R3r+u5NwQ447xMM/GiI9e7ythCSS2dFkyZLZlXKh++F89u7dDwFIrqusI+fGhDwqh1q1ouMx/4cffiILFvwil7G5lz5Denm8apTyB8iY1PhkrpPYPd+56w8wmYtlGjWuL82btY34WTjJc1Am3Xt0sOY7ZsyEm2J+3pgJ73gsWDAN6StZVRSuXNlqIZmf99kpAAXR33dACgHVRisgQ52JBvyxnn76KSlYMH+CjLl92044nn2Ug5guXVo1hmYIc0DuAjM1gqvCq+06yvDhQ6Rps0bSqFE9+W76LFm0aIla4rVZYt4bTjkDmDR/gXxWUzL2unUb5Z57slt1/grc8WZ0yoSpU2bIMAiAmbG6ZvVaxdj0Nfic7D8Kjr35rJeQLhIIuFpoMJ+RTrcGjkdk1MlcjTjWmt8ZRAwP2CdXqVatnsUKlUvddAQpKExH1+MFM4XsEoBGGHk8MCuQlGkK/A2YaBAXFwc7u5V0QmTEbuAPyh+ybt2mwnE084cah/dxWe7cubesWrVGhr4/QCZ8OUrtRr/+Wlc5duwYrqf2MjtC9cnr7JfCrmHi19+qUK8+D3TkvFu0fDrQZaueczZNNTLqFphDy5atUoKwbesOeWfg+15z4M1kXvoNZMRcuXKAwVOolBOaVawfPXqY5VCvQL7UrFnz8CzXpVChgrjbBRTSv48e16fWGP5219nnKPh5PJrp7lwF3nqrJwQjTu3Qt2/f1W+mLgeJVABoMA4BdmFngItAZoLO40liQoYMGRAZeTAsx+dm50Xmr1G9kWJ+U1OG2w9/vAkTJkvp0g9Jm+ebSXR0FdmyNVa2bdshC+b/IvPmLYIwHFea7MCBQyEdQKZtFCiQ1xqeqw2Vrql5rYsomFrYt03TZo2VLzNq1Od4f+JcQPoxpbx5s5fAwHFqJWCfvkxZq/YT8u5/+kju+105VXoO7w8dIUePHpPmLTzC9+efG9RlrgDR0f/STZVArFu3QdGAz1i+fFklWBRA0uYohIMrLBVA9epVsbI2tu7VhdSYa8tWz6jTzZu2BqQLG0QqAAXQxxtqJFeoszXK693niXbgj8qwYKvnnk2QMelgbt++y8tMuNmByEDDhn2CjbLqKobP++n0EWPefAXx+HMQsCvQsrHSpXNfJWyBxiADmKHLixcvoZ8i8VYSCgU1+ebNWxWzXrhwQdav26RoZfbdqXN7ad68CfyaaTJo0IfQmhnMyzAnLslYOPFFixZS9UwpeTOmB1aFbeqcgtO3b3fp3EXnPXrdrux7CoAG/l6HDrkcaI71cJmH9CVZt3aj8kF69emMQEIhL+GlSdmi+SvqJSMKTokSxaz7AhX27Nkf9HeLVAB2YGB6L0WB/YFxwFBAE4mhUq4WtgCX2G7d37SlL99OaOvOmjXf64cw23DZ504zN6bYlhmhJnOabffvP6BSpNnWFzJlyqiq+O5C9uxZrVRq33a0d2vXqe5V3bHTa0L0B4xS1avXTDE1bWEm7zEqlTPnvV7NqbW7dotRG18UAm0/s1Hu3LnkwQdLWKFXPufevYxxwN7FHsGAAb3kzQ7t1Dn/MOJ08uQpJTj0S3LlutcSel6nANBn4SrCyFKWLJ7NNiqKcZ/rICJbeyBfvjzYWIxRfhhDpYz0dOrYW9Ij6jdoCLekXMAI1awf5qnV7Mcf5wdNTYlUADjiWPe44R7Y/mbvCdo3szejorj/Zj9wqd20aYtfAeAP+eCDDyjbNkeO7HIJzEDi9+71jhcD6VlRG8+cMRumEPcO48MvPy9FOLAfoksn419011DzFS3i7cgGbIwLK1f+YUVDyHDsO7paA6Xx33q7p2JG00R6+ZXWUgYauUGDlpYgM9PVzJClGch3HZhxy6jbc63p8rkYm4JTtUp9tYLRNMuMaBXzo8ywLe9nCJm7zFwB0uFjAhpKGbShr1Ecu9Oks57jvTlzqDKFefr0H0Dna8j6ZUqZB74YPwmBhl/RzhX90vd6WnhKyT3FO7NEjVivXs0Em/ySxb8F3MXl+8SDBveVAgXzSQb8kNR2zzzTQGlL/mi+QJuZqdO+QC06d+5CefHFGDl+/ETQECCft1atalYXNE82rN+sNCq1qom0m48c+RuM4PmZyXx0GkfArOvcsY+KVFmduQuPVignTz5ZGz7JVVVz3333gtkzWc1mQ6vq/QLa4XQ6CWS0N9p3xzOcVKuha6xz6v0L62YUZv+4wLo/F1YAhl41HDlyFFq9l2TLWggJizWlVct2ql99PW0aV/SN5+yfTF6tWmV9WR35ORyaiaR3MOZnYztWAK/BE/uEWmbAwF4JNux6MBejGf6ATGAu32xDzVQBDLRmzVq/DmWKFN4k5wpTv15z2bVrT1BnTY8fByf0PpgkGpb+ulzatu1gRUt0vT6SSWhW+AJDqVO/nSnTpn2v6PdSW0atPVCy5APyA8wIMlKZsqW9nmXbNpc/xNXo8cejPDehxP60OccLbEPzyYRtCCeTpjQfC/mErGvWaKxWKX67iUDFsBMbfEXc/schbL6ZykX1Ubigass/vPbbb7FhR+o8qsHq4s4q8MelDZ5QUL58mYDMRe3L3VJfWLx4mRfD6Ov8cTIYc6VTV7lSHezg7gqq9fX9/LGfgMY1gVqeWk6HLn2POlJDGpmhU/ZB5uY70QzTbtiw2ewWDArVCiADR1X2Ni/nzFmA50ul5vyYsSPNjTi9MujOGDWqio01E2bPnq8iSZxP1L8qWZd2gg400ahETKCwaliPVc4UAK663HDUcP78+aABBN1OHxNCAOqg84F6gIQ88sepX792Qg6hzB+T4OZg/AF79HgLdv0cVX0QYbr3hgyXnTt3m82sMmPcJeEzEBiNqQ/nVEdDrEZBChQA342slO6d2SC3KX+kfr1aEh1dVUWbfNvyOUqW9NbSX345WfkAjNPny3e/dQsdT1dUyWV+8DfQQJExN8hYpillbnTRPNmE0CQFk/TInz+Pvh3RncNeJovreQtZKx7Pjx07YbVngWkvpoAwiqSF3qthgBNvUQvQ6CaqGT+bBOQLtQuBi4G+QHWSz7fSOF+K8hHjPEjxhmV/BmkU0aUaNaNV9IORDX9Ae/rVVztKmzavK63GFYla2B+Qme5HtGUHQqp8KZ/MRC18M8Cvz2kgQ9D+d72KoWvjH+lj9Px3R8mJaMwSrE7vvvsBIjVnLDNh4MDeXvOYPm2W2pfgKnAVfkCJBzzhRr7wb2pomlgauDs9YsRQFe7lm3clEKb8FJtfpgJxfYgguaojrR4w+l6JzUKzPwpmjRrRunvlk9B8MoEpJ4yamUCBYCSO8zcF0myjy3YLAMObg4FDge8BPesbTtzQE0fPjoiu9Ry5szHTcxq4RMLyY1QJCWRQ/kgrVvzudxjOgRESM0rityEqyTh8bXLMmC+s5LRAbf3VkyEaNfZEPDj24cNHlCPor72uy5YtG17Hcznlj1eLEiIFOh3mnQp+jGY6F6Mmwws9k5QmpoCV9LHf+aEv7VjyPpp7TPPQwI2+Bg3rKHr4mkNsc+jQYdWUDvaLL7bUtynzbC3eP9B98wLnU6SI5/fl83PD0AS2cc3bVcsw8pSpn0tOhJrfe2+4/AiHO5iSiVQACmNYxv9N0AZ5BVSONy+gPNU4n4DyAeO8O8pUncwjCgv4Az0CGz0hgdr8pbbPYYMq8m/8kGH4kSyCZrqbmTuXdu54m8DUjFDA3KhMmTxRHLb396ILtSVTNGJjf1exczKpb4RtORSBnjuPFGZ+aS+/sTOt+6YpyKS0M2f3WVNknhGZnExr2u7nzl1QJpDVUBWSee15XL9+TbZu3a7Cr7odo2L6AwesYzSOn6Yk8Dm0L6Mq/PyJVAByoc8X/PTLKq6Nvte2GW0/RnmV+5x74b2BNPB+dteFPJAZTPsv5A232KBu3Roqbj5+/MR4DHiLXd7SbUy3LlTIoxEpEOGkJJMRJ0/+TvkPVavGX5SZPPbWW0NUWjfj8/pzkdS4ZcuW8prredjwJmzevA3Zri2UIure7U31e8TGrlF7J1OQaPf00w2s5jTFdu7co84puK+0a2NdS5UqhZw+7W1mMq2ZG2UapkyeGS+ixZd9Rnw0Wn3kQLfjkd+E5S4w9yqCgcvVD9Yi+DUyObfxqgIHAFsA/wZqoHG2Bvg5kDlDp4D0EWgC0RfQAjADZa6jNJ1oIlkQ7KsQZP7p333pZUdaN9pYgLKC1sInK/49UL76ampArcIVKQ1sz4vQpCrCwpvcQI2XN+/9sPvPAc94LfW6TagjNR0dUp2Mxz4ZkjSzNAP1oVObGTauVKm8FXVahY0y5s6Qllqz6z74PMWKFVFt+SjU3H//fcxypDm+NllYduUkuV6W0Xn4m7fEqrAo2+0C85fHB4sZ4mTfFGZtnjANhFEk04HlploB+BX0FdC9ijBR4HznyVWAz1cW4VquEpwjTcNwPoMf6QrAEMBJIEMxZYFvAz2GnUhnnFMIagF7AF07KygYwLBIQ2Ac0P8euNHYLDIpTMeLzXq7y5qPBw/pj5BreuXkmbFujsdoSIkSRWTSN2Nl3NivZcaMWeoFFZ1Xw1yfZcvnCeP2DRs+5xUrD3e+ZCrfqFE4zM/+yUQEhkOZ16ThHuxgBwIy2g6EJk3QDE8Gpm/EdyBIC9ZTiMi0RIaIR45837rGPmZgF1yvLuybr1yaYDI/6+kzMQHOBF/m5zUd+uWnKzVwThTKUEANbgdQ+1O7cwV40t0hE146ATmL14H+mB/V0g1IVTkeaPoEOA0OJEYKYGJCv/7dpFfvLn6JS4Izx6ZX704Su/In+R6fSucmEF+J5CuIhCpVK0ttZE3SvLgVIKOZGGkfoe43x2JZA7X9h/jYwKHDm6V9+7ZIs34GAlFc2rV7Hm+/jZDVqxepjEx9z8cjxqrokxZE9hOobz1GuG10e7M/XRfq6HmiUC1DX++IJv8F9gUyAkRzho7tOOArQA3TUNAmEBl+N5BbrcXdZRw8EMwEYk7NrB+/8TROxBIzRAcPHuYVEuRSPGhwP0Q3WnnNhBEX7Rjywmo4gvxqdGL4L14TsfGEyW5Hj+2wVpZgXc/6YS6EpFs80yXYPYl1LVL1Se4750YyfEpgP/d5VxwJLwN1m3WqxvOHdj8D2zR/0nuqQ5eobZOSgZj9SI1jrrJciufNXRRv8ibz8yI/P/LIIw/Ha3cnVTCydAJ5S777I/xmKvc36Jz+CnOvwVMt8aJSzG3J/KQ3GTYS2IabY2+ig4Noa8bxxuK8GpCm01xgZSBXhZBAbdu4sba2QjZPkAatWzfHiy6TvDa+XAloR1UKsDnoPjh4R+CcMU+IfkFVmEL+HDrzntu5zBWA0R+mRDATluYoFcIZfDc1Dr8Nk/ro8NNv0X7Q7fg8kQpA/1t4KJpAGugXtAbqI4WgDDCogUztzwzEm/k0CPq0HZYs+c0rasEBGH2Y9u338gY+umtCVFRdlYXZpMlT6osR/P8H6Ej6c+rM+27XMuet0xL++uuI32n62wjz2zAJK+3wAdJi/tFhPMNatOE2oOkD6DAofYD9wNzAKOByoAJ/PgAjKvzyWrlySWtGMGXXNwrFaFC5cqXlh1mM9rqiQ5079YZDPEc5zmR6CjBNJx0qVA2dP0lCgUhXAE46P3BOGLOnSvwsQDtq/K+BjAjVAFoCgHI84Msvvim28RolcEXMG939Lu2Ma/MT7Ax3MuLD9365gaZz5u9UjZ/A5Eyy7ql5IwXmonYAbgS+DfzRB2nePAD8HvgHsDmwJHAM0AzypsM59xDOAq3QTpYsud7GuRdwI4m7wExVTkxgEht3M5nFyaSuQMBErFWr/lB7AzEx3VViVqC2Tn3SUsCOFUA/wU4URukT48iXXRntCQXF3A32hmrInJX+/QepD8+GamvndW7M0HwJtcNIZ3DfvgNqjoHeD7ZzXk5ft04BOwXgZmdRBzcwB+gwsDCQu8aEoOaPqwm3xVMnmWalEIQCCoHD/KGolPTXk1IA6OzW8yHBapwv8KlzTh0KJBgF7BSARzDLsX5myhwhf7AQlZeAzBW6AlwGHOQu4+CAQ4GEp4CdApAX02WkJ1xYgoYfhNvYaedQICEoEGkqhDkn5gAU8oNMkXDAocBtSQE7VgDm+ZD5lwL3AH0hFhXc4d3nvrAfx63AC+5z5+BQIMkoYMdOcIJO3t9OcIIO6HT+j6KAnSbQP4pwzsPeHRRwBODu+B2dp7hFCjgCcIuEc267OyjgCMDd8Ts6T+FQwKGAQwGHAg4FHAo4FHAo4FDAoYBDAYcCDgUcCjgUcCjgUMChgEMBhwIOBRwKOBRwKOBQwKGAQwGHAg4FHAo4FHAo4FDAoYBDgX80Bf4fIPpp4tAEqxsAAAAASUVORK5CYII=;" vertex="1" parent="1">
          <mxGeometry x="1350.47" y="347" width="101.05" height="40" as="geometry" />
        </mxCell>
        <mxCell id="BIOtD-0W4ChOzR4a4uk3-87" value="" style="shape=image;verticalLabelPosition=bottom;labelBackgroundColor=default;verticalAlign=top;aspect=fixed;imageAspect=0;image=data:image/png,iVBORw0KGgoAAAANSUhEUgAAANYAAABSCAYAAAAowirgAAAAAXNSR0IArs4c6QAAAIRlWElmTU0AKgAAAAgABQESAAMAAAABAAEAAAEaAAUAAAABAAAASgEbAAUAAAABAAAAUgEoAAMAAAABAAIAAIdpAAQAAAABAAAAWgAAAAAAAACQAAAAAQAAAJAAAAABAAOgAQADAAAAAQABAACgAgAEAAAAAQAAANagAwAEAAAAAQAAAFIAAAAARKCCWgAAAAlwSFlzAAAWJQAAFiUBSVIk8AAAL7FJREFUeAHtnXl41dd5548WBAgtgITYQRIgMIgdszo12HjfYrvxEiee+I9pVifPpM200z7PPM7zTKdP58lMm8xM2zRt46Rt7MTLxMaO7WCzG4NB7PsiBIhdiE0LWpnv57064upydXUlXQmc/F6ew736Leec3/m93/Ou51znAgpGIBiBhI9AUsJr7KUKT589f62XmgqaCUag0yOQ3Ok7ghuCEQhGoMMRCIDV4RAFFwQj0PkRCIDV+TEL7ghGoMMRCIDV4RAFFwQj0PkRCIDV+TEL7ghGoMMRCIDV4RAFFwQj0PkRCIDV+TEL7ghGoMMRCIDV4RAFFwQj0PkRCIDV+TEL7ghGoMMRCIDV4RAFFwQj0PkRCIDV+TEL7ghGoMMRCIDV4RAFFwQj0PkRSO38Lb9/d1y7ds01Nzc7Pj0lJSU5SnJyMDf5MQk+r49AAKzrY9Hut9raWnfxwgVX39DgWA4AvPr06eMGDsx2GRmZbQDXbiVxnACoUDiA47gtuOQWHIEAWHG8FBi9pGSz27JliwNkUJ8+qW7atOnunnvvFcAGxVFL7EuQiNVVVQba7OzsAFyxh+uWP9sbwLpNo1Cssktl7y0/IlE6mJKS4iorK92a1avcoUOHXENDvamACxcuciNHjXJz585zqandG8rGxkZ36PAhV3m+0k2dOs0Nzhnc7TqjPErUQ0wcDZLGly5dsvN909JcZlaWqbpRb4hxsLGp0V1WPdear1kdaaorkqquXHFX6+oc5wYMGOAY354mJq6mpiZT6VPVXko331dH/e35J3Lu2+rE/1GpVFnZUYfiPf8n3/vTl+K9trvX8eLHjB3rYIjDhw+6K/rkRV24cNEky+zZs12/fv3sGMc7XcTYNdXV7rVf/dL97Oc/FcP1cQUFha5///5dYu7OPu+1a83uzJkzbtXKFa609LA954gRI+MCdrjaigl6+fJl9/G6NVbP4ME5Ll3ACbdD+b5lS4nbsX2bSX+kPWMXSdTLOFIn3+MtzoXu8Wq1r7e+vs7eFyo9xNiG6uZ9dVx/yABwcb+P7k2zvte/45+8pIEDB7qHH33Una88795++y13vqLCVVVdces//tj96Id/6/LH5rtm3lQXCNPq6tWrbuOnG92hgwfdq6++6k6dOuUefvgxN2PmjC7UGP8tMOyVy1cMVPv2hhSK8uPH3G2TJ7shQ/LagCK8VpgeyY2kRRJUa2Kg1F2tc3t279ZYNLuJk26z5xo2fLhLT083puTanTt3uOPHjjnAi9RifOlHOJ04Ue5275aS0/Zw+CVRvycJuIMHDXK33TbZQE3dlEuXLrtPN25wRzRxTJUKv3DRHSalmUhOnzwZsxks3/7p/TUmxW6Q6o5HwgbAivp6bjzITDuhaKJbpBeyVbYWwIK5josJ3333HTc0b+gNzEEtIXdEqL5YPNKkuk6fOW2z+B4xVL2ANnr0mB4FVrOYHOm7bdsWgWFXqyrIhLFv316XlZVtM/uNo+F032V35MgRV3HunI1DTU21MSfjgPTrI6l79WqtA6wzk2ZL5Ut358+fN6AdO3pUqvV5d/r0Kbd37x43MHugGzZsmAGBtpqkTp4Ss2/SRCNYRGu+3WOAKFuTYN++/fS+ikwaAloddmfPnrH2srKzBK5pNinsU/sHDxxotz5/AglXV1fv5i9YYA4rf7y9z0QA6x5V/nx7Dej4zJZzT+izIMZ1P9G5NTHO3/RT18T8Obm5LnfIkNa+8CJh0AsXKk21aD2hL8zOMA8AhAZo1s7SS09NuXHYuQYwQXgckX4wYogpOsdcVkkH/1FvdU2N2XUrPvpQ0rfa4TShzzU6vmnjRjeucLwbMXLkDVKLZ65U32B8AEnfmXjy8wtcbu4Qk2T9+vczUGyV2peTm9P6vVoABIR9JKn27Nnt9u/b55Boi5fcZeov3YaBz5+vMHD17dtXjJxhYyuFLepThUYHqScHkKQm0g4NY/iI4a1qZpZsxvT0AXZ/1ZVqm0SQlkwsdXVXTcJelbS9KucU9nJmJjamFEvGqarKxuWC1MjbJk/pNWBNVm+/FPWJ2x6coj8p7dFqnbhlgQUzAZL3JJ1KNm9qfYZJUne+/o1vuclTJpvBbif0QmDcCkm1L33xWZu5OT5vwUL3R3/0VTd02HD9JSbxfKLrq8XYP//Zy1IDf+GKJBm/8sILbunSe02NsToT/F99fb2pWjwPjplsSaeHpOqePHHCrVu7xh09dtRt3vSpuyvrHk0G2TxQ2x5oPHA8EG5gUhk4aKDGoNiYkrHq3z9dTN1fUqHBgIpj5OSpky5TIEHFhGlxYFxQ2xUV5+yZx4wZa2pWbW2Nu9xix2LbPvbY465BKmejHCxRSZVhl9ZU17r3frPMHZOaefbsWVNL/fVpaX3tGvpG/TXVNW7UqNHugQceUj+u2t9btmzSZPGpnmWQ+/KXv2Jjj9R9+623BNbjks5nbdLwdcb6vHHqjHV17HNv6vSPolzyko4tVvlblV+rRNJ/1oEHIw/ean+jRrz7zjK3evXqVpVp1OjR7r77H5B6uMjlDR3a2uUGMS2ggmGvoyek4jCTjxgxoo03zKSHZsVp06e5Wr3IpUvvcfPnL2hTZ2vl3fzSJIBcvnjBbd++3W0t2WySYajUsPnzF7qJE29zw4YOE7hOmsq0c+d2lyUpdvvtczWDZ2K5W+v0F8fEzJmzxOyNbsOG9fo711SvI4cPm/TKysoUSJJtsqmXBLogCdegz+IF002yZGRkSV1Lc2vXrHInpfYhKWF6CHsTRxGSm3bGyH7lfHNzk01YdlHLf/4e7J66+gaplMNdeXm5SdFwCcd1SD+kESETpCZ/8954HpwaqJ30OScnV2r4aIe91qCJYdToUVJvpXnounhV00QC65iedXX4Q7d8T275/LCd889FueeWOsTAHz923JiRlz5cwECdmztvrrt76VI3aPBgd062BqrCRTHtxYsXTY05plkfhvDEC1+1cqU7WX7S5Q4d4gZlDzK3+qBBIdc6M35B4TgDFTp9IolnqJOEwDY8dOig2/DJx+60HCSEC3Dvz5s330CEOjhjxowWG+i0qXsZkkzjJUU55w13vsOYZUfLDBB493Jycsz+RC3Mlt3E+eFSJTMzM2xMYPRiPeP+gwfkBBjo8gsKzL5LU59Qy5IFDiQjqigOFYCFCkff6Sv3o2oiKSEcJydPnnBMZDk6Dvj7tYwbnsaU5LZO77y8PE0ek0yaMr6AzYdJkMd4eZN0D8+RqrZ5jj6ohZLKSUnJppLG66ZPJLDsYaP8N77l2OEo5z4ThwDHWakBqCrM6LwE9P7Zs+e4QtkhZ+R0KNm82X3yyXr7xKHR1NjkmjTDosJ4OlJa6n78D39vzImtNlmet8997g/cooV3uBFi8BkzZuplJomhboz9+Dq68mn2m9zNAHvD+o/FzNskaeptdr976X2ueOpU6xNePmbk2bffLpuryjyFRwUcJPWSpbWSqDNMZYQhGZNLly66S5pEUlP7uP5iZNRZgCsudBkDMgSADHfnnYvNJv3oww8lvZwbqElox/atLk/qIGNINgu2D0BAXjG2AOvy5UsGLNz1qJrLlr1lauV99z0olXOKSSQkzzJ5aCvPV0hzeNDNnDXbAExMDuDjQAGUPD/28aRJk93Y/ALrL+DknCeeHbsuWX3H8+cJGXVRz4lDZUj2EN3bFqz+usjPngbW7WpwREujiZ2CI5+kB/9mlp6llzZhwgS9DLGeOICZDOZ7441fudWrVkqvPy574by9WBgjGjHDUiCY4tLFS/JIHXS//eADuX8XGXMUyZMFhb90O9DF/2DcE8ePux07trkD+/fbBIG6M2v2AlPlRsrzmKKZeUvJJpO4gOF2Bbznzp/vUsWYq1ascBViuBUCxgkBk3MwHi71PXt2uVNSG729dq7inNzZpeYAwDFRKUBAS+6+W9Ky1vVL7ycA9bVJB6cBoYsGSdGMjAGSbtdjWbUAS17HdNlp2H6NmqSw0YhFVVdXWZ2ABWAfkvRD0qHOImFQ6RhjpAzSCCmNS50JAOcGkxZSerAAHk6AEU8lduFgSSwmjxBdM5WeiQTpGc3xFF6P/97TwPqqb0ifK1WeUXk/7Nhn4iuDjBpBgVD5du3cabbFunVrxbQ7HMzQGfIvkpeJVMAmu1B5wS264w6TDLmSaN0l+l0uQ37Dhk8E4P3GZGMEJFQw4jzM3qhbMCtS7Kzc5KPHjBHo5pjKNW3aDHMY7N2zx8IKO/WcxKPGyubBRb171y5jYhgZqc0zYOzTLo4enBJIrrqFiwwcObmokqnmaewjKYeEg/EH61mRWEwmFCYmPHG44TNlq3k7FZUPDx7EfWVHSm1yo8+o0wAcr6OBAImVmmYB612Km5WXH7f7aBfP3gBJSdzyENcToMfuQkLmyK7zsOIc6j3PiMqfqlS2eCi+q+Kp6cZrHtGhF1oOb9TnPJV3VP5Y5YcqnznipZNZgAv5l6++4lZJUvksjO48DEyya9dOxYVK3QEB4LkvfVn223yTDDBpdwgP2b59e0wqTZJ9MXPOHLMzAJSvG5CXHlY6lZwthBKY2XlWJpLFS+42+2WLPKEwJwBi5kbNQsrU1V0yycAxRDmMj4SHCZNll8Co2KVIGAK3PE1h4TgDBhNUdU2tK8i8Hi+DgWvkteMeXPK4vb2t0yBHSW1tCFiAYJeAzTOgomPPoT4SoA5JFwFLIMB9jufx9KnTBkL6R8yQPuD94znxXPJeqR+7DJDyLJzj3TABUOcg2ZGovfFQTwGL2NUrKjgu8AQSw/pLlf+igncQfedFFWndnx1icFevWuVe/uk/myMDty0MkwiiHmIwH3+8zp3TzP/cF59zz6gAgK4SjIEbHA/juHHjLV6EqgPDerhyDV471Fr6gAMARoZgWiTJtGnT3fhx4wT8MrPNRouR58hTOFzxp/d+8xs5PbLMbc1s/s8/+UcD1de+/k1Tq2BaJJvVLbUuWWoofUBKH9i/TyraBUnHXLO3aBMVufpKlUkInh07DOADZCQS4KHPqIEEd+kjIQ/AzMRAe5zHYYIDAlv2/gcfskyPNWtWWdyMiaN1ANRmner1aivPgCcUsnbUv3rZX3zPFhC9s8MuiPFfTwDrK2rvb1Rw3SgnxX1ZBSvxz1XqVF5S+YZKjgrnPhNUpxl0xYqP3OuvvWrxH6/rJ7LzMB9qEGrbm79+0wDw+cefMObuajvM5mRDYBdVSkJ8IucFs+748ROkCioNywAdYmSYh8BqsmZtTx5cSIRUqVa4nzH8ARz2CkAYKpc16UlIEWZ47E+u2fDJJwYMgslMSuZVVN240kOhiCQ3XR7I8RMmtHrzUMmuVF0xwOC5w+YjywMHB2omScq0gXqKtgAoiXXRT1RppA59S1N/fd9xwevRTP0jmN9PkhbVfcWHy90JeRUJSBOn4vmxk1995Rd61hRNRhNMEhI/Y5wYm5sBrNF6Ge+p3N/yUkr1+ZhKyNoMHfy+PupV/rvK0yoouWdUbmlCPUFVI1C4QRkJZG/3JCG5tm/d6tIEgJEjR8lhMLfL4Ao30k+LGdesWW2qHGqQB9Zl5dHBODAWNhQSwkstnhMGRXogmTwBFCYBpDbMhsQAWNyLOCDXcb2k75QpxebQoX7uQeVKkucTSYp0LC6eJptrlNVBO9RZJYlFnYAJ8FrbknZILOy2Ewpi75SNy/XjJxRp0gg5G/Ae0gZBa9RAztMv6kolpiZJRSyqf8szEss7cGCfPTtgDbVfa6EI2kSyouJSJ5MRwW3qi4cSKbFmqMHClkb/TZ9IpSstf4d//JX+AFw/UKGX132e+uNWJBwMb7zxmmyqFYqvXE5YF3mR9tL14kNSQq7hJiW3SiogCcgC/9nL/yKHwmiXn1/QrXZhjkuXL5pnT2h1aWIcCIa/IHUHUEH1CrLieKBfkLpozE38CEkAcS39Q31k0iGkgFS5rNgTgKQm1D+Mfmw2H8/Dq7hXOYhIs4lFk4yRhw4bahkRVrH+QxNAEiFxBshbSPtkTeBQoC0yKraUbDapziSAlxIQQXgEeU5zMqS0VaEv6b1hz3nAkhlC7IyYFRILwPI+cJZkKngNsDhH3iM2Gd5JgMY18VAigbVMDZ5XOaLy7x00/j9brvtAn6iNtyzBKO8sW6aZfo3Ntp4BE9Fh1KsJmnELZb/42Akvcu/ePY5EVRispKRE6uev3Pe+92di2K7PQbiqAQIShYwCczboIYjPhGyTJrNPPnj/PQVQBaAWBiKuNWLUSKUVPWHZCB5U5OOdU2wPYB4+dMh9KHc84Qjug7lx3wPEgsJCWyJCu9u1VITgNMFWz6C5Q3Ld5x9/0uwkxrQKVfDKJalrfV2WHBeQASA3RypmH/M8sryFdpHmRRo/pAh/477HxsLJEBnIRf0EtKiX2G2jpT5+/oknLbh8pOyIe+2Xr5hEXLjgDjdPNin9I0tm9+5dCg80mhprAWzrUcf/JRJYtPbfOm6y9Yo3W7/dol8A1Y4d25V2s8ZmehgmEYQKRFyMgOs4gQobBVsCwignkHtA7mxmZryEa9eutax6ljp0Fdh406okUSAYFFUQ5mmShMSu8J5AVDUA7Yn5mbgOAVYId/ZWgZ1xIWZlDKjYVLqWVTRqfJrE2KaSiRlRYZF0BJwBFraT9V/zA3EpHBEkGuO14zh14Wa/IlUQe4xxgngP9BeAs6wGDYJ65yv3Eq8jxP0Ep4l5MUmFB3Kpl3HFuzdAoGIRZ7oARoHoF15IJOMoue5RkSGelTp577jm41UDuTfRwKLOztLIlhu6Ph13tsU4r0fvXvHRCls/hOqTCIJBZkyf6Z5+5hnLumgbjAy1wIssLz+urIK33Zuvv+aOakZ9661fuyK5y7GZYJTOUp0Mfw8Y1CyWhEAY88z0zPhIUDxsXg30bYxX0Br1DUIV3rptq9uszHb6iVTC4zhJcTHUqQapkgRjUcdmzZpj0mHOnNvlxk6ValipdkKvGa/gDtk42GWoeACDwt81NVU22fg+0i4SjLzB5ub91j8yYIi3URujQf9x3zc3Nyq7Q8BKacvarMdCYo9ScJjYmifuC6m11UoO7m8OCn+O7BlicwYsAf1WBtZ0dfq7Klj/lGEq96hA60Mft8b/vGQyvcmqYJ1UIghAzJs737347e+IEW8zRwGzcSTB2GReP/PsszLsR7j/9YMfSNVarkyJ2e6xzz9m8aPOgqtWMzJ2EO2R+4cNAcOQduWXp5B1/vxXXjB1KbxPZsiLsSGcFcR6UNOqpFrhzp4jyQS4TmgywB7pqzbIbmChI0S8a+bs2e6a2jMgaByOHCm1CQNV1PIEdQ/OCZgf6Qpgs4mNiegnwGDtF+8FBh8p6cUyHEDFMbx8qHqNksADlYOJq90T58nkALTYZWR6eDIXvqQngERFZoMgiHs4F0pnwqN5a0ssuOh563nb/0r05962h27+Xx9+tFzxliOWfZCI3pDs+tQzT0sqTDIJEAscgIsZmhjUU08/oxzDv3P/9q8vSz2pckuWsHapwBweMADkP9vr51UxKyoP6g5qliecJZVyU8NUObJ3OIcd0h4NGTLU3Xff/QJnulsnrx+zP4Ckv6hhPNMgqY6L71wiw/+UlqCsMxvF10c/UX0zBBqkBbYekhICGHhEuQZHAXEjQIVqvPy378vTeNLSlwjyHpRKiJpM4jL1ABzUWoCG0yFc6pr3UstEqCtD6iVBZ0/10kpQf5F7qMhZClZD9AGVE/sKImjc2xLrkNrFcbGDDnRAgOfPVPAGer/lGn1fq3JLEbP4J1p2H4q3dK9rMBvq1/0PPGASi5cbD/Eih0rlWbxkifaRWOvWKwaF4Y9nDKOdc0gMYjkdxVhYjkLGONIh06uBYkgkWXX1FZNCeN5IQo1F2D2oaLipie/0k20Fo2JXEQsCJEiviZo8iDV9+ukGm/l9nTDslMlTtBRjjI43mNu9r6QTY4SthTqHhCRICzhIaMZtv0cOHdTmqZKE5crLPC7p+PHHawWiXKmdg2w9lV9Wgt3lQUC9qKbYSwAQGyt8/AkOI5W4DjuXvkAGLMXMuIfvZOP7Ov2zxPpsq4jGurL9c+/qFCUeIh/lr+O58GZewyCTsLpv3z7Tv7vbF+pjDdbDjzxqtkdn6oO58vMLbLHf+vXKni/Z7LZv22b1TFVWerGWmLMUA0cIy9thymiEqoTDAI8fLmWYBabBW1avNCBiO5ZypBhTR4TahL2GdCHYqsezjIbdu3ZboHfixInGpNioqF5eIlEvbQ4WGLiX88ScADv9OX36tJKEz5hdNkjOAtz1G5XnSGCe3L4FCxeZBCdD/5133lGwe708lWNb9q+od03EqVR/pHJtqVNqj/eQoXrokyckFsADNMTpuAainsoLocA2x5iMehtYvo+/M58MJHmALCPghXeXAMe9997ncsVQ0V4O7VFCTYWM+PA2cQ/PkWdtjDxWZXJk1Ml1jqub5NptcmH3l9q09J573De/9W25oL0vKLyG0OJBwJAtG2LQwMF2Etc0qTwETUFHttzUSMSOCK8d6hP2GpnxBGvffXeZed5QX4nJESdj7RNZET7+5eslhvTOsrcNWKieqH1ktuBlJFueBaRIHdK7Ply+3NTmRx55zM2WE4Qg7cI7Pie1ttq9/967WtLytiUTp6RIRsgxAiDINcQpg8udcSVOB5AJOCOtwu1axhIA817wJnI9xHs/XxEClu0kJUnsz/nniPWZCIkVq/7P5DncwLt27bCXkYgHAFgLcA2HzZS+XhiBZQ2lhw8bMxUVTTQbJBzQ9tLlZWMd0rHjR415sBcACsWcC7KLaCeSYAYkQ5XsK2yTvrKxUGsgXOBnJCXoA/EqgrkwXUcMdFmqE+5rbDGCw+zqBKBQTUnmpU+XZPMQE5utpF9UQ+r09cL0LAalP2bviYnZBmDnzh3WJ+JTeBXJsMDJM0MrlbFPfawPV/uChQsNPCVbNpv6mqlnYhzw8O2RCjpSzh/vrr+oBYw1st/IH0Tdox9+fEnaZfkOzg4kqSeTWJpY+cQj6kHKeX+vvzba541vItpVv2fHysrKpNsfb2MbdGcImCmLpB5hZ0USK2BZBPip3NdZmk3vkWS7c/FiY4Dwa1GnWBi5/LcfOK3qaj1F3cXFxVo+f7upUP4EcRnL9haoYOKjCjgDRlzb7Cdx7Ogxudkr5AQ4YIyCfQJTkh2BI6N9umZqH0tMYFJUORiY3Ytw+e3VOqxjcqXvlhRbueojZZEXWlWADSlHPAzP3ynL0asTkBrdQQWNyWFk3HE8+MmFGBK5hNOmTW+j4gIgwAqwm6X+ocLhBBminEjaYfUBCcIAndXeuPlxYGCH4iDh3SJF+ZvAORKLSQmNwoMf8ITc9802ZvQXLyELUVmtjPs/FiUaWGxf9C2Vt1Xw9H0macvmErM9EtF5XlRObo65p8NVEF/3io8+cr/49381poKhSb0hexz7KZxgJtZPhatqSJ+iognuu3/8J6YmhUtElndsUSAXzxzZHARWIRYtrl27WqpamjkLtionkVkZqYbtYh5B9bk9ApiHJV3JDGFRJvsPTpp0m0CW7vbt2WsgLRFjk9yKlw1VEMAdFniIf9UBXkkiVFqAjhMEIJjHT+0CpOkzZsrTmGurjJEk0SQxx5Bszzz7nIGEcZ4lyUY9u3bttJgam55+4amnDdBMNICONLGjAj5e1Xna54OdmQA8nk12Hw4HFlKesWH8li//rU0gTHDsc0LScSxKNLD+oxr7ryp/oLIkSsNE5u6LctwfqtSXlf6Pm/W5YyeBy84tXGyvr7woVJjIFBt/PelAzKAwNnRc+2TYppIRwEIdHCh7JJzn5y2Y777+tW+aqoS64pmCeljguEkbVOKqpm7sDkBRKSnw6Qbt16eZl+X5zODMzkirzZs3tbE/qCeSuBZ7BaCTioUdxfMxaeRq/RbSZaPaJbi6UM4GpIi0TFPPkEq1yteDyYmHAaxDB0NbdhNbgtHvXLxEXk7c5X1k94RspMg++L8ZEx+45tjn7lxsbveVcnaQBMw7fKD6YZPkABFPb+3V7QZ4xmrevAUm1ekP/Ued9WSSSRJs//79Fv8C/LTHlgJ3aDuFjijRwPqRGvyOymKV+1XeVwmnAv3xeviBiO/b9DdruW4awTgY0X5BXSI6gtcrHBDhdWoyF2NfP8J3+hBJHPPHecGzZ89xTzzxh6aC4QyAecOJOFGh1CViQYmmFDk4cH3Pmj1bzHh9Z1i8igADlzbAWKQULC9Fh8h+Y9Uy6lQksZd6ntQ2pNXYsQUCbZpdEj5RRN7j/w6/BvWPtC/AhoeRcyzRLy6eamBm+Qojy1CNlSRN65tmqVH0mUWdZu+1VEz/sYtR35mQIF4LoMdD2RF1F1jfVQPTIhrBpQ79qcoz9i30X4M+AB50ROUV+xb6b74+7lLhmptKvHi2OsNjligiyBgFK1b92Pyxtr1WuaQWsybqzfDhI25oGpUE24REULbm+sMvPOUeevgRc5PfcLEOoAYxA7e7F1+0m+I8xuwPE2JfsXDRE4Bi5TOpV9hSQ8SsPBMTwoyZM20nYZ9z6O/hEwbH3gGE4apu+DXxfAdIgBcpiteUMAJ9YOk+nkbGjx9rQFoTiyMjBKn7hYFPW0gg1H5ohuIZ8T6OmzBBY3jdpiUxN1yytdev7gILte7edipfHHE8HFgEiv8i7Pzylu9vhB3r9a8wANH2Wr0QGDkRRJ0X5XWKxlDUv3TpvbbXxEfajZY9Hh566KEb7CuuQ206r4AlqURf/do3DFThahDXhBMuehjFS7nwc939DgMDGEokoSLigID8ea6HGdv7uSPOI4X57C75fmEz8ewAhHrJnAC8OqS/6VuK9Q/HiwdUZPs8C5Nc+Bj6vnbUz+4C63E1MFjl+yoXVP5SJZywt5aofE/lU5UxKpGE6rdUpVblJ5Ene/NvwERWAxnaiSJeSkXFOfPMkYDrmc3XP0zrkR7VTq9sfknUfzzerihuedQRvFdPPPmkW3LXXa12ja8n8pN2YNZYFM4wsa7rzLn2GI++dNSfeNqJZH7uCX8Ofx5QhB8PtX3jeHggRmubugBmV6hrd11vCQsfYD2nwvT1M5WdKhDK/QsqJF9xzSWVaATooJdVcF7cNDIQnAtlMyeyE2SEk9vGPuiRwVLUkSlTpliJ1SZ2yFh5C8dNGG+7JHkGau8enBEswWC/vGiEDcHyicj+RLv2VjkWco1rj78Wm4d+AQzc3wAHhwhbRzMJAQjSorBvbwZ1F1j0uVzlByp/ofJPKgpo2CYxAAZQLVf5pUo0ytfBp1QQETc91Qlg+eXd6k/CiHVK69atVfbEnC4zMqrdQw8/HNoIJg6VCUPd/9YVkvjaNdaShVQudCHUHxJYbyVg0U8mjPYmDdzlpHPVK7CMKgex+QsOC1z7xOBOnCg3byAOHey61NRQMDxSU7Cbw/5D1eb9A9DI9jnOerWkJM6F3RTj641KcoyLY5z6K507oULa8HCVPJVvq+BDZol+e/SfdIIR+rnK0fYu6q3jPQYszaAfvP8b24KLF9gVIsbF9snxqiYwBzEXAshSliyZmLgMdXAMdTPkrYyTU7rS6U7cw9jTP5Z2RDK2rwYpfFpxKtzjTAykPfHJNmul8uSWlGyyDJaTAld5+THbCg0whrI8QuEMX1f4J1IddZ1QR7T3A+AJFpOpom7GRd2RWHgD14e1whtE79ivQr19VSBc6J5+6L+0fCKtoO70I1RDAv5nVmKmZyATSdRHUPQ95baRNsSyia5QewwXrS7UPLyHLOUgQxwv2QB58XDBw4jM9CwhgUmZpT1gYXDfDv1GrSKexO654cR1nOOT+ymeWL6BVzWeeokXUQf9IOhMBkh+fqGpcb4+PukLCbOAICd3jO1xTz/xSpLrWFp6yPYQHCcvXz9Jq6am0JZppYcPWnbH+PGhHZfC6/TfaZsfwqsWsAnORxIpW4B12oxZGrM+kaej/t0dhq5WjRuj1tr+wYqIU0/q7/dU/oPKEZXvq9w04gWxTCTarNXdTlEne6CzKxEBRjIVPAP7umskzOqatItQivZbuM6nrkE4r6hrlmhPckP6S1XyN8T4xNuF+si15PXRFl45tkNjcSFJrKi9hBcAFZulkKAackkrQ1xAwUYjsAwACQJ7tdHbMhbkFcOzFTQeN4Lg3E9gtr7+quoN/agBy0oIKjMGgI2gNNn2fm0YOYNsXUZgnGB2ijaCKRDwUef8GAEsruN+UpVwn/tzSCUkGfEvdm0iJoZ0wy6twGZmD/2GfAMmy2eYbEgeZnAANTvscj95j+whGGqHiUfZKRqjgwcP2C+i5A0dbu3GI+m7A6zDemd3x3i30U61zdNxJvFw13+g8pIK0u5VlZtCxDiIzvcEsHigQ4cOuX/56T/ZEhK2Ofa7C/mHLa/RxixVTa5wQIorzJBXTy9eeHDn66+518vrXWZqkvviWP3OU1vh4W+/4RPGg3EAD5+kK+lDQLvsdu7YqgTcM5YXSKyLeA47HpUdKTVmAgykIYVUs2TbYCW/oEB1NdjxkP2mbdNU4WC5sounTrd9Kbbr1yEJziLhWKbPPWRUsL0AqwXI6SPbxGJyspNI0oV5OQ9AoL3aEx7Gn6D8Si8JkY41ytrgbwAO0Hg+Ckm9/A3QARJr1AhFIN1YyUz2PJPGGcUnafuKkqxRIXnPsp4Exom2Lo3J6Ix2qCIplzgXP4i3UT90Yb9oIgm8Wrt0kcs5YuSo1n7dMOgtB7oDLF9nsb6M8n+084l0W9vOOaTen6v8X5UXVG4esMQkqEw9BSx0dPY///GP/969+OJ3LDE33Kg+JlC9dVxrlMRURdnJbkZOqivKSHGHrzS6lScb3TBJq8dHpQlYQluchCcNVQfpgV0FUx3QFmTsJTh1+nTLdmfnJAz/iZMmm0ufNCjUyMkCPz90QMY6YOHXKPmBhaNHyyxvbpzUK6QC6htMfGD/XjHlBUsKpq3Sw6XmTGAfRjyjtHFNnlGW7KMZHJaaxlZro0aNMeDD9CxrmVA0ydKjAI0nPIEAB8lHetF+PQO7444bX2TZE8OGjTCVd9++3SYRp0ttYyuCY8fKtE5thCYQqUSyw0hMRsJekdTkN7vy8oZJcCXZuOAU2VJSZTsDp0ujIAg+Un0jPWqgltqwXwaAC39nvn+Rn4kAFqB4NrLiiL+P6+9oMSx/GWD6G5U7VPCPYqv1OmEXEITtKWDxQKySZfsuVtjCROFZFvBRxdVrbmVNg5tYnezO1Sq9KrPJHa1qdturte9DY5I7qs+pAxX0jHN02DMPhmFbaZwZqIVsN4DdlJpM8DQU6GXBIzvNov5dFQMPlBTKV/ZGX2UaYPvUyqlwTsmox7VshWA3v49MUjASBNWPmf5oWZnteQGIk+VBQ+pQn7n+BQikH3tHUC8SBGcBbbIOrKFRKqnUPwLJ+ao3tIDy+lM2NgGsWmNq7CpUOt4Tah52D6sHsNdOqR9MFNhKOENMguXk2m5LZMuTisXqZWyms5osACfSjkkPKU3Gfn1dpQXtkfSkSfGMbOLDRJKhpSfhgG/vNSQCWL7u/6EvZf6PsM//Hfa9va/Er3arzFSZorJVpdcJBmFGY6B7klA333zjdcth8/tF0N7wAUmuKCvZbb7S5PYJQAelGvYTs6SisEiaXlRmzabKJlecDSDi6yGg4idJyWZn8SGZ3HjJYJSyslKrt1qxHwBEG9hUACM/P98kHGoUah12GP1G0hUWjjNgWSa8usEMfkpjhhRC1UOtw4CB+f1Sd+wqXOQFBeNcf6lp/cT03EdbbFXG/vFIJewqCiAJJ5J6WQxJGhWb6vCOuB+1j0kC24pVvnXr11mGe+WF0A+JY09SH7+hhXcUUOHIQP0F2KwQYAcrno9tz/gBdzYb5YckSH0izsi48FyMGW3FQ/FdFU9NIRUuGiCIcXVEjOL4losIOvc6MXgh+6pnQeUfDLVnm5ZskCDqfx5odD+pfgO0W5DCeo2yhRrVpzpy23QTpVqOjU0Vje75fCRCx4YWM2voB6u1wFF7/+EswDmA8T18xMjW30IO5c+xQ9Fgyz5n+T4Mz/0wM3G4/nLRY9TDqCSmtq4t0zWoguYE6ZNiv+A4UjYITCwnq00AgySFUOHYexC7MkX34LygLmwdsiSQRnpck6qRoGLMkE60wbYC7GDFblCMCU4WJCHSZogCxWgA5HoyPjVy0LDdGqDBMUHIAqlNu9wDISWZTAAQOYWMkbqn+0O/o3xV/cQOo59IrngpkcCKt02u66+CCnlWBYv1eZVMFbIzjqr0OgEs9H0M4d4gVA/sFmbyUNhPg6K3MTQ9xY2XS/Dw1VA/0vSCx8q2Gt4v2W2TJDtR3eyOVMvgzuDld9xTwICdhQpDCUmQJEmIOmMyAquoTEgLGA7mDU+9Mm+ezsFYMCWeN7YhY6szJESD6gb6nHP6UT5fL+uoqqVewtAghj4w4/tFlGzugkMCeweVMeQN1JJ+gT4aoQoyZtg9fdRWSst74j4cJvymMQAiJc28jbIHUfcAcppAg6QhKwPnDEtnCH9wPaDmGQEYEwsARnMJSWr9XrGkGaov0hiXPKBunVSidbTl2M0ClkbbXOuR7ZN94bPjY3Q78acAFr+uyL7pvUXYdOH2nJx+Lq9/shuXmdwKrCF9ktwCOTHGZ6W6YWkNrl54q4ZXbb7WFN8BsUKXGderWDAmwGFPQJgFFbG2tto+sXdSpJZhoHs7wru42UcdZuOX4y9JXT4iBsV9z0SE3QTIAA6SwNfLd5iXOpAsmdpazBv+qH58J8jL2KPa4cnzvyEc+ViWxKzxsYC3roe4D5XuhPbJSE46ZSDBUTNS0phn4LmxmZDAhAuQZJVaNW1hBIEJEONhxLkCwPnOJANYs/RM/JACfWQyYgEqvzM9VL9c0tvAeknPeo4HjiCkUyTBvf+gMk6F86dU/p/Kayq9TrwgVJFNWh7PjN1bhPOCjWDCaZiANUmewA8rGixqnt8/xT0xuq+bINvrweGprqy22Y1NZ1+KjkFFvagvMBlxJpgcdalY+0cc3L/PfmaU82TVY6MgscgCz5WB7wGANEGVyxyQaZ46GJlgLKsAcJOzN0WedofK0T1Tp023FcH8fGmKxCkSgGUXbNhi9So47gPNAA2Ao8Lhsuc3jNPS+F1i8gxupCTZZ4DX/wqjv4IJACCRoIwKOUyqICubAUl6emjrAJbRjxmbb8+EdxJpiuREStM+dme6AMhY4MwBcKH933Fa5JgDg4mAyYnxiIciJUY897R3zaPtnWjn+IvtHO/1w6gYH3zwfstmJgjTnidUqoL8QmOu8NZypQkVDNButQpi5ajMHaKYliQYQeO+KkUq/VTi0AJtRifxl5/MCcWwrtlsO1rqDEBDYmK9IbXw0lEnq2qRIt6ewJ2Ny9nvXY4NQ3KrTUDCNkyINOOTDVyQXo1N1+tljRYMP3fu/DZ2SmHhOGNYQE1gmbgeHUDCRCOk4e36sTuewzuXABXSZMrUqRYz4z5sSepgYuBHy7GVkqUGEg7IU8YLNhpufyQTv5sFEPFKch0TLICcNWuOeQvNuynVfAbOEklmMjrikVb0I5HAekz17aDSCCLoe0sT6hjJnfyoGWlNPU3YI/yiBfud8yLDCfAME7CmZ2nZuRjyjiH6ETd0RBFzZUbLdzsQx3+oVxRPMBwxJko0yovoDyCieEJVa09dww6jRKO8oW2fEy8bxROSLxYxZnhQI4kJAGkYjZA2gA8VsLxc2x9ITWTnXzy/ABpnBf313k2AhVQn7cwT9efIXd9ZSgSwdqpRkt92qZSpRNK7OnC55SBrrgDasZa/b5kPBpQoPUHIHiO9ZH7tcLBeFCuAJ0hN4sVFEurg5/L6uDThacYgqX2RFwR/d2oEcJLgcCGOhSqKalxQOK41MN2pyuK8+DP7zk6fPR+fkRHHQKDjn9Oshvv7SpWWb+tfwklVAiK22OKHDvK0yQr7nocvbfdt1kto1si1zsvJlvMioO6NAMDCYYFnEvsK1ZeAOR5B76TpXgs33v2ZfWuJBBbDghqANwtdXF97hCw2olgORjVB0YB6bwTwKjKB8g68y78nWw+A1ZOjG9T9ezsC8fkOf2+HJ3jwYAS6NgIBsLo2bsFdwQjEHIEAWDGHJzgZjEDXRiAAVtfGLbgrGIGYIxAAK+bwBCeDEejaCATA6tq4BXcFIxBzBAJgxRye4GQwAl0bgQBYXRu34K5gBGKOQACsmMMTnAxGoGsjEACra+MW3BWMQMwRCIAVc3iCk8EIdG0EAmB1bdyCu4IRCEYgGIFgBIIRCEYgGIHfgRH4/zivcp+ZCNZ3AAAAAElFTkSuQmCC;" vertex="1" parent="1">
          <mxGeometry x="1350.4699999999998" y="300" width="104.39" height="40" as="geometry" />
        </mxCell>
        <mxCell id="BIOtD-0W4ChOzR4a4uk3-89" value="声量" style="ellipse;whiteSpace=wrap;html=1;aspect=fixed;fontSize=20;" vertex="1" parent="1">
          <mxGeometry x="1310" y="200" width="80" height="80" as="geometry" />
        </mxCell>
        <mxCell id="BIOtD-0W4ChOzR4a4uk3-90" value="口碑值" style="ellipse;whiteSpace=wrap;html=1;aspect=fixed;fontSize=20;" vertex="1" parent="1">
          <mxGeometry x="1410" y="200" width="80" height="80" as="geometry" />
        </mxCell>
        <mxCell id="BIOtD-0W4ChOzR4a4uk3-91" value="预警" style="ellipse;whiteSpace=wrap;html=1;aspect=fixed;fontSize=20;" vertex="1" parent="1">
          <mxGeometry x="1470" y="270" width="80" height="80" as="geometry" />
        </mxCell>
        <mxCell id="BIOtD-0W4ChOzR4a4uk3-92" value="观点&lt;br style=&quot;font-size: 20px;&quot;&gt;分析" style="ellipse;whiteSpace=wrap;html=1;aspect=fixed;fontSize=20;" vertex="1" parent="1">
          <mxGeometry x="1454.8600000000001" y="371.5" width="80" height="80" as="geometry" />
        </mxCell>
        <mxCell id="BIOtD-0W4ChOzR4a4uk3-93" value="KOL" style="ellipse;whiteSpace=wrap;html=1;aspect=fixed;fontSize=20;" vertex="1" parent="1">
          <mxGeometry x="1360" y="410" width="80" height="80" as="geometry" />
        </mxCell>
        <mxCell id="BIOtD-0W4ChOzR4a4uk3-94" value="工单" style="ellipse;whiteSpace=wrap;html=1;aspect=fixed;fontSize=20;" vertex="1" parent="1">
          <mxGeometry x="1260" y="371.5" width="80" height="80" as="geometry" />
        </mxCell>
        <mxCell id="BIOtD-0W4ChOzR4a4uk3-95" value="详情" style="ellipse;whiteSpace=wrap;html=1;aspect=fixed;fontSize=20;" vertex="1" parent="1">
          <mxGeometry x="1250" y="270" width="80" height="80" as="geometry" />
        </mxCell>
      </root>
    </mxGraphModel>
  </diagram>
</mxfile>
